<svg height="32" viewBox="0 0 26 32" width="26" xmlns="http://www.w3.org/2000/svg"><path d="m22.0924855 18.5925926c-.450867-.2962963-1.1271676-.2222222-1.4277456.2222222-.3005781.4444445-.2254335 1.1111111.2254335 1.4074074 1.9537572 1.3333334 3.0057804 3.1111111 3.0057804 4.962963 0 1.1851852 0 4.8148148-10.8959538 4.8148148-10.89595376 0-10.89595376-3.6296296-10.89595376-4.8148148 0-4 4.88439307-7.2592593 10.89595376-7.2592593 4.433526 0 7.9653179-5.4074074 7.9653179-9.85185183 0-4.44444444-3.6069364-8.07407407-7.9653179-8.07407407s-7.96531792 3.62962963-7.96531792 8.07407407c0 2.96296293 1.57803468 6.29629633 3.90751445 8.22222223-5.1849711 1.1851852-8.94219653 4.7407407-8.94219653 8.8148148 0 4.5925926 4.3583815 6.8888889 13 6.8888889s13-2.2962963 13-6.8888889c-.0751445-2.4444444-1.4277457-4.8148148-3.9075145-6.5185185zm-15.02890168-10.44444445c0-3.33333334 2.6300578-6 5.86127168-6 3.2312139 0 5.8612717 2.66666666 5.8612717 6 0 3.40740745-2.7803469 7.77777775-5.8612717 7.77777775-3.08092486 0-5.86127168-4.3703703-5.86127168-7.77777775z"/></svg>