<svg height="20" viewBox="0 0 20 20" width="20" xmlns="http://www.w3.org/2000/svg"><g transform="matrix(-1 0 0 1 20 0)"><path d="m16.6598802 2.26660158c-.0026042-.011556-.009603-.02067058-.013021-.03157554-.0056967-.01871746-.0131838-.03678387-.0222985-.05403646-.0104168-.01985675-.0229495-.03841146-.0372726-.05566408-.0115561-.01432292-.0242516-.02766925-.0380864-.04003904-.0167645-.01416017-.0351567-.02636721-.0546882-.03662108-.016439-.00992838-.0338546-.01839196-.0519212-.02539063-.0216474-.00683596-.0441087-.01139325-.0667326-.01367187-.0138349-.00406905-.0279952-.00732421-.0423183-.00960288h-1.6806855c-.0859386-1.160319-.6243569-2-1.3193527-2-.6949959 0-1.2334141.839681-1.3193527 2h-.6946704c-.0859386-1.160319-.6243569-2-1.3193527-2-.69499586 0-1.23341414.839681-1.31935273 2h-.69467035c-.0859386-1.160319-.62435687-2-1.31935273-2-.69499585 0-1.23341413.839681-1.31935272 2h-.69467035c-.08593859-1.160319-.62435687-2-1.31935272-2-.69499586 0-1.23341413.839681-1.31935273 2h-1.68068549c-.18408439 0-.33333758.14925129-.33333758.33333333v17.33333337c0 .184082.14925319.3333333.33333758.3333333h16.00020382c.1840844 0 .3333376-.1492513.3333376-.3333333v-1h3.0000382c.1000989 0 .1948267-.0450847.2579785-.1225586.0633147-.0776368.0883801-.179362.0683603-.2775065zm-3.326377-1.59993491c.2407257 0 .5766675.51074216.6507244 1.33333333h-1.3001468c.0727549-.82259117.4086967-1.33333333.6494224-1.33333333zm-3.3333758 0c.2407257 0 .5766675.51074216.6507244 1.33333333h-1.30014677c.07275485-.82259117.40869663-1.33333333.64942237-1.33333333zm-3.33337581 0c.24072574 0 .57666752.51074216.65072446 1.33333333h-1.30014681c.07275484-.82259117.40869662-1.33333333.64942235-1.33333333zm-3.33337579 0c.24072573 0 .57666751.51074216.65072445 1.33333333h-1.30014681c.07275484-.82259117.40869662-1.33333333.64942236-1.33333333zm-2.66670064 2h1.34734791c.0859386 1.160319.62435687 2 1.31935273 2 .18408438 0 .33333758-.14925129.33333758-.33333334 0-.18408204-.1492532-.33333333-.33333758-.33333333-.24072574 0-.57666752-.51074217-.65072446-1.33333333h2.66474753c.0870779 1.160319.62435687 2 1.31935272 2 .18408439 0 .33333758-.14925129.33333758-.33333334 0-.18408204-.14925319-.33333333-.33333758-.33333333-.24072573 0-.57666751-.51074217-.65072445-1.33333333h2.66474753c.0870779 1.160319.62435687 2 1.31935273 2 .1840844 0 .3333376-.14925129.3333376-.33333334 0-.18408204-.1492532-.33333333-.3333376-.33333333-.24072574 0-.57666752-.51074217-.65072447-1.33333333h2.66474757c.0870779 1.160319.6243568 2 1.3193527 2 .1840844 0 .3333376-.14925129.3333376-.33333334 0-.18408204-.1492532-.33333333-.3333376-.33333333-.2407257 0-.5766675-.51074217-.6507245-1.33333333h3.3174251v3.33333333h-15.33352864zm15.33352864 16.66666663h-15.33352864v-12.66666663h15.33352864zm.6666752-1.3333333v-12.43326825l2.590365 12.43326825z"/><path d="m7.66666667 12h-1.33333334c-.18408204 0-.33333333.1492513-.33333333.3333333v1.3333334c0 .184082.14925129.3333333.33333333.3333333h1.33333334c.18408204 0 .33333333-.1492513.33333333-.3333333v-1.3333334c0-.184082-.14925129-.3333333-.33333333-.3333333zm-.33333334 1.3333333h-.66666666v-.6666666h.66666666z"/><path d="m10.6666667 12h-1.33333337c-.18408204 0-.33333333.1492513-.33333333.3333333v1.3333334c0 .184082.14925129.3333333.33333333.3333333h1.33333337c.184082 0 .3333333-.1492513.3333333-.3333333v-1.3333334c0-.184082-.1492513-.3333333-.3333333-.3333333zm-.3333334 1.3333333h-.66666663v-.6666666h.66666663z"/><path d="m3.66666667 12h-1.33333334c-.18408204 0-.33333333.1492513-.33333333.3333333v1.3333334c0 .184082.14925129.3333333.33333333.3333333h1.33333334c.18408204 0 .33333333-.1492513.33333333-.3333333v-1.3333334c0-.184082-.14925129-.3333333-.33333333-.3333333zm-.33333334 1.3333333h-.66666666v-.6666666h.66666666z"/><path d="m7.66666667 15h-1.33333334c-.18408204 0-.33333333.1492513-.33333333.3333333v1.3333334c0 .184082.14925129.3333333.33333333.3333333h1.33333334c.18408204 0 .33333333-.1492513.33333333-.3333333v-1.3333334c0-.184082-.14925129-.3333333-.33333333-.3333333zm-.33333334 1.3333333h-.66666666v-.6666666h.66666666z"/><path d="m10.6666667 15h-1.33333337c-.18408204 0-.33333333.1492513-.33333333.3333333v1.3333334c0 .184082.14925129.3333333.33333333.3333333h1.33333337c.184082 0 .3333333-.1492513.3333333-.3333333v-1.3333334c0-.184082-.1492513-.3333333-.3333333-.3333333zm-.3333334 1.3333333h-.66666663v-.6666666h.66666663z"/><path d="m3.66666667 15h-1.33333334c-.18408204 0-.33333333.1492513-.33333333.3333333v1.3333334c0 .184082.14925129.3333333.33333333.3333333h1.33333334c.18408204 0 .33333333-.1492513.33333333-.3333333v-1.3333334c0-.184082-.14925129-.3333333-.33333333-.3333333zm-.33333334 1.3333333h-.66666666v-.6666666h.66666666z"/><path d="m7.66666667 9h-1.33333334c-.18408204 0-.33333333.14925129-.33333333.33333333v1.33333337c0 .184082.14925129.3333333.33333333.3333333h1.33333334c.18408204 0 .33333333-.1492513.33333333-.3333333v-1.33333337c0-.18408204-.14925129-.33333333-.33333333-.33333333zm-.33333334 1.3333333h-.66666666v-.66666663h.66666666z"/><path d="m10.6666667 9h-1.33333337c-.18408204 0-.33333333.14925129-.33333333.33333333v1.33333337c0 .184082.14925129.3333333.33333333.3333333h1.33333337c.184082 0 .3333333-.1492513.3333333-.3333333v-1.33333337c0-.18408204-.1492513-.33333333-.3333333-.33333333zm-.3333334 1.3333333h-.66666663v-.66666663h.66666663z"/><path d="m13.6666667 12h-1.3333334c-.184082 0-.3333333.1492513-.3333333.3333333v1.3333334c0 .184082.1492513.3333333.3333333.3333333h1.3333334c.184082 0 .3333333-.1492513.3333333-.3333333v-1.3333334c0-.184082-.1492513-.3333333-.3333333-.3333333zm-.3333334 1.3333333h-.6666666v-.6666666h.6666666z"/><path d="m13.6666667 15h-1.3333334c-.184082 0-.3333333.1492513-.3333333.3333333v1.3333334c0 .184082.1492513.3333333.3333333.3333333h1.3333334c.184082 0 .3333333-.1492513.3333333-.3333333v-1.3333334c0-.184082-.1492513-.3333333-.3333333-.3333333zm-.3333334 1.3333333h-.6666666v-.6666666h.6666666z"/><path d="m13.6666667 9h-1.3333334c-.184082 0-.3333333.14925129-.3333333.33333333v1.33333337c0 .184082.1492513.3333333.3333333.3333333h1.3333334c.184082 0 .3333333-.1492513.3333333-.3333333v-1.33333337c0-.18408204-.1492513-.33333333-.3333333-.33333333zm-.3333334 1.3333333h-.6666666v-.66666663h.6666666z"/><path d="m3.66666667 9h-1.33333334c-.18408204 0-.33333333.14925129-.33333333.33333333v1.33333337c0 .184082.14925129.3333333.33333333.3333333h1.33333334c.18408204 0 .33333333-.1492513.33333333-.3333333v-1.33333337c0-.18408204-.14925129-.33333333-.33333333-.33333333zm-.33333334 1.3333333h-.66666666v-.66666663h.66666666z"/></g></svg>