<svg height="14" viewBox="0 0 14 14" width="14" xmlns="http://www.w3.org/2000/svg"><path d="m1426.76802 102.993398 6.08083-6.0808186c.20406-.2112807.20114-.547122-.00656-.7548246s-.54355-.210621-.75483-.0065592l-6.08082 6.0808184-6.08081-6.0808615c-.21129-.2040618-.54713-.2011434-.75483.0065592s-.21062.5435439-.00656.7548247l6.08082 6.0808616-6.08086 6.080819c-.13998.135194-.19612.335395-.14684.523657s.1963.335286.38457.384564c.18826.049277.38846-.006861.52365-.146837l6.08086-6.080819 6.08081 6.08083c.21128.204061.54713.201143.75483-.00656.2077-.207702.21062-.543544.00656-.754824z" transform="translate(-1419 -96)"/></svg>