<svg height="22" viewBox="0 0 11 22" width="11" xmlns="http://www.w3.org/2000/svg"><path d="m7.19806275 22h-4.641262v-9.8639415h-2.55680075v-4.53006808h2.55672608v-2.54378403c0-2.33533083 1.43239978-5.06220639 5.47102945-5.06220639 1.42373848 0 2.46891847.13610006 2.51259827.14196447l.4285103.05681626-.1031889 4.2393608-.4721902-.00441735c-.0009706 0-1.06197986-.01028176-2.21938337-.01028176-.86135133 0-.97559088.21683093-.97559088 1.07928034v2.10425776h3.80148925l-.2106338 4.53006808h-3.59040746v9.8629514zm-3.68209772-.978976h2.72181344v-9.8634084h3.63453524l.11998887-2.57264913h-3.75452411v-3.0832338c0-1.01812291.22982311-2.0582564 1.93527783-2.0582564.68528801 0 1.33645348.00342726 1.75533186.00685451l.05809044-2.38323623c-.42373169-.03868988-1.12865696-.0881185-1.9597684-.0881185-3.3259391 0-4.51126784 2.10913207-4.51126784 4.08323034v3.52276008h-2.55665141v2.57264913h2.55672608v9.8634084z"/></svg>