<svg height="24" viewBox="0 0 24 24" width="24" xmlns="http://www.w3.org/2000/svg"><path d="m9.08051831 405h17.83920979c1.6941496 0 3.0802719 1.254274 3.0802719 3.08024v17.83952c0 1.825966-1.3861223 3.08024-3.0802719 3.08024h-17.83920979c-1.69464238 0-3.08051831-1.254274-3.08051831-3.08024v-17.83952c0-1.825966 1.38587593-3.08024 3.08051831-3.08024zm14.80601079 3c-.4878641 0-.8865291.409447-.8865291.910459v2.179082c0 .500804.398665.910459.8865291.910459h2.2265372c.4878641 0 .8869337-.409655.8869337-.910459v-2.179082c0-.501012-.3990696-.910459-.8869337-.910459zm3.1129945 7h-2.0418707c.1931821.647102.297753 1.332571.297753 2.041743 0 3.958857-3.2290713 7.167974-7.2115767 7.167974-3.9822671 0-7.210862-3.209117-7.210862-7.167974 0-.709661.1043326-1.394885.297753-2.041743h-2.1307202v10.053784c0 .520272.41494852.946216.92231956.946216h16.15536084c.5073711 0 .9223196-.425699.9223196-.946216v-10.053784zm-8.9997792-3c-2.7611063 0-4.9997444 2.238432-4.9997444 5s2.2386381 5 4.9997444 5c2.7613619 0 5.0002556-2.238432 5.0002556-5s-2.2386381-5-5.0002556-5z" transform="translate(-6 -405)"/></svg>