<svg height="20" viewBox="0 0 20 20" width="20" xmlns="http://www.w3.org/2000/svg"><path d="m41.8525098 40.101551v-7.389449c0-3.9590204-2.0991176-5.8012653-4.8991373-5.8012653-2.2593921 0-3.2712745 1.2510409-3.8346274 2.1288164v-1.8265919h-4.2556471c.0562157 1.2101021 0 12.8884898 0 12.8884898h4.2556471v-7.198c0-.384102.0275098-.7694081.1399412-1.0439388.3073921-.7694081 1.007098-1.5665102 2.1828431-1.5665102 1.540549 0 2.1565294 1.1812041 2.1565294 2.9138776v6.8957755zm-17.4735098-14.647653c1.4831373 0 2.4077059-.9909592 2.4077059-2.2275511-.0275098-1.2642857-.9245686-2.2263469-2.3801961-2.2263469-1.4556274 0-2.4065098.9608571-2.4065098 2.2251429 0 1.2377959.9233725 2.227551 2.3526863 2.227551h.0263137zm2.1278235 14.647653v-12.8884898h-4.254451v12.8884898z" transform="translate(-22 -21)"/></svg>