<svg height="22" viewBox="0 0 22 22" width="22" xmlns="http://www.w3.org/2000/svg"><path d="m15.73 0h-9.46c-3.44665234 0-6.27 2.82334766-6.27 6.27v9.46c0 3.4466523 2.82334766 6.27 6.27 6.27h9.46c3.4466523 0 6.27-2.8233477 6.27-6.27v-9.46c0-3.44665234-2.8233477-6.27-6.27-6.27zm5.5366523 15.73c0 3.0433477-2.4933476 5.5366523-5.5366523 5.5366523h-9.46c-3.04334766 0-5.53665234-2.4933476-5.53665234-5.5366523v-9.46c0-3.04334766 2.49334765-5.53665234 5.53665234-5.53665234h9.46c3.0433477 0 5.5366523 2.49334765 5.5366523 5.53665234z"/><path d="m16.1128289 1.73684211h-9.64671048c-2.2807968 0-4.15032895 1.86953214-4.15032895 4.15032894v9.64671055c0 2.2807968 1.86953215 4.1503289 4.15032895 4.1503289h9.64671048c2.2807968 0 4.150329-1.8695321 4.150329-4.1503289v-9.64671055c0-2.2807968-1.8695322-4.15032894-4.150329-4.15032894zm3.4025074 13.79703949c0 1.8695321-1.533019 3.4025073-3.4025074 3.4025073h-9.64671048c-1.86953215 0-3.40250732-1.533019-3.40250732-3.4025073v-9.64671055c0-1.86953215 1.53301899-3.40250732 3.40250732-3.40250732h9.64671048c1.8695322 0 3.4025074 1.53301899 3.4025074 3.40250732z"/><path d="m11 5.21052632c-3.18420417 0-5.78947368 2.60526951-5.78947368 5.78947368 0 3.1842042 2.60526951 5.7894737 5.78947368 5.7894737 3.1842042 0 5.7894737-2.6052695 5.7894737-5.7894737 0-3.18420417-2.6052695-5.78947368-5.7894737-5.78947368zm0 10.85528968c-2.78620515 0-5.06581598-2.2796109-5.06581598-5.065816 0-2.78620515 2.27961083-5.06581598 5.06581598-5.06581598 2.7862051 0 5.065816 2.27961083 5.065816 5.06581598 0 2.7862051-2.2796109 5.065816-5.065816 5.065816z"/><path d="m11 6.94736842c-2.24734605 0-4.05263158 1.80524236-4.05263158 4.05263158 0 2.247346 1.80524236 4.0526316 4.05263158 4.0526316 2.2473892 0 4.0526316-1.8052424 4.0526316-4.0526316 0-2.24738922-1.8052856-4.05263158-4.0526316-4.05263158zm0 7.36840928c-1.84211311 0-3.3157777-1.4736646-3.3157777-3.3157777 0-1.84211311 1.47366459-3.3157777 3.3157777-3.3157777 1.8421131 0 3.3157777 1.47366459 3.3157777 3.3157777 0 1.8421131-1.4736646 3.3157777-3.3157777 3.3157777z"/><path d="m16.7894737 4.05263158c-.6561554 0-1.1578948.50173931-1.1578948 1.15789474 0 .65615542.5017394 1.15789473 1.1578948 1.15789473s1.1578947-.50173931 1.1578947-1.15789473c0-.65615543-.5017393-1.15789474-1.1578947-1.15789474z"/></svg>