<svg height="27" viewBox="0 0 27 27" width="27" xmlns="http://www.w3.org/2000/svg"><path d="m10.7841797 24.2434609v2.7412583l-.6612396-.5354488c-.1021729-.0828056-2.53310399-2.061261-4.99822999-4.8983343-3.40054327-3.9137527-5.12471011-7.4268997-5.12471011-10.4415611v-.2988023c0-5.96097194 4.83776091-10.8105727 10.7841797-10.8105727 5.9464188 0 10.7841797 4.84960076 10.7841797 10.8105727v.2988023c0 .2531663-.0133896.5102561-.0376969.7704433l-2.108963-1.92868942c-.4319687-4.39592511-4.1406784-7.84175387-8.6375198-7.84175387-4.7860565 0-8.67995453 3.90342788-8.67995453 8.70119769v.2988023c0 5.0943006 6.54771421 11.2613574 8.67995453 13.1340859zm6.4704666-1.5150744h3.1562347v-3.1639592h-3.1562347zm-6.4704666-16.40026151c2.465538 0 4.4715042 2.01087557 4.4715042 4.48244771 0 2.4715721-2.0059662 4.4824477-4.4715042 4.4824477-2.46553802 0-4.47150424-2.0108756-4.47150424-4.4824477 0-2.47157214 2.00596622-4.48244771 4.47150424-4.48244771zm0 1.4824477c-1.65428123 0-3.00000001 1.34571877-3.00000001 3.00000001 0 1.6540202 1.34571878 3 3.00000001 3 1.6540202 0 3-1.3459798 3-3 0-1.65428124-1.3459798-3.00000001-3-3.00000001zm14.79776 13.48451261-.5916138-.5410242v3.3863574c0 1.5768172-1.2798385 2.8595815-2.8528061 2.8595815h-6.6620406c-1.5729676 0-2.8528062-1.2827643-2.8528062-2.8595815v-3.3863574l-.5916137.5410242-1.4180604-1.5582323 8.1933976-7.4931856 8.1936035 7.4931856zm-2.1775301-2.8322726-4.6776376-4.5721877-4.7689567 4.5721877v6.5081616c0 .5071491.4115226.9196507.9174682.9196507h7.6116579c.5059456 0 .9174682-.4125016.9174682-.9196507z"/></svg>