<svg viewBox="0 0 161.25 34.25" xmlns="http://www.w3.org/2000/svg"><path d="m-167.9-539.15h250v555.9h-250z" fill="none"/><path d="m82.1-539.15h250v555.9h-250z" fill="none"/><path d="m21.2 6.65h11.6v20.9h-11.6z" fill="#ff5f00"/><path d="m22 17.15a13.52 13.52 0 0 1 5.1-10.5 13.43 13.43 0 0 0 -18.7 2.2 13.43 13.43 0 0 0 2.2 18.7 13.22 13.22 0 0 0 16.4 0 13.08 13.08 0 0 1 -5-10.4z" fill="#eb001b"/><path d="m48.5 17.15a13.33 13.33 0 0 1 -21.5 10.5 13.13 13.13 0 0 0 2.2-18.6 15.25 15.25 0 0 0 -2.2-2.2 13.3 13.3 0 0 1 18.6 2.2 12.37 12.37 0 0 1 2.9 8.1zm-1.2 8.2v-.35h.2v-.1h-.4v.1h.2v.4zm.8 0v-.5h-.1l-.1.4-.2-.4h-.2v.5h.1v-.35l.1.3h.1l.1-.3v.4z" fill="#f79e1b"/><path d="m71.4 21.55v-5.5a3.26 3.26 0 0 0 -3-3.5h-.4a3.37 3.37 0 0 0 -3.1 1.6 3.36 3.36 0 0 0 -2.9-1.6 3.32 3.32 0 0 0 -2.6 1.3v-1.1h-1.9v8.8h1.9v-4.9a2 2 0 0 1 1.7-2.3h.5c1.3 0 1.9.8 1.9 2.3v4.9h1.9v-4.9a2.11 2.11 0 0 1 1.8-2.3h.3c1.3 0 1.9.8 1.9 2.3v4.9zm28.7-8.8h-3.1v-2.7h-1.9v2.7h-1.8v1.8h1.8v4c0 2 .8 3.3 3.1 3.3a4.2 4.2 0 0 0 2.4-.7l-.5-1.6a3.37 3.37 0 0 1 -1.7.5c-1 0-1.3-.6-1.3-1.5v-4h3.1zm16.4-.2a2.65 2.65 0 0 0 -2.3 1.3v-1.1h-1.9v8.8h1.9v-4.9c0-1.5.6-2.3 1.9-2.3a5 5 0 0 1 1.2.2l.6-1.8a7.84 7.84 0 0 0 -1.4-.2zm-24.8.9a6.44 6.44 0 0 0 -3.6-.9c-2.2 0-3.7 1.1-3.7 2.8 0 1.4 1.1 2.3 3 2.6l.9.1c1 .1 1.6.4 1.6.9 0 .7-.7 1.1-2 1.1a4.76 4.76 0 0 1 -2.9-.9l-.9 1.5a5.84 5.84 0 0 0 3.8 1.1c2.6 0 4-1.2 4-2.9s-1.2-2.4-3.1-2.6l-.9-.1c-.8-.1-1.5-.3-1.5-.9s.6-1 1.7-1a5.66 5.66 0 0 1 2.8.8zm51.5-.9a2.53 2.53 0 0 0 -2.3 1.3v-1.1h-1.9v8.8h1.9v-4.9c0-1.5.6-2.3 1.9-2.3a5 5 0 0 1 1.2.2l.6-1.8a7.84 7.84 0 0 0 -1.4-.2zm-24.8 4.6a4.4 4.4 0 0 0 4.3 4.6h.4a4.55 4.55 0 0 0 3.2-1l-.9-1.5a4 4 0 0 1 -2.3.8 2.85 2.85 0 0 1 0-5.7 4 4 0 0 1 2.3.8l.9-1.5a5.17 5.17 0 0 0 -3.2-1.1 4.41 4.41 0 0 0 -4.7 4.2zm18 0v-4.4h-1.9v1.1a3.41 3.41 0 0 0 -2.8-1.3 4.61 4.61 0 0 0 0 9.2 3.41 3.41 0 0 0 2.8-1.3v1.1h1.9zm-7.1 0a2 2 0 1 1 -.1.2c.1 0 .1-.1.1-.2zm-23.2-4.6a4.65 4.65 0 0 0 .1 9.3 5.78 5.78 0 0 0 3.6-1.2l-.9-1.4a3.92 3.92 0 0 1 -2.6.9 2.37 2.37 0 0 1 -2.6-2.2h6.6v-.7c-.1-2.8-1.8-4.7-4.2-4.7zm0 1.7a2.14 2.14 0 0 1 2.2 2.1h-4.6a2.32 2.32 0 0 1 2.4-2.1zm48.2 2.9v-8h-1.9v4.6a3.41 3.41 0 0 0 -2.8-1.3 4.61 4.61 0 0 0 0 9.2 3.41 3.41 0 0 0 2.8-1.3v1.1h1.9zm2.2 3.6h.2c.1 0 .1.1.2.1s.1.1.1.2v.4c0 .1-.1.1-.1.2s-.1.1-.2.1h-.4l-.3-.3v-.4l.3-.3c.1.1.1 0 .2 0zm0 1h.2a.1.1 0 0 0 .1-.1l.1-.1v-.4c0-.1 0-.1-.1-.1l-.1-.1h-.3a.1.1 0 0 0 -.1.1l-.1.1v.4c0 .1 0 .1.1.1l.1.1zm0-.7h.2v.2l-.1.1.2.2h-.1l-.2-.2v.2h-.1v-.5zm-.1.1v.2h.2v-.1h-.1zm-9.3-4a2 2 0 1 1 -.1.2c.1 0 .1-.1.1-.2zm-64.9 0v-4.4h-1.9v1.1a3.41 3.41 0 0 0 -2.8-1.3 4.61 4.61 0 0 0 0 9.2 3.41 3.41 0 0 0 2.8-1.3v1.1h1.9zm-7.1 0a2.65 2.65 0 1 1 2.6 2.85 2.61 2.61 0 0 1 -2.7-2.6.31.31 0 0 1 .1-.2z" fill="#211e1f"/></svg>