<svg height="226" viewBox="0 0 343 226" width="343" xmlns="http://www.w3.org/2000/svg"><path d="m287.560243 190.334375c0 3.430357-2.739236 5.902232-6.669444 5.902232-4.049306 0-6.669445-2.623214-6.669445-5.902232s2.620139-5.902232 6.669445-5.902232c3.930208 0 6.669444 2.623214 6.669444 5.902232zm-185.077083-5.902232c-4.2279517 0-6.6694447 2.623214-6.6694447 5.902232s2.441493 5.902232 6.6694447 5.902232c3.870659 0 6.490798-2.471875 6.490798-5.902232-.059548-3.279018-2.620139-5.902232-6.490798-5.902232zm69.969618-.151339c-3.215625 0-5.180729 1.765625-5.657118 4.388839h11.373784c-.535937-2.875447-2.620138-4.388839-5.716666-4.388839zm64.193403.151339c-4.049306 0-6.490799 2.623214-6.490799 5.902232s2.441493 5.902232 6.490799 5.902232c4.049305 0 6.669444-2.471875 6.669444-5.902232 0-3.279018-2.620139-5.902232-6.669444-5.902232zm63.061979 13.166518c0 .151339.178646.252232.178646.55491 0 .15134-.178646.252233-.178646.554911-.178646.151339-.178646.252232-.297743.403572-.178646.151339-.297743.252232-.655035.252232-.178646.151339-.297743.151339-.655035.151339-.178646 0-.297743 0-.655035-.151339-.178645 0-.297743-.15134-.476388-.252232-.178646-.15134-.297743-.252233-.297743-.403572-.178646-.252232-.178646-.403571-.178646-.554911 0-.252232 0-.403571.178646-.55491 0-.252232.178645-.403572.297743-.554911.178645-.151339.297743-.151339.476388-.252232.297744-.151339.476389-.151339.655035-.151339.297743 0 .476389 0 .655035.151339.297743.151339.476389.151339.655035.252232.178645.100893.119097.302679.297743.554911zm-1.31007.70625c.297743 0 .297743-.15134.476389-.15134.178646-.151339.178646-.252232.178646-.403571s0-.252232-.178646-.403571c-.178646 0-.297743-.15134-.655035-.15134h-.952777v1.765625h.476389v-.70625h.178645l.655035.70625h.476389zm44.60191-174.0906253v177.5714283c0 13.368304-12.802951 24.214286-28.583333 24.214286h-285.8333337c-15.7803819 0-28.5833333-10.845982-28.5833333-24.214286v-177.5714283c0-13.3683036 12.8029514-24.2142857 28.5833333-24.2142857h285.8333337c15.780382 0 28.583333 10.8459821 28.583333 24.2142857zm-304.8888889 70.4232143c0 38.591518 36.9796875 69.868304 82.4748269 69.868304 16.197222 0 32.096701-4.136608 45.554687-11.653125-43.410937-29.914733-43.113194-86.3642861 0-116.2790183-13.457986-7.5669643-29.357465-11.6531858-45.554687-11.6531858-45.4951394-.0503856-82.4748269 31.2768465-82.4748269 69.7170251zm133.3888889 54.885714c41.981771-27.745535 41.803125-81.8241069 0-109.7209819-41.803125 27.896875-41.981771 82.0258929 0 109.7209819zm-84.7376736 38.490625c0-4.388839-3.3942708-7.264285-8.7536458-7.415625-2.7392362 0-5.6571181.70625-7.6222223 3.279018-1.4291666-2.068303-3.8706597-3.279018-7.2649305-3.279018-2.2628472 0-4.5256945.70625-6.3121528 2.724107v-2.219642h-4.8829861v18.513839h4.8829861c0-9.534375-1.4887153-15.234822 5.359375-15.234822 6.0739583 0 4.8829861 5.145536 4.8829861 15.234822h4.7043403c0-9.231697-1.4887153-15.234822 5.359375-15.234822 6.0739583 0 4.8829861 5.044643 4.8829861 15.234822h4.8829861v-11.602679zm26.7373266-6.91116h-4.704341v2.219642c-1.607812-1.664732-3.870659-2.724107-6.967187-2.724107-6.1335069 0-10.8378472 4.136607-10.8378472 9.736161 0 5.65 4.7043403 9.736161 10.8378472 9.736161 3.096528 0 5.359375-.958482 6.967187-2.724107v2.320535h4.704341zm24.117187 12.914285c0-7.566964-13.636632-4.136607-13.636632-7.667857 0-2.875446 7.086285-2.421428 11.016493-.554911l1.965105-3.279017c-5.59757-3.077233-17.983681-3.026786-17.983681 4.136607 0 7.213839 13.636632 4.187053 13.636632 7.566964 0 3.178125-8.039063 2.925893-12.326563.403571l-2.084201 3.178125c6.669444 3.833929 19.412847 3.026786 19.412847-3.783482zm21.080209 4.691518-1.31007-3.430357c-2.262847 1.059375-7.26493 2.219643-7.26493-2.068304v-8.374107h7.800868v-3.733035h-7.800868v-5.65h-4.882987v5.65h-4.525694v3.682589h4.525694v8.424553c0 8.878572 10.30191 7.264286 13.457987 5.498661zm7.919965-6.759821h16.375868c0-8.172322-4.406597-11.400893-10.361458-11.400893-6.312153 0-10.837848 3.985268-10.837848 9.736161 0 10.341517 13.457986 12.056696 20.127431 7.163392l-2.262847-3.026785c-4.644792 3.228571-11.671528 2.925893-13.041146-2.471875zm35.193229-10.845982c-2.739236-1.008929-6.907639-.908036-9.051389 2.219642v-2.219642h-4.882986v18.513839h4.882986v-10.442411c0-5.851786 5.657118-5.095089 7.622222-4.2375zm6.312153 9.231696c0-5.750893 6.907639-7.617411 12.326562-4.2375l2.262848-3.279018c-6.907639-4.590625-19.472396-2.068303-19.472396 7.566964 0 9.988393 13.338889 12.00625 19.472396 7.566965l-2.262848-3.279018c-5.478472 3.279018-12.326562 1.311607-12.326562-4.338393zm39.718923-9.231696h-4.882986v2.219642c-4.942534-5.549107-17.805034-2.421428-17.805034 7.012054 0 9.685714 13.338888 12.460268 17.805034 7.012054v2.320535h4.882986zm20.067882 0c-1.429166-.605358-6.550347-1.462947-9.051389 2.219642v-2.219642h-4.70434v18.513839h4.70434v-10.442411c0-5.549107 5.359375-5.195982 7.622223-4.2375zm23.998091-7.516518h-4.704341v9.73616c-4.882986-5.49866-17.805034-2.572767-17.805034 7.012054 0 9.786607 13.398437 12.409821 17.805034 7.012054v2.320535h4.704341zm4.525694-37.885268v2.320536h.476389v-2.320536h1.131424v-.403572h-2.739236v.403572zm3.930208 62.452678c0-.252232 0-.55491-.178645-.807142-.178646-.15134-.297743-.403572-.476389-.554911s-.476389-.252232-.655035-.403572c-.297743 0-.655035-.151339-.952778-.151339-.178646 0-.476389.151339-.83368.151339-.297743.15134-.476389.252233-.655035.403572-.297743.151339-.476389.403571-.476389.554911-.178646.252232-.178646.55491-.178646.807142 0 .15134 0 .403572.178646.70625 0 .15134.178646.403572.476389.554911.178646.151339.297743.252232.655035.403572.297743.151339.655034.151339.83368.151339.297743 0 .655035 0 .952778-.151339.178646-.15134.476389-.252233.655035-.403572s.297743-.403571.476389-.554911c.178645-.302678.178645-.55491.178645-.70625zm1.905556-62.906696h-.833681l-.952777 1.765625-.952778-1.765625h-.833681v2.724107h.476389v-2.068303l.952778 1.765625h.655035l.83368-1.765625v2.068303h.655035zm2.620139-40.609375c0-38.4401786-36.979688-69.7674107-82.474826-69.7674107-16.197223 0-32.096702 4.1366071-45.554688 11.653125 42.934549 29.9147321 43.589583 86.5156247 0 116.2790177 13.457986 7.566964 29.476563 11.653186 45.554688 11.653186 45.495138.050386 82.474826-31.2264 82.474826-69.817918z" fill="#c49d69"/></svg>