<svg height="23" viewBox="0 0 37 23" width="37" xmlns="http://www.w3.org/2000/svg"><g transform="translate(0 -1)"><path d="m10.0879161 11.4285714c-.73590086 0-1.29999876.187083-1.29999876.187083l-.1558051.7318248s.46532861-.1496664 1.16992932-.1496664c.39994614 0 .69208064.0352156.69208064.2921796 0 .1562694-.0354735.214045-.0354735.214045s-.3150879-.020359-.46115522-.020359c-.92857053 0-1.90374348.3125387-1.90374348 1.2584084 0 .7450306.63921822.9150561 1.03638209.9150561.75746316 0 1.08437561-.3884724 1.10106901-.3895729l-.0354735.324644h.945264l.4215084-2.3385377c-.0006956-.9931907-1.094809-1.0251049-1.4745839-1.0251049zm-.53001556 2.7171057c-.3331725 0-.4201173-.2008391-.4201173-.3207923 0-.232203.15928288-.5117271.94595946-.5117271.1836275.0005503.2031031.0154069.2337077.0198088.0208667.1430635-.1126805.8127106-.75954986.8127106z"/><path d="m13.2071821 12.2118225c.116026 0 .5635549.0382209.5635549.0382209l.104263-.7544469s-.2897977-.0670251-.7613873-.0670251c-.6106069 0-1.2297688.2525902-1.2297688 1.1161606 0 .9793408 1.0330058.8796342 1.0330058 1.2928628 0 .2747472-.2887283.2974582-.5111561.2974582-.3855057 0-.7319797-.1362658-.7330491-.1307265l-.1101445.7483538c.0197832.0055392.2336561.104138.9260694.104138.1855346 0 1.2479479.0498534 1.2479479-1.0862485 0-1.0624297-.9832803-.8524918-.9832803-1.2795686 0-.2127076.1598699-.2791787.4539451-.2791787z"/><path d="m15.42295 11.8225729h.6160132l.1485368-.948775h-.5805755l.1183771-.5880836h-1.1634129c-.0256358.0215631-.6868887 3.3167917-.6868887 3.7166886 0 .5952713.385291.8592556.9274128.8546816.4244987-.0026137.7555021-.1045482.8723712-.1326456l.1455209-.8572952c-.0799234 0-.1967925.0300576-.3000897.0300576-.4048949 0-.4493805-.1875334-.4237447-.3254063z"/><path d="m18.8612546 5.71428571h-1.9444204c-.261233.36818852-.5069332.75994109-.7293342 1.14285715h3.46875c-.2407579-.39911635-.5069331-.78055965-.7949954-1.14285715z"/><path d="m33.9498125 17.6068571c-.0346875-.0514285-.0635937-.0902857-.0867187-.1142857-.0127188-.0114285-.0289063-.024-.0497188-.0297143.0497188-.0034285.0913438-.0217142.1214063-.0525714.0289062-.0308571.0450937-.0674286.0450937-.1097143 0-.0297143-.00925-.0582857-.0265938-.0845714-.0173437-.0262857-.0427812-.0457143-.074-.056-.0289062-.0114286-.0786249-.0171429-.1468437-.0171429h-.2011875v.5771429h.0948125v-.2445714h.0543437c.032375 0 .0589688.0068571.0740001.0205714.0242812.0194286.0589687.064.0994374.1337143l.050875.0914286h.1167813zm-.2104375-.208h-.115625v-.1737142h.1086875c.0450938 0 .0751563.0034285.0925.0102857.0185.0068571.0300625.0171428.0404687.0297143.0092501.0137142.013875.0285714.013875.0445714 0 .0262857-.00925.0491428-.0289062.0651428-.0196562.0148572-.0578125.024-.111.024z"/><path d="m20.451226 8h-3.8129991c-.2435426.58798639-.4051348 1.03247171-.4507269 1.14285714h4.625c-.1044578-.39297212-.2244978-.7734339-.361274-1.14285714z"/><path d="m6.59262118 10.2857143-.93421315 2.8054351-.04852257-2.8054351h-1.38320053l-.75793493 4.5714286h.91455843l.57674303-3.4461443.08476096 3.4461443h.65290504l1.21797809-3.4461443-.53989044 3.4461443h.97045153l.74749336-4.5714286z"/><path d="m26.277204 11.4285714c-.7374386 0-1.3009529.187083-1.3009529.187083l-.1565318.7318248s.4661168-.1496664 1.1701619-.1496664c.4000257 0 .692914.0352156.692914.2921796 0 .1562694-.0368719.214045-.0368719.214045s-.3144549-.020359-.4619427-.020359c-.9280594 0-1.9027306.3125387-1.9027306 1.2584084 0 .7450306.640041.9150561 1.0365882.9150561.756918 0 1.0838955-.3884724 1.1012879-.3895729l-.0354805.324644h.9447562l.4215922-2.3385377c.0020871-.9931907-1.0929396-1.0251049-1.47279-1.0251049zm-.5287295 2.7171057c-.3339345 0-.4202009-.2008391-.4202009-.3207923 0-.232203.1593146-.5117271.9461476-.5117271.1829683.0005503.2024478.0154069.2337541.0198088.0201752.1430635-.1140942.8127106-.7597008.8127106z"/><path d="m33.3855625 13.9828571c-.0474063-.0868571-.1167813-.1531428-.2035-.1988571-.0855625-.0468571-.1734375-.0697143-.2659375-.0697143-.0890313.0011429-.1780625.024-.2659375.0697143-.0867188.0457143-.1537813.112-.2023438.1988571-.0485625.0857143-.0728437.1748572-.0728437.2674286s.0242812.1805714.0728437.2651429c.0474063.0845714.1144688.152.2000313.2.0867187.0468571.17575.0708571.26825.0708571.0948125 0 .185-.024.2694062-.0708571.0855625-.048.152625-.1154286.2000313-.2.0497188-.0845715.0716875-.1725715.0716875-.2651429 0-.0948571-.023125-.184-.0716875-.2674286zm-.0751563.488c-.0393125.0708572-.0948125.1245715-.1676562.1668572-.0716875.0388571-.1456875.0594286-.2231563.0594286-.078625 0-.1537812-.0205715-.2243125-.0594286-.0728437-.04-.1271875-.0948572-.1688125-.1668572s-.060125-.1451428-.060125-.2217142c0-.0765715.0196563-.1508572.0624375-.2228572.0404688-.0708571.0948125-.1257143.1688125-.1657143s.1468438-.0571428.222-.0571428c.0751563 0 .1491563.0182857.2196875.0571428.074.04.1283438.0937143.1688125.1657143.0404688.072.0624375.1462857.0624375.2228572 0 .0765714-.0196562.1508571-.060125.2217142z"/><path d="m32.7947187 14.1782857c-.0335312-.0537143-.0635937-.0914286-.0855625-.1142857-.013875-.0125714-.0289062-.0228571-.0497187-.0297143.0497187-.0034286.0901875-.0217143.12025-.0525714.0289062-.0297143.04625-.0685714.04625-.1097143 0-.0285714-.00925-.0582857-.02775-.0845714-.0185-.0251429-.0427813-.0445715-.0716875-.056-.0289063-.0114286-.0797813-.0171429-.148-.0171429h-.2035v.576h.0948125v-.2445714h.0543437c.0335313 0 .060125.0068571.0763125.0194286.0242813.0205714.0566563.064.0994375.136l.0497188.0902857h.1167812zm-.208125-.2114286h-.1144687v-.1748571h.106375c.04625 0 .0763125.0034286.0948125.0091429.0150312.008.0289062.016.0381562.0308571.0104063.0148571.0150313.0274286.0150313.0468571 0 .0251429-.0104063.0468572-.02775.0628572-.0219688.0194286-.0578125.0251428-.1121563.0251428z"/><path d="m29.8800312 11.4285714c-.4245317 0-.7397051.5336981-.7397051.5336981l.0847835-.4906853h-.8834684l-.5916412 3.3855587h.9731668c.2770823-1.4465878.3274609-2.619818.9854543-2.40532.1161165-.5591662.2279324-.775928.3538789-1.0119323 0 .0005659-.0589798-.0113192-.1824688-.0113192z"/><path d="m31.4746605 10.2875593-.1936777 1.2700121s-.3373365-.4938594-.8666059-.4938594c-.8229848.000615-1.5081269 1.0492207-1.5081269 2.2534259 0 .7779977.3658356 1.540005 1.1126289 1.540005.5379936 0 .8357803-.3966866.8357803-.3966866l-.0389682.3388749h.8730037l.6863053-4.5136169zm-1.13822 3.6470566c-.3233777 0-.4745976-.2865984-.4745976-.7367915 0-.7361765.3123271-1.2214257.7072435-1.2214257.3222145.000615.4879747.2349368.4879747.787223 0 .5012396-.2343907 1.1709942-.7206206 1.1709942z"/><path d="m36.0474858 1.14285714h-35.09497164c-.52669971 0-.95251416.40652406-.95251416.90796617v21.04121049c0 .5014421.42581445.9079662.95251416.9079662h35.09497164c.5266998 0 .9525142-.4065241.9525142-.9079662v-21.04121049c0-.50144211-.4258144-.90796617-.9525142-.90796617zm-2.3694936 16.59754666c-.0275142.047459-.0648548.0836778-.1133321.1092807-.0484774.0256028-.0995751.0387165-.151983.0387165-.0537182 0-.1048159-.0131137-.1532932-.0387165-.0478223-.0256029-.085818-.0618217-.1139873-.1092807-.0268591-.0455857-.0406161-.0942936-.0406161-.1448749 0-.0505814.013757-.0986649.0412712-.1461239.0268591-.047459.066165-.0830533.1146424-.1086562.0491324-.024354.0989199-.0374676.1513279-.0374676.0517528 0 .1015403.0131136.1500177.0374676.0491324.0256029.0877832.0611972.1146423.1086562.0275142.047459.0406162.096167.0406162.1461239 0 .0499568-.0117918.1005382-.039306.1448749zm.6865439-5.168663c.0013102 4.9988096-4.2476629 9.0528099-9.4923867 9.0540588-2.4526912.0006245-4.6891997-.8854856-6.3741147-2.341104-1.684915 1.4531206-3.9168378 2.3386062-6.3655984 2.3386062-5.24144834 0-9.49566222-4.0546248-9.49566222-9.051561 0-4.97695349 4.22080382-9.01971345 9.43473792-9.05218542h.0609243c2.4487606 0 4.6813385.88548558 6.3662535 2.33860613 1.6842599-1.45374501 3.918148-2.33985505 6.3688739-2.34047951 5.2447238-.00187338 9.4969724 4.05025349 9.4982826 9.0496876-.0013102.0012489-.0013102.0018734-.0013102.0043712z"/><path d="m17.34375 18.2857143c.35464.4054834.7301412.7922078 1.1450468 1.1428571.0092716-.0079365.0193159-.0151515.0285875-.0223665 0 0-.0007726 0-.0007726-.0007215h.0023179c.4079519-.3470418.7888615-.7207792 1.1373204-1.1197691z"/><path d="m18.356324 13.4346854s.143676-.5475202.143676-.7703609c0-.556828-.3581284-1.2357531-1.5570802-1.2357531-1.0984493.0005475-1.9116698.9160013-1.9116698 1.9508145 0 1.1941415 1.018472 1.477757 1.8868981 1.477757.8011885 0 1.1536548-.1390702 1.1536548-.1390702l.1925118-.81471s-.6093846.2080577-1.1600248.2080577c-1.1727644 0-.967513-.676735-.967513-.676735zm-1.4098654-1.2477985c.6164622 0 .5025123.5360223.5025123.5787288h-1.2123993c0-.0552995.1146577-.5787288.709887-.5787288z"/><path d="m23.1795982 11.2257124c.5184633 0 .9352152.2637018.9352152.2637018l.1664366-.9776698s-.6168721-.2260301-1.1478841-.2260301c-1.1762841 0-2.3208659.9244511-2.3208659 2.6603382 0 1.1510791.6175326 1.9110904 1.8341049 1.9110904.3434406 0 .8916246-.1261703.8916246-.1261703l.1822877-1.00697s-.4993098.2266281-.8427504.2266281c-.7238671-.000598-1.0138102-.5004952-1.0138102-1.0362702 0-1.0900869.6221558-1.6886481 1.3156416-1.6886481z"/><path d="m16.1875 16c.1696442.3969072.3669991.7746686.5785474 1.1428571h3.4760157c.2108724-.3667157.4007927-.748159.5704369-1.1428571z"/><path d="m20.6293195 11.428651c-.4247574 0-.7394836.5336857-.7394836.5336857l.0854432-.4906739h-.8833234l-.5919557 3.3854801h.9736842c.2760001-1.4459883.3276349-2.6197572.9859782-2.4052642.1155635-.5597191.2268242-.7764759.3528376-1.0130407 0 0-.0590112-.0113189-.1831805-.010187z"/></g></svg>