<svg height="24" viewBox="0 0 37 24" width="37" xmlns="http://www.w3.org/2000/svg"><path d="m36.9999904 11.909773c-.0107574-.3983352-.1375098-.6384649-.2997685-.8108108l-8.9074417-10.3783849c-.4207037-.56156757-1.3742074-.65043244-1.97025-.19442595-.5961111.45600649-.6277666 1.30863568-.1495074 1.81604757l7.0873843 8.27027678h-31.39010799c-.75685555 0-1.37037037.5808-1.37037037 1.2972973s.61351482 1.2972973 1.37037037 1.2972973h31.39010799l-7.0873843 8.2702702c-.5425296.5124973-.3883629 1.4113946.1843148 1.8936.4407797.3712217 1.6155982.2529081 1.9354426-.2719783l8.9074417-10.3783784c.2319694-.2688.3025915-.4686487.2997685-.8108108z"/></svg>