<svg height="32" viewBox="0 0 47 32" width="47" xmlns="http://www.w3.org/2000/svg"><path d="m35.134686 17.3649655c.2754419-.0121379.537221-.1335172.6651047-.3023448.1295233-.169931.0989186-.3641379-.0754186-.5263448-1.0105-.9451035-1.4274884-1.5889656-2.2718488-3.0708966-.1185931-.2091034-.3076861-.3514483-.512628-.3773793-.2049418-.0253793-.4022325.0684138-.5317558.2449655-.9181395 1.2529655-1.3728372 1.7594483-2.3904418 3.0896552-.1754303.2289655-.2049419.5473103-.0770582.806069.1273372.2587586.3847442.4071724.6574535.3922758.3142442-.0176552.466721-.0264827.7651163-.0441379-.0136628 1.5415172-.0180349 2.2962758-.024593 4.0093793-.0016396.2173793.1508372.3696552.3355581.3376552.9454651-.1627587 1.3925116-.230069 2.3674884-.4176552.1912791-.0369655.3481279-.2631724.3448488-.489931-.0196744-1.7892414-.0295116-2.3652414-.0262325-3.6143449.3033139-.0154482.4568837-.0226207.7744069-.0369655z"/><path d="m23.4289535.55062069.1770698.0617931.5131744.944-.1295233.29958621.3000349.01489655 4.3234535 7.94979311 18.0316046 1.75779314-5.4558255-7.17406901-9.2130931-2.15448276h.0071047l-8.3889535-2.00386206v-.09048276l-.188.04524138-.188-.04524138v.09048276l-.3896628.09213793.1481047.05241379-17.16374423 4.0137931-5.45746511 7.17406901 18.03269764-1.75779314z"/><path d="m39.3149535 26.2504828-14.4120582 3.4433103v-23.49572413l-1.481593-3.03062069-3.6364883 8.41103452-13.97211633 1.2816551v14.736l17.40530233 4.1583449v.089931l.188-.0452414.188.0452414v-.089931l17.4058488-4.1583449v-14.5462069l-1.6848953-.1842758z"/></svg>