<svg height="32" viewBox="0 0 38 32" width="38" xmlns="http://www.w3.org/2000/svg"><g fill="#9ac346"><path d="m21.2967033 7.03157895h-4.1340659c-.9559652-4.28392248-4.9756594-7.14055815-9.29834353-6.60796032-4.32268417.53259783-7.54191378 4.28114117-7.44671145 8.67111821.00300624 1.80865036.5892637 3.56726036 1.67032967 5.01052636v11.3263157c0 1.1627048.93479008 2.1052632 2.08791209 2.1052632h.91868131c.22325709 2.3313058 2.16616531 4.1103044 4.48901099 4.1103044 2.32284572 0 4.26575392-1.7789986 4.48901102-4.1103044h11.9010989c.2232571 2.3313058 2.1661653 4.1103044 4.489011 4.1103044 2.3228456 0 4.2657539-1.7789986 4.489011-4.1103044h.9604395c1.153122 0 2.0879121-.9425584 2.0879121-2.1052632v-4.968421c0-1.8603276-1.4956641-3.3684211-3.3406593-3.3684211h-1.545055l-1.8791209-4.4631579c-.1077517-.3264452-.4104338-.5468656-.7516483-.5473684h-5.8461539v-1.6842105c0-1.86032758-1.4956641-3.36842105-3.3406593-3.36842105zm-12.36043956-4.84210527c3.78224016 0 6.84835166 3.09159163 6.84835166 6.90526316 0 3.81367156-3.0661115 6.90526316-6.84835166 6.90526316-3.78224018 0-6.84835165-3.0915916-6.84835165-6.90526316 0-3.81367153 3.06611147-6.90526316 6.84835165-6.90526316zm.66813186 27.62105262c-1.16903552.0170851-2.23241691-.6798243-2.69157729-1.7639819-.45916037-1.0841576-.22306123-2.3406057.59760223-3.180258.82066346-.8396522 2.06317691-1.0960293 3.14498736-.6489288 1.0818104.4471005 1.7884254 1.5090313 1.7885481 2.6879056.0001655 1.5882322-1.2645834 2.8822453-2.8395604 2.9052631zm11.6923077-3.9578947h-7.3076923c-.4532886-2.0871442-2.2865013-3.5746093-4.40549452-3.5746093-2.11899319 0-3.95220595 1.4874651-4.4054945 3.5746093h-1.0021978c-.11438207.013718-.22868622-.0262113-.31013667-.1083387-.08145046-.0821273-.12105072-.1973813-.10744575-.312714v-9.6c1.47167571 1.1795266 3.29807074 1.8181366 5.17802198 1.8105264 2.24821976 0 4.40435836-.9005238 5.99408976-2.5034663 1.5897315-1.6029425 2.4828333-3.7769991 2.4828333-6.04390216v-.37894737h3.8835165c.9224976 0 1.6703297.75404674 1.6703297 1.68421053v15.4526316zm9.1868132 3.9578947c-1.1690355.0170851-2.2324169-.6798243-2.6915773-1.7639819s-.2230612-2.3406057.5976022-3.180258c.8206635-.8396522 2.0631769-1.0960293 3.1449873-.6489288s1.7884254 1.5090313 1.7885482 2.6879056c.0001655 1.5882322-1.2645835 2.8822453-2.8395604 2.9052631zm-.5846154-16.0421052 1.8791209 4.4631578c.1233699.3330294.4408639.5520674.7934066.5473685h2.0879121c.9224976 0 1.6703296.7540467 1.6703296 1.6842105v4.968421c0 .232541-.186958.4210527-.4175824.4210527h-1.043956c-.4532886-2.0871442-2.2865013-3.5746093-4.4054945-3.5746093s-3.952206 1.4874651-4.4054945 3.5746093h-1.4197803v-12.0842105z"/><path d="m8.93626374 9.93684211h3.34065936c.4612488 0 .8351648-.37702337.8351648-.84210527 0-.46508189-.373916-.84210526-.8351648-.84210526h-2.50549453v-3.03157895c0-.46508189-.37391603-.84210526-.83516483-.84210526-.46124881 0-.83516484.37702337-.83516484.84210526v3.87368421c0 .4650819.37391603.84210527.83516484.84210527z"/></g></svg>