<svg height="27" viewBox="0 0 21 27" width="21" xmlns="http://www.w3.org/2000/svg"><path d="m39.4705882 28.0828144c0 5.9889908-3.29043 10.4646622-8.1396855 10.4646622-1.6299698 0-3.1608455-.8910199-3.6855357-1.9041854 0 0-.8766011 3.5177928-1.0608144 4.1966651-.6530042 2.3991964-2.5751744 4.7996786-2.7238155 4.9963973-.1041757.1362887-.3341247.0938592-.358263-.0874305-.0419244-.3060069-.5310424-3.3326459.0457357-5.8025582.2896595-1.2394562 1.9399563-8.3200428 1.9399563-8.3200428s-.4814954-.9745932-.4814954-2.4159111c0-2.2629077 1.2958451-3.952374 2.9092992-3.952374 1.3720712 0 2.0339685 1.0414519 2.0339685 2.291194 0 1.3963169-.8778715 3.4843635-1.3314172 5.418121-.3785901 1.6200362.8029157 2.94178 2.3807976 2.94178 2.8584818 0 4.7831928-3.7157973 4.7831928-8.1181813 0-3.3455032-2.2258044-5.8514163-6.2772259-5.8514163-4.5748412 0-7.4269707 3.4535056-7.4269707 7.3120204 0 1.3307439.3887535 2.2693363.9960221 2.9944954.2782255.3342932.317609.4680104.2159741.8511618-.0736853.2815778-.2375716.9565928-.308716 1.2253131-.1003645.3870086-.4103509.5245831-.7546392.3818657-2.1076538-.870448-3.0897011-3.2079288-3.0897011-5.833416 0-4.3368111 3.6143913-9.5376415 10.7821931-9.5376415 5.7614287.0025715 9.5511402 4.2198085 9.5511402 8.7494811z" transform="translate(-19 -19)"/></svg>