<svg height="22" viewBox="0 0 17 22" width="17" xmlns="http://www.w3.org/2000/svg"><path d="m33 23.2409498c0 4.9564062-2.7510153 8.6604101-6.8053108 8.6604101-1.3627617 0-2.6426742-.7373958-3.0813496-1.5758775 0 0-.732896 2.9112768-.8869104 3.4731021-.5459543 1.9855419-2.1530146 3.9721478-2.2772883 4.1349495-.0870978.1127907-.2793502.0776766-.2995314-.0723563-.0350515-.253247-.4439863-2.7580517.038238-4.8021171.2421744-1.0257568 1.6219307-6.8855527 1.6219307-6.8855527s-.4025617-.8065599-.4025617-1.9993747c0-1.8727511 1.0834114-3.2709301 2.4323649-3.2709301 1.1471415 0 1.7005311.8618911 1.7005311 1.8961605 0 1.1555726-.7339582 2.8836112-1.1131522 4.4839622-.3165261 1.3407196.6712902 2.4345765 1.990503 2.4345765 2.3898782 0 3.9990628-3.0751425 3.9990628-6.7184948 0-2.7686924-1.8609185-4.8425515-5.2481725-4.8425515-3.8248672 0-6.2094345 2.8580737-6.2094345 6.0513272 0 1.1013054.3250234 1.8780715.8327398 2.4782032.2326148.2766564.265542.3873189.1805685.7044098-.0616057.2330298-.1986254.791663-.2581068 1.0140522-.0839113.320283-.3430803.4341377-.6309278.3160267-1.7621369-.7203707-2.5831928-2.6548376-2.5831928-4.8276546 0-3.589085 3.0218682-7.8932205 9.0146204-7.8932205 4.8169322.0021281 7.9853796 3.4922553 7.9853796 7.2409498z" fill="#dfd4ba" transform="translate(-16 -16)"/></svg>