<svg height="19" viewBox="0 0 19 19" width="19" xmlns="http://www.w3.org/2000/svg"><path d="m18.9870269 15.6381767c-.0604051-.4565652-.3239797-.8502224-.7230555-1.0799823l-4.6873854-2.6988066c-.5740946-.330544-1.3024026-.2343149-1.7709935.2342328l-.9232704.9232662c-.2456829.2457229-.6343765.2674719-.90394239.0505152-.72785667-.5856641-1.44451049-1.2302146-2.13001795-1.91576-.68550745-.6855044-1.33006091-1.40211392-1.91576865-2.13000834-.21695767-.26960572-.1952496-.65825653.05051539-.90397937l.92322937-.92326623c.46854979-.46850663.56490246-1.19672933.23427489-1.77094438l-2.69881883-4.68736428c-.22980196-.39911496-.62341988-.66264737-1.07998713-.72305219-.45660829-.06052792-.90525558.09175623-1.23091779.41741696l-1.39116361 1.39119836c-.97095431.97099096-.98654802 2.74710587-.04390859 5.00124772.90640459 2.16743304 2.59791115 4.55342315 4.76285079 6.71843505 2.16502171 2.1649709 4.5510226 3.8564699 6.7185065 4.7628703 1.1095741.4639927 2.1032214.6958454 2.9421627.6958044.8653685 0 1.5660593-.2467487 2.0591076-.7397538l1.3911636-1.3911983c.3256212-.3256608.4777829-.774306.4174189-1.2308712zm-5.7848594-3.5263867 4.3968743 2.6604096c.2174456.13155.3610236.3569488.3938964.6183499.0276378.2193714-.0265985.4353854-.1495444.6094505l-5.8433938-3.5046842.2373079-.2493868c.2552455-.2682375.6521059-.3233737.9648596-.134139zm-9.59365052-11.10468447c.26150975.03301753.48692687.17705893.61851123.39520634l2.66110353 4.41106506c.18936495.31384033.13417396.71190433-.13413351.96793502l-.22913968.21868805-3.52485855-5.84286744c.1440873-.10183302.3164175-.15713256.49607142-.15713256.03726605 0 .0748558.00235564.11244556.00710553zm13.36921662 16.44179947c-.7643821.7643297-2.3277097.7322895-4.2891275-.0879072-2.07625-.8681758-4.37090066-2.4975097-6.46138268-4.5878079-2.09048201-2.0903388-3.71992756-4.38487291-4.58816276-6.46094001-.8202936-1.96132413-.85229533-3.52454464-.08791329-4.28891499l1.02336434-1.0233349 3.54763866 6.16131534-.23791889.2379026c-.46416752.46417639-.50458649 1.19898679-.09397207 1.70935312.59404497.73822586 1.24753916 1.46474164 1.94222492 2.15937974.69476708.6946789 1.42133259 1.3481283 2.15956836 1.9421326.51032001.4105863 1.24518071.3702107 1.70947021-.0940063l.2170588-.217044 6.1814183 3.5276349z"/></svg>