<svg height="32" viewBox="0 0 32 32" width="32" xmlns="http://www.w3.org/2000/svg"><path d="m32 30.4284821-8.5264937-8.5264936c4.4219542-5.2238247 4.1745411-13.07845092-.7500173-18.00337974-2.5148731-2.51413227-5.857543-3.89860876-9.4131809-3.89860876-3.5548971 0-6.89756706 1.38447649-9.41132896 3.89823839-2.51450265 2.51413227-3.89897914 5.85717261-3.89897914 9.41206971 0 3.5556379 1.38447649 6.8979375 3.89897914 9.4120697 2.5137619 2.5141323 5.85680224 3.8986088 9.41132896 3.8986088 3.1822959 0 6.1916248-1.112248 8.5916804-3.1474803l8.5264936 8.5264937zm-18.6896919-6.0293988c-2.96155 0-5.74605893-1.15336-7.84018148-3.2482233-2.0948633-2.0941226-3.24822334-4.8786315-3.24822334-7.8405519 0-2.96155 1.15298966-5.74642931 3.24822334-7.84055186 2.09412255-2.09412254 4.87863148-3.24785296 7.84018148-3.24785296 2.9622908 0 5.7467997 1.15336004 7.841663 3.24785296 4.323063 4.32343342 4.323063 11.35804066 0 15.68110376-2.0948633 2.0948633-4.8793722 3.2482233-7.841663 3.2482233z"/></svg>