<svg height="19" viewBox="0 0 22 19" width="22" xmlns="http://www.w3.org/2000/svg"><path d="m33.5260784 23.1664377c-1.9017647.699625-3.1038235 2.5024584-2.9674706 4.4756667l.045451.76125-.7607059-.0930417c-2.7689215-.3576666-5.1885882-1.569625-7.2434509-3.6056666l-1.0047059-1.0101667-.2571569.7455417c-.5478039 1.6626666-.1973529 3.4195833.9437059 4.6013333.6088039.6525.4712549.7455417-.5777059.3576667-.3648039-.1244584-.6853529-.2175-.7152549-.170375-.106451.10875.258353 1.5225.5478039 2.0831666.395902.7781667 1.2020589 1.5382084 2.0847647 1.990125l.746353.3576667-.883902.0132917c-.8516078 0-.8827059.0157083-.7906078.3431666.3038039 1.0101667 1.5058627 2.0831667 2.8454706 2.5495834l.9437058.32625-.8217058.4978333c-1.2176079.7165417-2.6481177 1.120125-4.0786275 1.149125-.6853529.0157083-1.2487059.0773333-1.2487059.1244583 0 .1546667 1.8575098 1.0246667 2.9363726 1.3678334 3.2413725 1.0101666 7.091549.5739583 9.9824706-1.1503334 2.0548627-1.2276666 4.1085294-3.6685 5.0677843-6.032.5179019-1.257875 1.0346078-3.5585416 1.0346078-4.66175 0-.7153333.045451-.808375.8970589-1.6626666.5023529-.4978334.9736078-1.0415834 1.0657058-1.19625.1530981-.2960417.136353-.2960417-.6387058-.0314167-1.2929608.4664167-1.4759608.4047917-.8360589-.2948333.4712549-.4978334 1.0346079-1.39925 1.0346079-1.6626667 0-.0459167-.228451.0314167-.486804.170375-.2739019.155875-.8827058.3890833-1.3396078.5280417l-.8217059.264625-.7451568-.51475c-.411451-.279125-.9879608-.590875-1.2929608-.6839167-.777451-.2175-1.9639608-.1860833-2.6648628.0628333z" transform="translate(-20 -22)"/></svg>