<svg enable-background="new 0 0 426.9 70" viewBox="0 0 426.9 70" xmlns="http://www.w3.org/2000/svg" xmlns:xlink="http://www.w3.org/1999/xlink"><linearGradient id="a" gradientTransform="matrix(1 0 0 -1 0 72)" gradientUnits="userSpaceOnUse" x1="19.557" x2="201.5877" y1="4.4048" y2="71.4425"><stop offset="0" stop-color="#1a1e5a"/><stop offset="1" stop-color="#122d98"/></linearGradient><g fill="#122d98"><path d="m236.2 41.6 3.3 9c.4 1 .8 2.2 1 3.1h.1c.3-.9.6-2.1 1-3.2l3-8.9h2.9l-4.1 10.8c-2 5.2-3.3 7.9-5.2 9.5-1.4 1.2-2.7 1.6-3.4 1.8l-.7-2.3c.7-.2 1.6-.7 2.4-1.4.8-.6 1.7-1.7 2.3-3.1.1-.3.2-.5.2-.7s-.1-.4-.2-.7l-5.6-14h3z"/><path d="m255.4 57.1c-4.1 0-7.3-3-7.3-7.8 0-5.1 3.4-8.1 7.5-8.1 4.4 0 7.3 3.2 7.3 7.8.1 5.7-3.9 8.1-7.5 8.1zm.1-2c2.6 0 4.6-2.5 4.6-5.9 0-2.6-1.3-5.8-4.6-5.8-3.2 0-4.6 3-4.6 5.9 0 3.3 1.9 5.8 4.6 5.8z"/><path d="m278.5 52.6c0 1.6 0 3 .1 4.2h-2.4l-.2-2.5c-.7 1.2-2.3 2.8-5 2.8-2.4 0-5.2-1.4-5.2-6.7v-8.9h2.8v8.5c0 2.9.9 4.9 3.4 4.9 1.9 0 3.1-1.3 3.6-2.5.2-.4.3-.9.3-1.4v-9.3h2.8v10.9z"/><path d="m291.8 41.6 2 7.7c.4 1.7.8 3.3 1.1 4.9h.1c.3-1.5.8-3.2 1.4-4.8l2.5-7.7h2.3l2.4 7.6c.6 1.8 1 3.4 1.4 5h.1c.3-1.5.7-3.1 1.2-4.9l2.2-7.6h2.7l-4.9 15.2h-2.5l-2.3-7.3c-.5-1.7-1-3.2-1.4-5h-.1c-.4 1.8-.8 3.4-1.4 5.1l-2.4 7.2h-2.5l-4.7-15.4z"/><path d="m323.7 53.2c0 1.3.1 2.6.2 3.6h-2.5l-.3-1.9h-.1c-.8 1.2-2.5 2.3-4.6 2.3-3.1 0-4.6-2.2-4.6-4.4 0-3.7 3.3-5.7 9.1-5.7v-.3c0-1.3-.3-3.5-3.5-3.5-1.4 0-2.9.4-4 1.1l-.6-1.9c1.3-.8 3.1-1.3 5-1.3 4.7 0 5.8 3.2 5.8 6.2v5.8zm-2.7-4.2c-3-.1-6.4.5-6.4 3.4 0 1.8 1.2 2.6 2.6 2.6 2 0 3.3-1.3 3.7-2.5.1-.3.1-.6.1-.9z"/><path d="m327.2 45.7c0-1.6 0-2.9-.1-4.1h2.4l.2 2.5h.1c.8-1.4 2.5-2.8 5-2.8 2.1 0 5.4 1.3 5.4 6.5v9.1h-2.8v-8.9c0-2.4-.9-4.5-3.5-4.5-1.8 0-3.2 1.3-3.7 2.8-.1.3-.2.8-.2 1.3v9.2h-2.8z"/><path d="m348 38v3.6h4v2.1h-4v8.2c0 1.9.5 3 2.1 3 .8 0 1.2-.1 1.6-.2l.1 2.1c-.5.2-1.4.4-2.4.4-1.3 0-2.3-.4-3-1.2-.8-.8-1.1-2.2-1.1-4v-8.3h-2.4v-2.1h2.4v-2.8z"/><path d="m366 38v3.6h4v2.1h-4v8.2c0 1.9.5 3 2.1 3 .8 0 1.2-.1 1.6-.2l.1 2.1c-.5.2-1.4.4-2.4.4-1.3 0-2.3-.4-3-1.2-.8-.8-1.1-2.2-1.1-4v-8.3h-2.4v-2.1h2.4v-2.8z"/><path d="m378.9 57.1c-4.1 0-7.3-3-7.3-7.8 0-5.1 3.4-8.1 7.5-8.1 4.4 0 7.3 3.2 7.3 7.8.1 5.7-3.8 8.1-7.5 8.1zm.1-2c2.6 0 4.6-2.5 4.6-5.9 0-2.6-1.3-5.8-4.6-5.8-3.2 0-4.6 3-4.6 5.9.1 3.3 1.9 5.8 4.6 5.8z"/><path d="m397.1 34.5h2.8v9.5h.1c1-1.7 2.7-2.8 5.2-2.8 3.8 0 6.4 3.1 6.4 7.7 0 5.5-3.5 8.2-6.8 8.2-2.2 0-3.9-.8-5.1-2.9h-.1l-.2 2.5h-2.4c.1-1 .1-2.6.1-3.9zm2.8 16.2c0 .3 0 .7.1 1 .5 1.9 2.2 3.2 4.1 3.2 2.9 0 4.6-2.4 4.6-5.8 0-3.1-1.6-5.7-4.5-5.7-1.9 0-3.6 1.3-4.2 3.4-.1.3-.2.7-.2 1.2v2.7z"/><path d="m416.2 49.7c.1 3.7 2.4 5.2 5.2 5.2 2 0 3.2-.3 4.2-.8l.5 2c-1 .4-2.7 1-5.1 1-4.6 0-7.5-3.1-7.5-7.7s2.7-8.2 7.2-8.2c5 0 6.2 4.4 6.2 7.2 0 .6 0 1-.1 1.3zm8.1-2c0-1.8-.7-4.5-3.8-4.5-2.8 0-4 2.6-4.2 4.5z"/><path d="m231.7 21c.1 3.7 2.4 5.2 5.2 5.2 2 0 3.2-.3 4.2-.8l.5 2c-1 .4-2.7 1-5.1 1-4.6 0-7.5-3.1-7.5-7.7s2.7-8.2 7.2-8.2c5 0 6.2 4.4 6.2 7.2 0 .6 0 1-.1 1.3zm8.1-2c0-1.8-.7-4.5-3.8-4.5-2.8 0-4 2.6-4.2 4.5z"/><path d="m246.4 12.9 3 8.5c.5 1.4.9 2.7 1.2 3.9h.1c.3-1.3.8-2.5 1.3-3.9l3-8.5h2.9l-6 15.2h-2.6l-5.8-15.2z"/><path d="m261.1 21c.1 3.7 2.4 5.2 5.2 5.2 2 0 3.2-.3 4.2-.8l.5 2c-1 .4-2.7 1-5.1 1-4.6 0-7.5-3.1-7.5-7.7s2.7-8.2 7.2-8.2c5 0 6.2 4.4 6.2 7.2 0 .6 0 1-.1 1.3zm8.1-2c0-1.8-.7-4.5-3.8-4.5-2.8 0-4 2.6-4.2 4.5z"/><path d="m274.9 17.6c0-1.8 0-3.3-.1-4.7h2.4l.1 3h.1c.7-2 2.4-3.3 4.2-3.3.3 0 .5 0 .8.1v2.6c-.3 0-.6-.1-.9-.1-1.9 0-3.3 1.5-3.7 3.5-.1.4-.1.8-.1 1.3v8.1h-2.8z"/><path d="m287.2 12.9 3.3 9c.4 1 .8 2.2 1 3.1h.1c.3-.9.6-2.1 1-3.2l3-8.9h2.9l-4.1 10.8c-2 5.2-3.3 7.9-5.2 9.5-1.4 1.2-2.7 1.6-3.4 1.8l-.7-2.3c.7-.2 1.6-.7 2.4-1.4.8-.6 1.7-1.7 2.3-3.1.1-.3.2-.5.2-.7s-.1-.4-.2-.7l-5.6-14h3z"/><path d="m302.5 12.9 2 7.7c.4 1.7.8 3.3 1.1 4.9h.1c.3-1.5.8-3.2 1.4-4.8l2.5-7.7h2.3l2.4 7.6c.6 1.8 1 3.4 1.4 5h.1c.3-1.5.7-3.1 1.2-4.9l2.2-7.6h2.7l-4.9 15.2h-2.5l-2.3-7.3c-.5-1.7-1-3.2-1.4-5h-.1c-.4 1.8-.8 3.4-1.4 5.1l-2.4 7.2h-2.5l-4.6-15.2h2.7z"/><path d="m324.2 5.8h2.8v9.5h.1c.4-.8 1.1-1.5 2-1.9.8-.5 1.8-.8 2.8-.8 2 0 5.3 1.3 5.3 6.5v9h-2.8v-8.8c0-2.4-.9-4.5-3.5-4.5-1.8 0-3.2 1.3-3.7 2.8-.2.4-.2.8-.2 1.3v9.2h-2.8z"/><path d="m342.7 21c.1 3.7 2.4 5.2 5.2 5.2 2 0 3.2-.3 4.2-.8l.5 2c-1 .4-2.7 1-5.1 1-4.6 0-7.5-3.1-7.5-7.7s2.7-8.2 7.2-8.2c5 0 6.2 4.4 6.2 7.2 0 .6 0 1-.1 1.3zm8.1-2c0-1.8-.7-4.5-3.8-4.5-2.8 0-4 2.6-4.2 4.5z"/><path d="m357.2 17.6c0-1.8 0-3.3-.1-4.7h2.4l.1 3h.1c.7-2 2.4-3.3 4.2-3.3.3 0 .5 0 .8.1v2.6c-.3 0-.6-.1-.9-.1-1.9 0-3.3 1.5-3.7 3.5-.1.4-.1.8-.1 1.3v8.1h-2.8z"/><path d="m368.9 21c.1 3.7 2.4 5.2 5.2 5.2 2 0 3.2-.3 4.2-.8l.5 2c-1 .4-2.7 1-5.1 1-4.6 0-7.5-3.1-7.5-7.7s2.7-8.2 7.2-8.2c5 0 6.2 4.4 6.2 7.2 0 .6 0 1-.1 1.3zm8.1-2c0-1.8-.7-4.5-3.8-4.5-2.8 0-4 2.6-4.2 4.5z"/></g><path d="m82 1.2-28.3 67.5h-18.4l-13.9-53.8c-.8-3.3-1.6-4.5-4.1-5.9-4.3-2.3-11.2-4.5-17.3-5.8l.4-2h29.7c3.8 0 7.2 2.5 8.1 6.9l7.3 39 18.2-45.9zm72.3 45.5c.1-17.8-24.6-18.8-24.5-26.7.1-2.4 2.4-5 7.4-5.6 2.5-.3 9.4-.6 17.2 3l3.1-14.4c-4.2-1.5-9.6-3-16.3-3-17.2 0-29.4 9.2-29.5 22.3-.1 9.7 8.7 15.1 15.3 18.4 6.8 3.3 9.1 5.4 9.1 8.4-.1 4.5-5.4 6.5-10.4 6.6-8.8.1-13.9-2.4-17.9-4.3l-3.2 14.8c4.1 1.9 11.6 3.5 19.4 3.6 18.2 0 30.2-9.1 30.3-23.1m45.5 22h16.2l-14.1-67.5h-14.9c-3.3 0-6.2 2-7.4 4.9l-26.2 62.5h18.3l3.6-10.1h22.4zm-19.4-23.9 9.2-25.3 5.3 25.3zm-73.5-43.6-14.4 67.5h-17.4l14.4-67.5z" fill="url(#a)"/></svg>