<svg height="20" viewBox="0 0 22 20" width="22" xmlns="http://www.w3.org/2000/svg"><path d="m20.2124896 1.85941862c-1.1543384-1.19939924-2.6888891-1.85941862-4.3214393-1.85941862-1.6327825 0-3.1675073.66001938-4.3222521 1.85941862l-.5688382.59113425-.5688379-.59113425c-1.15439651-1.19939924-2.68946974-1.85941862-4.32190384-1.85941862-1.63237606 0-3.16756541.66001938-4.32184576 1.85941862-2.38316333 2.47630938-2.38316333 6.5053715 0 8.98071578l8.539538 8.872502c.1396261.145612.3134473.2347647.4950482.2690867.0609013.0124861.122151.0182769.1835167.0182769.2415734 0 .4835531-.0957275.6675343-.2873636l8.539538-8.872502c2.3832794-2.47534428 2.3832794-6.5044064-.0000581-8.98071578zm-1.3350684 7.59366163-7.8774031 8.18461475-7.87757716-8.18461475c-1.64694822-1.71091125-1.64694822-4.49467075 0-6.20648675.79775506-.828734 1.85879662-1.28457088 2.98677732-1.28457088 1.12809681 0 2.18884808.45583688 2.98631276 1.28457088l1.23689488 1.28553587c.3545514.36783025.9809815.36783025 1.3354748 0l1.2364303-1.28553587c.7975229-.828734 1.8583322-1.28457088 2.9867773-1.28457088 1.1280968 0 2.1887901.45583688 2.9863129 1.28457088 1.6471224 1.711816 1.6471224 4.49551513 0 6.20648675z" fill="#fff" transform="matrix(-1 0 0 1 22 0)"/></svg>