<svg height="20" viewBox="0 0 16 20" width="16" xmlns="http://www.w3.org/2000/svg"><g fill="#dfd4ba"><path d="m12.991 13.28c-.146 0-.25.041-.314.128-.063.082-.094.222-.094.417v.47h.809v-.47c0-.195-.033-.335-.097-.417-.062-.087-.165-.128-.304-.128z"/><path d="m9.837 13.263c-.066 0-.13.014-.194.045-.063.03-.126.078-.189.142v2.899c.074.074.147.132.217.164.07.033.143.05.221.05.112 0 .194-.032.246-.099.052-.065.08-.17.08-.32v-2.402c0-.157-.033-.277-.097-.357-.065-.082-.161-.122-.284-.122z"/><path d="m14.92 9.657c-.752-.75-7.082-.76004299-7.082-.76004299 0-.00095701-6.33.00904299-7.083.75904299-.753.752-.755 4.462-.755 4.483 0 .028.002 3.732.755 4.484.753.75 7.083.766 7.083.766s6.331-.016 7.082-.766c.756-.754.763-4.484.763-4.484 0-.02-.009-3.73-.763-4.482zm-10.092 2.187h-1.066v5.39h-1.031v-5.39h-1.067v-.916h3.163v.916zm3.013 5.389h-.913v-.511c-.17.189-.345.333-.529.431-.183.1-.36.148-.531.148-.212 0-.369-.068-.478-.208-.105-.139-.16-.345-.16-.623v-3.89h.914v3.568c0 .111.019.19.056.24.04.05.103.074.188.074.067 0 .153-.032.256-.099.103-.065.197-.148.284-.249v-3.534h.913zm3.319-.961c0 .329-.072.581-.215.757-.142.176-.351.263-.622.263-.18 0-.339-.032-.478-.101-.14-.068-.272-.171-.391-.315v.357h-.924v-6.306h.924v2.031c.124-.142.254-.251.392-.323.14-.074.28-.111.422-.111.29 0 .511.099.663.296.154.199.229.489.229.87zm3.172-1.252h-1.749v.875c0 .245.03.415.089.51.062.095.164.141.31.141.151 0 .257-.04.318-.12.06-.08.092-.256.092-.531v-.212h.941v.239c0 .477-.114.836-.344 1.079-.228.241-.571.36-1.026.36-.409 0-.733-.127-.968-.383-.235-.255-.354-.606-.354-1.055v-2.089c0-.402.131-.733.389-.986.258-.254.591-.381 1.001-.381.419 0 .741.118.966.353s.336.573.336 1.014v1.186z"/><path d="m12.987 6.946h-1.03v-.566c-.188.208-.386.368-.592.476-.205.109-.404.164-.597.164-.24 0-.418-.077-.538-.229-.12-.153-.181-.381-.181-.687v-4.283h1.028v3.929c0 .121.024.209.067.263.042.055.113.082.209.082.075 0 .171-.036.287-.108.115-.072.222-.164.317-.276v-3.89h1.03z"/><path d="m8.806 2.064c-.273-.248-.623-.373-1.049-.373-.467 0-.841.118-1.117.353-.278.235-.417.551-.41600536.949v2.656c0 .436.13600536.782.40500536 1.04.271.257.632.386 1.082.386.469 0 .835-.125 1.104-.374.266-.25.399-.593.399-1.031v-2.648c-.001-.39-.137-.71-.408-.958zm-.642 3.683c0 .136-.041.244-.123.324-.083.078-.193.117-.332.117-.137 0-.242-.038-.314-.115-.073-.078-.111-.186-.111-.326v-2.792c0-.112.04-.203.118-.272.079-.069.181-.103.307-.103.135 0 .245.034.329.103s.126.16.126.272z"/><path d="m3.419 0h-1.168l1.38 4.194v2.752h1.16v-2.882l1.349-4.064h-1.179l-.716 2.776h-.073z"/></g></svg>