<svg height="22" viewBox="0 0 22 22" width="22" xmlns="http://www.w3.org/2000/svg"><g><path d="m3.13866667 21.3120625c0 .5261558.5665.8552324 1.02483333.5994877l3.75008333-2.11104c3.46866667.9386474 7.19674997.2484115 10.03108337-1.866295 2.57675-1.9222106 4.0553333-4.776652 4.0553333-7.8309226 0-5.57138564-4.9344167-10.1032926-11-10.1032926-6.06558333 0-11 4.53190696-11 10.1032926 0 2.6729451 1.11191667 5.1671439 3.13866667 7.0572718zm-1.76366667-11.2087699c0-4.81331787 4.3175-8.72832083 9.625-8.72832083s9.625 3.91500296 9.625 8.72832083c0 2.6161129-1.2769167 5.0690626-3.5025833 6.7291118-2.56575 1.9130441-5.9693334 2.5006154-9.1006667 1.5693012-.17875-.0531656-.37125-.0311661-.5335.0595821l-2.9755 1.6747156v-3.2806827c0-.1970792-.08525-.3859087-.23283333-.5160727-1.87366667-1.6481328-2.90491667-3.862754-2.90491667-6.2359553z"/><path d="m4.98996717 13.8470522 5.00535046-2.5400772 2.37865447 2.4801479c.3116419.3254618.7450331.237873.9739945.003688l5.4514618-5.6084536c.5406032-.55688081-.1090293-1.45674119-.7950049-1.10177577l-5.0053504 2.59263052-2.3750202-2.46078622c-.253493-.26184462-.68688419-.29042626-.96854305-.00460995l-5.45146175 5.53192862c-.54514617.5531928.09994347 1.4567412.78591907 1.1073077zm5.14254563-5.16774331 2.244185 2.32433201c.2089727.2166672.5324261.2692205.7959135.1318443l1.6954046-.8777327-2.0015951 2.0587994-2.2405508-2.3372398c-.2071555-.2166672-.5287917-.27014251-.79318764-.13645424l-1.69540461.86021494z"/></g></svg>