<svg height="20" viewBox="0 0 20 20" width="20" xmlns="http://www.w3.org/2000/svg"><path d="m10 0c-5.51390437 0-10 4.48609563-10 10 0 5.5139044 4.48609563 10 10 10 1.8945096 0 3.7390045-.5328374 5.3338427-1.539897l-.6677271-1.0571163c-1.3946537.8813547-3.008404 1.3470603-4.6661156 1.3470603-4.82480201 0-8.75000522-3.9251615-8.75000522-8.7500053 0-4.82484371 3.92516146-8.75004692 8.75000522-8.75004692 4.8248438 0 8.7500052 3.92516146 8.7500052 8.75000522v.6250183c0 1.0339458-.8410672 1.875013-1.875013 1.875013s-1.8750131-.8410672-1.8750131-1.875013v-4.37500264h-1.2499948v.4779797c-.9172167-1.04997725-2.2495814-1.72797449-3.7499843-1.72797449-2.75695219 0-4.99997913 2.24302694-4.99997913 4.99997913 0 2.7569522 2.24302694 4.9999791 4.99997913 4.9999791 1.8679158 0 3.4804554-1.0416275 4.3387648-2.5631552.5674887.7917622 1.4900075 1.3131604 2.5362274 1.3131604 1.7230064 0 3.1250078-1.4019596 3.1250078-3.1250078v-.62501825c0-5.51386262-4.4860956-9.99995825-10-9.99995825zm0 13.7499843c-2.06789157 0-3.74998434-1.6821345-3.74998434-3.7499843 0-2.06784982 1.68213452-3.74998434 3.74998434-3.74998434 2.0678498 0 3.7499843 1.68213452 3.7499843 3.74998434 0 2.0678498-1.6821345 3.7499843-3.7499843 3.7499843z"/></svg>