<svg height="32" viewBox="0 0 25 32" width="25" xmlns="http://www.w3.org/2000/svg"><path d="m191.5 29c-3.535714 0-6.428571 2.893054-6.428571 6.4211687v2.646086h-5c-.607143 0-1.071429.4586549-1.071429 1.0584344v16.5821389c0 2.9283352 2.392857 5.292172 5.357143 5.292172h14.285714c2.964286 0 5.357143-2.3638368 5.357143-5.292172v-16.5821389c0-.5997795-.464286-1.0584344-1.071429-1.0584344h-5v-2.646086c0-3.5281147-2.892857-6.4211687-6.428571-6.4211687zm-4.285714 6.4211687c0-2.3638368 1.928571-4.3042999 4.285714-4.3042999s4.285714 1.9404631 4.285714 4.3042999v2.646086h-8.571428zm14.785714 5.5788313v14.8756631c0 1.6904162-1.438424 3.0427492-3.236453 3.0427492h-14.384237c-1.798029 0-3.236453-1.352333-3.236453-3.0427492v-14.8756631h3.955665v1.7580329c0 .5747415.467488 1.0142498 1.078818 1.0142498s1.078818-.4395083 1.078818-1.0142498v-1.7580329h8.630542v1.7580329c0 .5747415.467487 1.0142498 1.078817 1.0142498s1.078818-.4395083 1.078818-1.0142498v-1.7580329z" fill="#fff" transform="translate(-179 -29)"/></svg>