<svg height="32" viewBox="0 0 25 32" width="25" xmlns="http://www.w3.org/2000/svg"><path d="m12.5 0c-3.53571429 0-6.42857143 2.89305402-6.42857143 6.42116869v2.646086h-5c-.60714286 0-1.07142857.4586549-1.07142857 1.05843441v16.5821389c0 2.9283352 2.39285714 5.292172 5.35714286 5.292172h14.28571424c2.9642858 0 5.3571429-2.3638368 5.3571429-5.292172v-16.5821389c0-.59977951-.4642857-1.05843441-1.0714286-1.05843441h-5v-2.646086c0-3.52811467-2.8928571-6.42116869-6.4285714-6.42116869zm-4.28571429 6.42116869c0-2.36383683 1.92857139-4.30429989 4.28571429-4.30429989s4.2857143 1.94046306 4.2857143 4.30429989v2.646086h-8.57142859zm14.78571429 5.57883131v14.8756631c0 1.6904162-1.4384236 3.0427492-3.2364532 3.0427492h-14.38423646c-1.79802955 0-3.2364532-1.352333-3.2364532-3.0427492v-14.8756631h3.95566503v1.7580329c0 .5747415.46748768 1.0142498 1.07881773 1.0142498s1.07881774-.4395083 1.07881774-1.0142498v-1.7580329h8.63054186v1.7580329c0 .5747415.4674877 1.0142498 1.0788177 1.0142498.6113301 0 1.0788178-.4395083 1.0788178-1.0142498v-1.7580329z"/></svg>