<svg height="24" viewBox="0 0 19 24" width="19" xmlns="http://www.w3.org/2000/svg"><path d="m9.5 0c-2.68714286 0-4.88571429 2.16979051-4.88571429 4.81587652v1.9845645h-3.8c-.46142857 0-.81428571.34399117-.81428571.79382581v12.43660417c0 2.1962514 1.81857143 3.969129 4.07142857 3.969129h10.85714283c2.2528572 0 4.0714286-1.7728776 4.0714286-3.969129v-12.43660417c0-.44983464-.3528571-.79382581-.8142857-.79382581h-3.8v-1.9845645c0-2.64608601-2.1985714-4.81587652-4.8857143-4.81587652zm-3.25714286 4.81587652c0-1.77287762 1.46571426-3.22822492 3.25714286-3.22822492s3.2571429 1.4553473 3.2571429 3.22822492v1.9845645h-6.51428576z"/></svg>