<svg height="31" viewBox="0 0 40 31" width="40" xmlns="http://www.w3.org/2000/svg"><path d="m30.0092664 9.93382122-.5125561.74417418c-.1875206.2758129-.5875644.3903012-.9438534.2810169-.7375808-.2289767-1.4126548-.5568297-2.0064699-.96794691-.2875315-.19775259-.3625397-.54642163-.1750191-.81703043l.5125561-.74417422c-.4312972-.41632125-.7688342-.90029469-.9938589-1.42590026h-1.031363c-.3750411 0-.7000767-.22377266-.7625835-.53601359-.1250137-.62448187-.1312644-1.28018782 0-1.93068976.0625068-.31224093.3875424-.54121761.7625835-.54121761h1.031363c.2250247-.52560557.5625617-1.00957901.9938589-1.42590026l-.5125561-.74417422c-.1875206-.2706088-.1187631-.61927784.1750191-.81703043.5938151-.41111723 1.2751397-.7389702 2.0064699-.96794689.356289-.10928432.7563328.00520402.9438534.28101684l.5125561.74417422c.656322-.09887629 1.3251452-.09887629 1.9814672 0l.5125561-.74417422c.1875206-.27581282.5875644-.39030116.9438534-.28101684.7375808.22897669 1.4126548.55682966 2.0064699.96794689.2875315.19775259.3625397.54642163.1750191.81703043l-.5125561.74417422c.4312972.41632125.7688342.90029469.9938589 1.42590026h1.031363c.3750411 0 .7000767.22377266.7625835.53601359.1250137.62448187.1312644 1.28018782 0 1.93068976-.0625068.31224093-.3875424.54121761-.7625835.54121761h-1.031363c-.2250247.52560557-.5625617 1.00957901-.9938589 1.42590026l.5125561.74417422c.1875206.2706088.1187631.61927784-.1750191.81703043-.5938151.41111721-1.2751397.73897021-2.0064699.96794691-.356289.1092843-.7563328-.005204-.9438534-.2810169l-.5125561-.74417418c-.6500713.09887628-1.3251452.09887628-1.9814672 0zm.5289211-2.47170425c2.1318099 1.63807455 4.5626268-.7913671 2.923625-2.92197083-2.1318099-1.64360858-4.5626268.7913671-2.923625 2.92197083zm-7.2868298 8.37773153 2.0283503.9748609c.6079032.3365591.8727323 1.0502965.6319786 1.6885983-.5356771 1.4042639-1.5889747 2.6924729-2.5640274 3.8182051-.4453944.5164442-1.2158064.6441046-1.8237096.3075454l-1.7514834-.9748608c-.963015.7949758-2.0825199 1.4274748-3.3043451 1.8394696v1.9497218c0 .6731182-.499564 1.2533926-1.1857122 1.3694474-1.4806355.2437153-3.0334971.2553207-4.5683022 0-.6921671-.1160548-1.20376875-.6905264-1.20376875-1.3694474v-1.9497218c-1.22182524-.4177975-2.34133014-1.0444938-3.3043451-1.8394696l-1.75148347.9690581c-.60188435.3365591-1.37831517.2088988-1.82370959-.3075454-.97505265-1.1257322-2.0042749-2.4139413-2.53995197-3.8124024-.24075374-.632499.02407537-1.3462365.63197857-1.6885983l2.0042749-.9748609c-.2347349-1.2127734-.2347349-2.4603632 0-3.6789393l-2.0042749-.9806637c-.6079032-.3365591-.87875116-1.0502965-.63197857-1.68279556.53567707-1.4042639 1.56489932-2.69247294 2.53995197-3.81820515.44539442-.51644417 1.21580639-.64410452 1.82370959-.3075454l1.75148347.97486089c.96301496-.79497585 2.08251986-1.42747488 3.3043451-1.83946966v-1.95552452c0-.66731549.49354515-1.24758983 1.17969335-1.3636447 1.4806355-.24371522 3.039516-.25532071 4.5743211-.00580275.692167.11605487 1.2037687.69052647 1.2037687 1.36944745v1.94972178c1.2218252.41779752 2.3413301 1.04449381 3.3043451 1.83946965l1.7514834-.97486089c.6018844-.33655911 1.3783152-.20889876 1.8237096.3075454.9750527 1.12573222 1.9982561 2.41394125 2.5339332 3.81820516.2407537.632499.0060188 1.3462365-.6018844 1.6885983l-2.0283503.9748609c.2347349 1.2185761.2347349 2.466166 0 3.6847421zm-7.4608324 1.0850629c3.6858864-4.2614603-1.7869078-9.12616622-6.58105057-5.8498228-3.6858864 4.2614603 1.78690777 9.1261662 6.58105057 5.8498228zm14.2187411 11.0089098-.5125561.7441742c-.1875206.2758129-.5875644.3903012-.9438534.2810169-.7375808-.2289767-1.4126548-.5568297-2.0064699-.9679469-.2875315-.1977526-.3625397-.5464216-.1750191-.8170304l.5125561-.7441743c-.4312972-.4163212-.7688342-.9002946-.9938589-1.4259002h-1.031363c-.3750411 0-.7000767-.2237727-.7625835-.5360136-.1250137-.6244819-.1312644-1.2801878 0-1.9306898.0625068-.3122409.3875424-.5412176.7625835-.5412176h1.031363c.2250247-.5256056.5625617-1.009579.9938589-1.4259002l-.5125561-.7441743c-.1875206-.2706088-.1187631-.6192778.1750191-.8170304.5938151-.4111172 1.2751397-.7389702 2.0064699-.9679469.356289-.1092843.7563328.005204.9438534.2810169l.5125561.7441742c.656322-.0988763 1.3251452-.0988763 1.9814672 0l.5125561-.7441742c.1875206-.2758129.5875644-.3903012.9438534-.2810169.7375808.2289767 1.4126548.5568297 2.0064699.9679469.2875315.1977526.3625397.5464216.1750191.8170304l-.5125561.7441743c.4312972.4163212.7688342.9002946.9938589 1.4259002h1.031363c.3750411 0 .7000767.2237727.7625835.5360136.1250137.6244819.1312644 1.2801878 0 1.9306898-.0625068.3122409-.3875424.5412176-.7625835.5412176h-1.031363c-.2250247.5256056-.5625617 1.009579-.9938589 1.4259002l.5125561.7441743c.1875206.2706088.1187631.6192778-.1750191.8170304-.5938151.4111172-1.2751397.7389702-2.0064699.9679469-.356289.1092843-.7563328-.005204-.9438534-.2810169l-.5125561-.7441742c-.6500713.0988763-1.3251452.0988763-1.9814672 0zm.5289211-3.4720087c2.1318099 1.6390018 4.5626268-.7918151 2.923625-2.923625-2.1318099-1.6390018-4.5626268.7918151-2.923625 2.923625z" fill="none" stroke="#000" stroke-width="2" transform="translate(1 1)"/></svg>