<svg height="15" viewBox="0 0 20 15" width="20" xmlns="http://www.w3.org/2000/svg"><g transform="translate(.046938 .736009)"><path d="m19.0837965 7.02879345c.0001743-.09181866-.0304196-.18106892-.0869327-.25360563l-1.2004992-1.52988112-1.3329679-2.78347643c-.4141282-.85919458-1.2848353-1.40699158-2.2416217-1.41029473h-2.427906v-.63916866c0-.22774394-.1853385-.41236688-.4139652-.41236688h-8.85057626c-.22862667 0-.41396521.18462294-.41396521.41236688s.18533854.41236688.41396521.41236688h8.43661106v4.61438538c0 .22774393.1853385.41236687.4139652.41236687h5.8472587l1.034913 1.31751218v3.51955131h-1.5937661c-.1943815-1.09411618-1.148965-1.89150536-2.2643897-1.89150536s-2.0700082.79738918-2.2643897 1.89150536h-4.10653493c-.19438151-1.09411618-1.14896504-1.89150536-2.26438973-1.89150536-1.11542468 0-2.07000821.79738918-2.26438972 1.89150536h-1.18187069c-.22862667 0-.41396521.1846229-.41396521.4123669 0 .2277439.18533854.4123669.41396521.4123669h1.18601034c.20390635 1.0846503 1.15453756 1.870738 2.2623199 1.870738s2.05841355-.7860877 2.2623199-1.870738h4.10239523c.2039064 1.0846503 1.1545376 1.870738 2.2623199 1.870738 1.1077824 0 2.0584136-.7860877 2.2623199-1.870738h1.5958359c.4572534 0 .8279305-.3692459.8279305-.8247338zm-7.2899275-5.15458598h2.4341155c.6384385.00020918 1.2198859.36602118 1.4944144.94019648l1.0618208 2.21853381h-4.9903507zm-6.02526366 10.68648763c-.5972756.0008339-1.1361664-.3570355-1.36512074-.9065565s-.10282395-1.1823317.31951409-1.6030391c.42233804-.42070736 1.05760152-.54635075 1.60925245-.31828041.55165094.22807033.91090747.76488051.91007037 1.35984991-.00114007.8102976-.6602779 1.4668905-1.47371617 1.4680261zm8.62910486 0c-.5970879-.0000005-1.1353435-.3583995-1.3636453-.9079869-.2283019-.5495873-.10166-1.1820598.3208411-1.6023394.4225011-.42027949 1.0576021-.54554453 1.6089988-.31735307.5513966.22819147.9104289.76487137.9095914 1.35965327-.001142.8111019-.6615395 1.4680269-1.475786 1.4680261z"/><path d="m3.81675944 8.12601294c0-.26399253-.17088214-.47800076-.38167594-.47800076h-2.0992177c-.2107938 0-.38167594.21400823-.38167594.47800076s.17088214.47800077.38167594.47800077h2.0992177c.2107938 0 .38167594-.21400824.38167594-.47800077z"/><path d="m.42408438 5.73600914h4.8769704c.23421534 0 .42408438-.21400823.42408438-.47800076 0-.26399254-.18986904-.47800077-.42408438-.47800077h-4.8769704c-.23421533 0-.42408438.21400823-.42408438.47800077 0 .26399253.18986905.47800076.42408438.47800076z"/><path d="m.95418986 3.34600533c0 .26399253.18986905.47800076.42408438.47800076h4.8769704c.23421534 0 .42408438-.21400823.42408438-.47800076s-.18986904-.47800076-.42408438-.47800076h-4.8769704c-.23421533 0-.42408438.21400823-.42408438.47800076z"/></g></svg>