<svg height="16" viewBox="0 0 19 16" width="19" xmlns="http://www.w3.org/2000/svg"><path d="m14.9432432 3.45371122c.1540541-.20598695.3081082-.46347065.3594595-.77245109h3.1837838c.3081081 0 .5135135-.20598695.5135135-.51496739s-.2054054-.51496739-.5135135-.51496739h-3.1837838c-.1027027-.46347066-.4108108-.92694131-.8216216-1.23592174-.9756757-.72095436-2.3108108-.46347066-2.9783784.46347065-.1540541.20598696-.2567568.46347065-.3594595.77245109h-10.62972969c-.3081081 0-.51351351.20598695-.51351351.51496739s.20540541.51496739.51351351.51496739h10.62972969c.1027027.46347066.4108109.92694131.8216217 1.23592175.9243243.72095435 2.3108108.51496739 2.9783783-.46347066zm-2.3621621-.36047717c-.2567568-.15449022-.4108108-.41197392-.4621622-.72095435-.0513513-.30898044 0-.56646413.2054054-.82394783.3594595-.51496739 1.0783784-.61796087 1.5405406-.2574837.2567567.15449022.4108108.41197392.4621621.72095435v.15449022c0 .2574837-.0513513.46347065-.2054054.66945761-.3594594.51496739-1.0783784.61796087-1.5405405.2574837zm-5.23783786 6.23110545c.15405406-.20598696.30810811-.46347065.35945946-.77245109h10.7837838c.3081081 0 .5135135-.20598696.5135135-.51496739 0-.30898044-.2054054-.51496739-.5135135-.51496739h-10.7837838c-.1027027-.46347066-.41081081-.92694131-.82162162-1.23592175-.97567567-.72095435-2.31081081-.46347065-2.97837838.46347066-.15405405.20598695-.25675675.46347065-.35945946.77245109h-3.02972973c-.3081081 0-.51351351.20598695-.51351351.51496739 0 .30898043.20540541.51496739.51351351.51496739h3.02972973c.10270271.46347066.41081081.92694131.82162162 1.23592174.92432433.66945765 2.25945946.46347065 2.97837838-.46347065zm-2.36216216-.41197391c-.25675676-.15449022-.41081081-.41197392-.46216216-.72095435-.05135135-.30898044 0-.56646414.2054054-.82394783.35945946-.51496739 1.07837838-.61796087 1.54054054-.2574837.25675676.15449022.41081082.41197392.46216217.72095435v.15449022c0 .2574837-.05135135.46347065-.20540541.66945761-.35945946.51496739-1.07837838.61796087-1.54054054.2574837zm7.95945942 6.23110541c.1540541-.2059869.3081081-.4634706.3594595-.772451h5.1864865c.3081081 0 .5135135-.205987.5135135-.5149674 0-.3089805-.2054054-.5149674-.5135135-.5149674h-5.1864865c-.1027027-.4634707-.4108108-.9269413-.8216216-1.2359218-.4621622-.3604772-1.027027-.4634706-1.5918919-.4119739-.5648649.1029935-1.07837839.4119739-1.3864865.8754446-.15405405.2574837-.25675676.4634706-.35945946.7724511h-8.62702703c-.3081081 0-.51351351.2059869-.51351351.5149674 0 .3089804.20540541.5149674.51351351.5149674h8.67837838c.1027027.4634706.41081081.9269413.82162161 1.2359217.9243243.6694576 2.2594595.4634706 2.927027-.4634707zm-2.3621621-.3604771c-.2567568-.205987-.4108108-.4634707-.4621622-.7724511 0-.0514968 0-.1029935 0-.1029935 0-.0514967 0-.1029935 0-.1029935 0-.2059869.1027027-.3604772.2054054-.5149674.1540541-.2574837.4108108-.4119739.7189189-.4634706.3081081-.0514968.5648649.0514967.8216217.2059869.2567567.1544902.4108108.4119739.4621621.7209544v.1544902c0 .2574837-.0513513.4634707-.2054054.6694576-.3594594.4634707-1.027027.5664641-1.5405405.205987z"/></svg>