<svg height="39" viewBox="0 0 41 39" width="41" xmlns="http://www.w3.org/2000/svg"><g fill="none"><path d="m20.5 0 6.3288591 12.8470588 14.1711409 2.0647059-10.2729306 9.9564706 2.4306487 14.1317647-12.6577181-6.6529412-12.65771812 6.6529412 2.38478752-14.1317647-10.2270694-9.9564706 14.1711409-2.0647059z" fill="#000"/><g fill="#d9ceb4" transform="translate(8 10)"><path d="m16.8636364.18181818-8.13636367 17.40909092 4.22727277 1.8181818.9545454-2.4545454h5.9090909l.9545455 2.4545454 4.2272727-1.8181818zm-1.5454546 13.22727272 1.5454546-3.95454545 1.5454545 3.95454545z"/><path d="m.22727273 1.54545455.5 3.5h2v10.99999995c0 3.2727273-2.40909091 4.6363637-2.54545455 4.6818182l2.18181818 4.0454546c2.27272728-1.2272728 4.90909091-4.2727273 4.90909091-8.7272728v-14.5454545h-7.04545454z"/></g></g></svg>