<svg height="17" viewBox="0 0 17 17" width="17" xmlns="http://www.w3.org/2000/svg"><path d="m31.133 19h-12.114c-1.14 0-2.019.879-2.019 2.019v12.113c0 1.14.879 2.019 2.019 2.019h12.113c1.14 0 2.0190009-.879 2.0190009-2.019v-12.113c.0009991-1.14-.8790009-2.019-2.0180009-2.019zm-6.045 4.903c1.791 0 3.243 1.407 3.243 3.142s-1.452 3.142-3.243 3.142c-1.79 0-3.242-1.408-3.242-3.142 0-1.735 1.452-3.142 3.242-3.142zm6.045 8.725c0 .354-.151.505-.505.505h-11.104c-.353 0-.505-.151-.505-.505v-7.066l1.258.274c-.135.439-.208.903-.208 1.385 0 2.684 2.248 4.863 5.018 4.863 2.772 0 5.019-2.178 5.019-4.863 0-.482-.073-.946-.208-1.385l1.234-.274v7.066zm0-9.085c0 .279-.226.505-.505.505h-2.019c-.279 0-.505-.226-.505-.505v-2.019c0-.279.226-.505.505-.505h2.019c.279 0 .505.226.505.505z" fill="#dfd4ba" transform="translate(-17 -19)"/></svg>