<svg height="15" viewBox="0 0 15 15" width="15" xmlns="http://www.w3.org/2000/svg"><path d="m1.92532394 0h11.14950616c1.0588434 0 1.9251699.78392115 1.9251699 1.92515016v11.14969964c0 1.1412291-.8663265 1.9251502-1.9251699 1.9251502h-11.14950616c-1.05915149 0-1.92532394-.7839211-1.92532394-1.9251502v-11.14969964c0-1.14122901.86617245-1.92515016 1.92532394-1.92515016zm9.00163256 1.66656399c-.3714808 0-.6750416.30371169-.6750416.67534268v1.61635607c0 .37147698.3035608.67534268.6750416.67534268h1.6953816c.3714808 0 .6753496-.3038657.6753496-.67534268v-1.61635607c0-.37163099-.3038688-.67534268-.6753496-.67534268zm2.3778159 4.6768828h-1.3202046c.1249051.40782381.192517.83982751.192517 1.28677037 0 2.49499464-2.0878083 4.51748034-4.66276154 4.51748034-2.57479926 0-4.66229952-2.0224857-4.66229952-4.51748034 0-.44725089.06745795-.87910057.19251699-1.28677037h-1.3776516v6.33620821c0 .3278916.26829168.5963345.59634064.5963345h10.44551003c.3280489 0 .5963406-.2682889.5963406-.5963345v-6.33620821zm-5.79060315-1.79501001c-1.66365484 0-3.0125059 1.30679193-3.0125059 2.91898968s1.34885106 2.91898964 3.0125059 2.91898964c1.66380886 0 3.01281395-1.30679189 3.01281395-2.91898964s-1.34885108-2.91898968-3.01281395-2.91898968z" fill="#fff"/></svg>