<svg height="23" viewBox="0 0 37 23" width="37" xmlns="http://www.w3.org/2000/svg"><path d="m36.0474858 1.14285714h-35.09497164c-.52669971 0-.95251416.40652406-.95251416.90796617v21.04121049c0 .5014421.42581445.9079662.95251416.9079662h35.09497164c.5266998 0 .9525142-.4065241.9525142-.9079662v-21.04121049c0-.50144211-.4258144-.90796617-.9525142-.90796617zm-21.8056303 16.74054816h-.0137571c0 .1155253-.0078611.2291772-.0229284.3403312-.0072061.0543281-.0163775.1067829-.0275142.1592376-.0078612.0405899-.0170326.0805554-.0268591.1198965-.0078611.0330964-.0170325.0649439-.026859.0986648-.0085163.0287252-.0170326.0574504-.0268591.0855511-.0085163.0256029-.0176877.0512058-.0268591.0768087-.0091713.0231051-.0176876.0462101-.026859.0686907-.0085163.0218562-.0176877.0437123-.0275142.064944-.0085163.0199827-.0176877.0387165-.026859.0599482-.0085163.0187338-.0176877.0380921-.0268591.0562015-.0091714.0174849-.0176877.0349698-.0268591.0524547-.0085163.016236-.0176877.0337209-.026859.0499569-.0091714.0156115-.0176877.0318475-.0268591.047459-.0085163.0149871-.0176877.0305986-.0268591.0449612-.0085163.0143626-.0176877.0293497-.026859.0430878-.0091714.0131137-.0176877.0274763-.0268591.04059-.0091714.0131136-.0176877.0268518-.0275142.0399655-.0085163.0131136-.0176876.0256029-.026859.0387165-.0085163.0118648-.0176877.024354-.0268591.0368432-.0085163.0118648-.0176877.0231051-.0268591.0355943s-.0176876.0237295-.026859.0355943c-.0091714.0112403-.0176877.0218561-.0268591.0330964-.0091714.0106158-.0176877.0218561-.0268591.032472-.0091713.0106158-.0176876.0212316-.026859.031223-.0085163.0112403-.0176877.0206072-.0268591.0305986-.0091714.0106158-.0176877.0199828-.0268591.0293497-.0091713.0106158-.0176876.0193583-.026859.0293496-.0091714.0099914-.0176877.0181094-.0275142.0281008-.0085163.0093669-.0176877.0181093-.026859.0268518-.0091714.0087424-.0176877.0168604-.0275142.0262273-.0085163.008118-.0176877.016236-.0268591.0249785-.0091714.0087424-.0176877.0168604-.026859.0256029-.0091714.0087424-.0176877.0156115-.0268591.024354-.0091714.008118-.0176877.0156115-.0268591.0243539-.0091714.0074936-.0176877.0143626-.026859.0231051-.0091714.0074935-.0176877.0143626-.0268591.0218561-.0091714.0074936-.0176877.0143626-.0268591.0218562-.0091714.0074935-.0176876.0143626-.026859.0212316-.0091714.0074936-.0176877.0137382-.0268591.0212317-.0085163.0068691-.0176877.0131137-.0268591.0206072-.0091714.0062446-.0176876.0131137-.0275141.0193583-.0091714.0062446-.0176877.0131137-.0268591.0187338-.0085163.0062446-.0176877.0131137-.0268591.0187338-.0085162.0062447-.0176876.0124893-.026859.0181094-.0091714.0062446-.0176877.0124892-.0268591.0174849-.0091714.0056202-.0176877.0118648-.0268591.0174849-.0091713.0056202-.0183427.0112403-.0275141.0168605-.0085163.0049957-.0170326.0112403-.0268591.0156115-.0091714.0049957-.0176877.0112403-.026859.0156115-.0085163.0056202-.0176877.0112403-.0268591.0156115-.0091714.0049957-.0176877.0112403-.0268591.0156116-.0091714.0049956-.0176877.0099913-.0275141.0143626-.0085163.0049957-.0176877.0106158-.0268591.0143626-.0091714.0043712-.0176877.0099913-.0268591.0131136-.0085163.0056202-.0176877.0106159-.026859.0143626l-.0268591.0131137c-.0091714.0043713-.0176877.0087425-.0268591.0131137s-.0176876.008118-.0275141.0131137c-.0085163.0043712-.0176877.0087424-.0268591.0124892-.0091714.0043712-.0176877.0087425-.0268591.0124892-.0091714.0043712-.0176876.0087425-.026859.0124892-.0091714.0037468-.0176877.0074936-.0275142.0112403l-.0268591.0118648-.026859.0118647c-.0085163.0024979-.0176877.0062447-.0268591.0106159-.0091714.0037467-.0176877.0068691-.0268591.0106158-.0091713.0037468-.0176876.0062446-.0275141.0099914-.0085163.0024978-.0176877.0068691-.0268591.0099914s-.0176877.0056201-.0275141.0093669l-.0268591.0093669-.0268591.0093669c-.0091714.0024979-.0176877.0056202-.026859.008118-.0091714.0024978-.0176877.0062446-.0268591.0087425-.0085163.0024978-.0183428.0049956-.0268591.0081179l-.0275141.0074936-.0268591.006869c-.0091714.0024979-.0176877.0049957-.0275142.0074936-.0085163.0024978-.0176876.0043712-.026859.006869-.0091714.0018734-.0183428.0043713-.0268591.0062447-.0091714.0018733-.0176877.0043712-.0268591.006869l-.026859.0062446-.0275142.0056202c-.0085163.0018734-.0176877.0037468-.0268591.0056201-.0091713.0018734-.0176876.0031223-.026859.0049957-.0085163.0024979-.0176877.0037468-.0268591.0049957l-.0275142.0049957c-.0091713.0012489-.0176876.0024978-.026859.0043712-.0091714.0012489-.0176877.0024979-.0268591.0043712-.0085163.001249-.0176877.0018734-.026859.0037468l-.0268591.0031223c-.0091714.0018734-.0176877.0031223-.0268591.0043712-.0091714 0-.0176877.001249-.0275141.0024979-.0085163.0012489-.0176877.0024978-.0268591.0024978-.0091714.001249-.0176877.001249-.0268591.0031223l-.026859.0024979c-.0091714.0006244-.0176877.0012489-.0268591.0018734-.0091714.0006244-.0176877.0006244-.0268591.0012489l-.026859.0018734-.0268591.0012489c-.0085163 0-.0176877 0-.0268591.0006245-.0091714 0-.0176876.0006244-.026859.0006244s-.0183428 0-.0275142 0h-.0268591c-.0078611 0-.0163774 0-.0248937 0h-.0019653-.0268591-.0268591-.013757-.026204-.0268591-.026859-.0268591-.0275142-.026859-.0268591-.0268591-.026859-.0268591-.026204-.026859-.0268591-.026859-.0275142-.0268591-.0275141-.0268591-.0268591-.0275141-.0248938-.0268591-.026859-.0268591-.0268591-.026859-.0268591-.0275142-.026859-.0268591-.0268591-.0255488-.0268591-.0275142-.026859-.0268591-.026859-.0268591-.0275142-.026859-.026204-.026204-.026859-.0268591-.0275142-.026859-.0268591-.0268591-.026859-.0268591-.02685906-.02620397-.02685906-.02751417-.02685906-.02751417-.02685906-.02685907-.02685906-.02685907-.02685906-.02554887-.02620396-.02751417-.02685906-.02685907-.02751416-.02685907-.02751416-.02685907-.02685906-.02685907-.02751416-.02685907-.02685906-.02685907-.02685906-.02685907-.02751416-.02685907-.02685906-.02685907-.02358357-.02751416-.02685907-.02685906-.02685907-.02751416-.02685907-.02685906-.02685907-.02685906-.02554887-.02751416-.02685907-.02685906-.02685907-.02685906-.02751417-.02685906-.02685907-.02685906-.02554887-.02685907-.02751416-.02685906-.02685907-.02685907-.02751416-.02685906-.02685907-.02685906-.02685907-.02751416-.02685907-.02751416-.02685907-.02685906-.02685907-.02685906-.02685907-.02751416-.02685907-.02292847-.02685906-.02685907-.02685906-.02685907-.02751416-.02685907-.02685906-.02685907-.02751416-.02554887-.02685907-.02685906-.02685907-.02685906-.02751417-.02685906-.02685907-.02685906-.02685907-.02620396-.02685907-.02685906-.02685907-.05764872v-5.5964187s.01965297.0049957.05764872.0137381l.02685907.0068691.02685906.0062446.02685907.0068691.02751416.0062446.02685907.0062446.02685906.0056202.02685907.0056201.02685906.0062446.02751417.0049957.02685906.0062446.02685907.0049957.02685906.0056201.02685907.0056202.02685906.0049957.02751417.0056201.02685906.0056202.02685907.0049957.02685906.0049956.02751417.0049957.02685906.0049957.02685907.0049957.02685906.0043712.02685907.0056202.02751416.0037467.02685907.0049957.02751416.0043713.02685907.0043712.02685906.0043712.02685907.0043712.02685906.0049957.02685907.0037468.02751416.0043712.02685907.0037468.02751416.0037468.02685907.0043712.02685906.0037467.02685907.0037468.02685906.0043712.02751417.0037468.02685906.0031223.02685907.0037468.02685906.0037467.02751417.0037468.02685906.0024978.02685907.0037468.02685906.0037468.02685907.0031223.02685906.0031223.02751417.0031223.02685906.0031223.02685907.0037468.02685906.0024978.02685907.0037468.02751416.0031223.02685907.0024978.02685906.0024979.02685907.0024978.02685906.0024978.02685907.0031224.02751416.0024978.02685907.0024978.02685906.0024979.02685907.0024978.02751416.0024979.02685907.0024978.02685906.0018734.02685907.0018734.02685906.0018734.02751417.0018733.02685906.0018734.02685907.0031223.02685906.001249.02685907.0012489.02685906.0024978.02751417.0012489.02685906.001249.02685907.0012489.02685906.0024978.02751417.001249.02685906.0012489.02751416.0012489.02685907.0012489.02685906.0012489.02751417.001249.02685906.0012489.02685907.0012489.02685906.0006245.02685907.0006244.02685906.0006245.02685907.0006244.02685907.0006245.02751416.0006245.02685906.0006244h.02751417l.02685906.0006245h.02685905l.0268591.0012489h.026859.0268591.0268591.026859.0268591.0275142.026859.0104816.0163775.0268591.026859.0268591.0275142.026859.0268591l.0268591-.0012489.026859-.0006245.0275142-.0006244.0268591-.0006245.026859-.0006245.0268591-.0006244.0268591-.0006245.026859-.0012489.0275142-.0012489.026859-.0012489.0268591-.0006245.0268591-.0012489.026859-.0012489.0268591-.001249.0268591-.0012489.026859-.0018734.0275142-.0024978.0268591-.0012489.026859-.001249.0275142-.0024978.0268591-.0012489.0275141-.0024979.0268591-.0024978.0268591-.0024979.026859-.0018733.0268591-.0031223.026859-.0024979.0268591-.0024978.0268591-.0037468.026859-.0024978.0268591-.0037468.0275142-.0031223.026859-.0037468.0268591-.0031223.0268591-.0037467c.0091714-.0006245.0176876-.0024979.026859-.0037468l.0275142-.0037468.0268591-.0037467.026859-.0049957c.0085163-.0006245.0176877-.0024979.0268591-.0043713l.0268591-.0037467c.0091713-.0012489.0183427-.0024979.0275141-.0043712.0091714-.0024979.0170326-.0037468.0268591-.0049957l.0268591-.0049957.026859-.0049957.0268591-.0049957c.0091714-.0012489.0176877-.0031223.0268591-.0056201l.026859-.0056202.0268591-.0049957c.0091714-.0012489.0176877-.0037467.026859-.0056201l.0268591-.0056202c.0091714-.0018734.0183428-.0037467.0275142-.0056201s.0176877-.0043712.026859-.0068691l.0268591-.0062446c.0085163-.0024978.0176877-.0043712.0268591-.0068691.0091714-.0018734.0176876-.0043712.026859-.006869l.0268591-.0074936c.0091714-.0024978.0176877-.0037467.0275142-.006869.0085163-.0024979.0176876-.0043713.026859-.0068691l.0268591-.0074935c.0091714-.0024979.0176877-.0049957.0268591-.0074936l.0275141-.008118.0268591-.008118c.0085163-.0024978.0176877-.0049956.0268591-.0087424l.026859-.0087425.0268591-.0087424c.0091714-.0037468.0183428-.0062446.0275142-.0087425.0091713-.0037467.0176876-.006869.026859-.0099913l.0275142-.009367c.0085163-.0031223.0176877-.006869.026859-.0093669.0091714-.0037467.0176877-.0074935.0268591-.0106158s.0176877-.0062446.0268591-.0106158l.026859-.0106159.0268591-.0106158c.0091714-.0037468.0183428-.0074935.0275142-.0112403s.0176876-.008118.026859-.0118648l.0275142-.0118647.0268591-.0124892c.0085163-.0037468.0176876-.008118.026859-.0124893.0091714-.0037467.0183428-.0087424.0268591-.0124892.0091714-.0043712.0183428-.0087424.0268591-.0131137.0091713-.0037467.0176876-.0087424.0275141-.0131136.0085163-.0043713.0176877-.009367.0268591-.0137382.0091714-.0037467.0183428-.0093669.0268591-.0131137.0091713-.0049956.0183427-.0099913.026859-.0143626.0098265-.0049956.0183428-.0099913.0275142-.0143626.0091714-.0049956.0176877-.0099913.026859-.0143626.0091714-.0056201.0176877-.0112403.0268591-.0156115.0085163-.0062446.0183428-.0112403.0268591-.016236.0091714-.0056201.0176877-.0118647.026859-.016236.0091714-.0062446.0183428-.0118647.0268591-.0168604.0091714-.0062446.0176877-.0124892.0275142-.0181094.0085163-.0056201.0176877-.0124892.026859-.0181093.0091714-.0062446.0183428-.0131137.0268591-.0193583.0091714-.0062446.0183428-.0131137.0268591-.0187338.0091714-.0068691.0176876-.0137382.026859-.0206073.0098265-.0074935.0183428-.0137381.0275142-.0212316.0085163-.0074936.0176877-.0137382.0268591-.0218562s.0176876-.0143626.026859-.023105c.0085163-.0087425.0183428-.0156115.0268591-.024354.0098265-.0074935.0183428-.0156115.0268591-.0256029.0091713-.0074935.0183427-.016236.026859-.0256029.0091714-.0087424.0176877-.0168604.0275142-.0268518.0091714-.0087425.0176877-.0181094.0268591-.0281007.0091713-.0099914.0183427-.0193583.026859-.0293497.0091714-.0106158.0183428-.0206072.0268591-.0312231.0091714-.0112402.0176877-.0212316.026859-.0324719.0091714-.0112403.0176877-.0231051.0268591-.0343454.0091714-.0124892.0176877-.0243539.0268591-.0368432.0091714-.0131136.0183428-.0256029.026859-.0387165.0091714-.0137382.0176877-.0268519.0268591-.0412145.0091714-.0137381.0176877-.0287252.0268591-.0430878.0091714-.0156115.0176877-.0318475.026859-.0468345.0091714-.0168605.0183428-.0337209.0275142-.0512058.0091714-.0187339.0176877-.0374677.0268591-.056826.0098265-.0193583.0183427-.0399655.0275141-.0611971.0091714-.0231051.0176877-.0449612.0268591-.0680663.0098265-.0268518.0183428-.0524547.0268591-.0793065.0098265-.0318475.0189978-.063695.026859-.0949181.0104816-.0387166.0189979-.0793065.0268591-.119272.0111367-.0611972.0203081-.1217699.0268591-.184216.0091713-.0861756.0131019-.1742246.0131019-.2641469v-3.0810902h-.0131019-.0268591-.0268591-.0602691-.0268591-.026859-.0275142-.0268591-.0275141-.0268591-.026859-.0268591-.0268591-.026859-.0248938-.0268591-.026859-.0268591-.0268591-.0275141-.0268591-.0268591-.026859-.0268591-.0268591-.0275141-.0268591-.0268591-.026859-.0268591-.0275141-.0268591-.0268591-.026859-.0248938-.0268591-.0275141-.0268591-.0268591-.026859-.0275142-.0268591-.026859-.0268591-.0268591-.0275141-.0268591-.0275142-.026859-.0268591-.0268591-.026859-.0268591-.0275141-.0268591-.0229285-.026859-.0268591-.0268591-.026859-.0275142-.0268591-.026859-.0268591-.0275142-.0255488-.0268591-.0268591-.026859-.0268591-.0275142-.026859-.0268591-.0268591-.026859-.026204-.0268591-.026859-.0268591-.026859-.0275142-.0268591-.026859-.0268591-.0268591-.0262039-.026204-.0268591-.026859-.0203081v3.0817146c0 .0480835-.0019653.0955425-.0058959.1423771-.0052408.0599483-.0144122.1173987-.0275142.1736001-.0072061.0349698-.0163774.0686907-.026859.1024116-.0078612.0268518-.0170326.0530792-.0268591.0780576-.0085163.0224806-.0170326.0437123-.0268591.064944-.0085162.0181093-.0176876.0380921-.026859.0562015-.0085163.0168604-.0176877.0337208-.0268591.0499568-.0085163.0143626-.0176877.0293497-.0268591.0437123-.0085162.0137381-.0176876.0281007-.026859.04059-.0085163.0131136-.0176877.0249784-.0268591.0374676-.0091714.0118648-.0176877.0231051-.026859.0343454-.0091714.0106158-.0176877.0206072-.0275142.0318475-.0085163.0099913-.0176877.0199827-.0268591.0293496-.0091714.0099914-.0183428.0187339-.0275141.0274763-.0085163.0093669-.0176877.0174849-.0268591.0262274-.0091714.0087424-.0176877.016236-.0268591.0249784-.0091714.008118-.0176877.0149871-.0275141.0224806-.0085163.0074935-.0176877.0143626-.0268591.0218561-.0091714.0074936-.0176877.0131137-.0268591.0193583-.0091714.0068691-.0176876.0131137-.026859.0193583s-.0176877.0131137-.0268591.0181094c-.0091714.0056201-.0176877.0124892-.0268591.0174849-.0091714.0056201-.0176876.0112403-.026859.016236-.0085163.0049956-.0176877.0106158-.0268591.0143626-.0091714.0049957-.0176877.0099913-.0275142.0143626-.0085162.0049957-.0176876.0093669-.026859.0137381-.0085163.0043712-.0176877.0093669-.0268591.0131137-.0085163.0049957-.0176877.0093669-.0268591.0131137-.0091713.0037467-.0176876.008118-.026859.0118647-.0091714.0037468-.0176877.008118-.0268591.0118648-.0091714.0031223-.0176877.006869-.0275141.0106158-.0085163.0037468-.0176877.0074935-.0268591.0099914-.0091714.0037468-.0176877.0068691-.0268591.0099914s-.0176877.0056201-.026859.0087424c-.0091714.0024979-.0176877.0062446-.0268591.0087425-.0091714.0024978-.0176877.0049957-.0275142.008118-.0085163.0024978-.0176877.0049956-.026859.006869-.0091714.0024979-.0176877.0049957-.0268591.0074936-.0085163.0012489-.0176877.0043712-.0268591.006869-.0091714.0018734-.0176876.0037468-.026859.0056202s-.0176877.0037467-.0268591.0056201-.0176877.0043713-.0275142.0056202c-.0085163.0012489-.0176876.0024978-.026859.0037467-.0091714.001249-.0176877.0024979-.0268591.0049957l-.0268591.0037468c-.0091713.0012489-.0176876.0024978-.026859.0031223-.0091714.0012489-.0176877.0024978-.0268591.0031223l-.02685905.0024978c-.00917139.001249-.01768768.0024979-.02685907.0024979-.00917139.0012489-.01768768.0024978-.02685906.0024978-.00917139 0-.01768768.001249-.02751417.001249-.00851629.0012489-.01768768.0012489-.02685906.0012489-.00917139 0-.01768768.0012489-.02751417.0012489-.00851629.0012489-.01768768.0012489-.02685906.0012489h-.02685907c-.00917139 0-.01768768 0-.02685906 0h-.01048159-.01637748-.02685906-.02685907-.02685906l-.02751417-.0012489h-.02685906l-.02685907-.0012489-.02751416-.0012489-.02685907-.001249-.02751416-.008118-.02685907-.0012489-.02685906-.0024978-.02685907-.0018734-.02751416-.0018734-.02685907-.0018734-.02685906-.0024978-.02685907-.0024979-.02685906-.0031223-.02685907-.0024978-.02751416-.0037468-.02685907-.0024978-.02685906-.0043712-.02685907-.0031223-.01637748.0012489-.02751416-.0037468-.02685907-.0043712-.02685906-.0049957-.02685907-.0037468-.02751416-.0049957-.02685907-.0043712-.02685906-.0049957-.02685907-.0049957-.02685906-.0056201-.02685907-.0049957-.02751416-.0049957-.02685907-.0056201-.02685906-.0056202-.02685907-.0062446-.02685906-.0062446-.02751417-.0062446-.02685906-.0062446-.02685907-.0074935-.02685906-.0062447-.02685907-.006869-.02685906-.0062446-.02751417-.0068691-.02685906-.008118-.02685907-.0068691-.02685906-.0074935-.02751417-.0074935-.02685906-.0074936-.02685907-.0074935-.02685906-.0074935-.02685907-.0087425-.02751416-.008118-.02685907-.0093669-.02751416-.008118-.02685907-.008118-.02685906-.0099913-.02685907-.0087425-.02685906-.0087424-.02685907-.0099914-.02751416-.0087425-.02685907-.0093669-.02751416-.0106158-.02685907-.0093669-.02685906-.0099914-.02685907-.0093669-.02685906-.0106159-.02751416-.0106158-.02685907-.0106158-.02685907-.0106159-.02685906-.0112403-.02751416-.0106158-.02685907-.0112403-.02685906-.0112403-.02685907-.0112403-.02685907-.0112403-.02685906-.0118647-.02751416-.0106159-.02685907-.0124892-.02685907-.0112403-.02685906-.0124892-.02685907-.0124892-.01768767-.0087425-.02685907-.0118647-.02685906-.0131137-.02685907-.0118648c-.01965297-.0093669-.03865085-.0174849-.05764872-.0262273v-6.54497488c0-.18484043.01965297-.36530963.05764872-.54015869.00786119-.03746765.01703258-.07431085.02685907-.11115404.00786119-.03184751.01768767-.06307055.02685906-.0942936.00851629-.02747628.01703258-.05495256.02685907-.08242884.00917139-.02497844.01768767-.04995687.02751416-.07493531.00917139-.02310505.01703258-.04558565.02685907-.06806624.00851629-.02123167.01768767-.04183888.02685906-.06307055.00851629-.01935829.01768768-.03934104.02685907-.05807487.00917139-.01873382.01768767-.03684319.02685906-.05495256.00917139-.0174849.01768768-.03496981.02751417-.05183025.00851629-.01623599.01768767-.03309643.02685906-.04933242.00851629-.01561152.01768768-.03122304.02685907-.04683456.00851629-.0143626.01768767-.02997413.02685906-.04496119.00917139-.0143626.01768768-.0287252.02685907-.0430878.00917139-.01311368.01768767-.02747628.02685906-.04058996s.01768768-.02622736.02751417-.03934104c.00851629-.01248922.01768767-.0256029.02685906-.03809212.00917139-.01248921.01768768-.02497843.02685907-.03684319s.01768767-.02310505.02685906-.03496981.01768768-.02310505.02751417-.03434535c.00851629-.0112403.01768767-.02248059.02685906-.03309643.00851629-.01061584.01768768-.02123167.02685907-.03184751.00851629-.01061583.01768767-.02123167.02685906-.03122304.00917139-.00999138.01768768-.01998275.02685907-.02997413.00917139-.00999137.01768767-.01935828.02751416-.02934966.00851629-.00936691.01768768-.01935829.02685907-.02810074.00917138-.00874245.01768767-.01810937.02751416-.02747628.00851629-.00874245.01768768-.01810937.02685907-.02685182.00917138-.00874245.01768767-.01748491.02685906-.02622736s.01768768-.01686044.02685907-.0256029c.00917138-.00874245.01768767-.01686044.02685906-.02560289.00851629-.00811799.01768768-.01561153.02685907-.02372952.00917138-.00811799.01768767-.01561152.02751416-.02372951.00851629-.00749353.01768768-.01498706.02685907-.0224806.00917138-.00749353.01768767-.01498706.02751416-.02185613.00851629-.00749353.01768768-.01498706.02685907-.02185613.00917138-.00749353.01834277-.0143626.02685906-.02185613.00917139-.00686907.01768768-.01373814.02685907-.02060721.00917138-.00686907.01768767-.01373814.02685906-.02060721.00917139-.00624461.01768768-.01311368.02751417-.01935829.00851628-.00624461.01768767-.01311368.02685906-.01935829l.02685907-.01873383c.00851628-.0062446.01768767-.01248921.02685906-.01810936.00917139-.00624461.01768768-.01248922.02751417-.01810937.00851628-.00562015.01768767-.01186476.02685906-.0174849.00917139-.00562015.01768768-.01186476.02685907-.01686045.00851628-.00562015.01768767-.0112403.02685906-.01623598.00917139-.00499569.01768768-.01061584.02685907-.01561153.00917138-.00562014.01768767-.01061583.02685906-.01561152s.01768768-.00999137.02751417-.01498706c.00851628-.00499569.01768767-.00999138.02685906-.01498706.00917139-.00437123.01768768-.00936692.02685907-.01373814.00851628-.00437123.01768767-.00999138.02685906-.0143626.00917139-.00437123.01768768-.00936692.02685907-.01373814.00917138-.00437123.01768767-.00874246.02751416-.01311368.00851629-.00437123.01768768-.00874246.02685907-.01311368l.02685906-.01311368c.00851629-.00374677.01768768-.00811799.02685907-.01248922.00917138-.00437123.01768767-.00811799.02685906-.01248922.00917139-.00374676.01768768-.00811799.02685907-.01186476.00917138-.00374676.01768767-.00749353.02751416-.01124029.00851629-.00374677.01768768-.00749353.02685907-.01186476.00917138-.0031223.01768767-.00686907.02685906-.01061583l.02685907-.01061584.01768767-.00874245.02685907-.00999138c.00917139-.0031223.01768768-.00624461.02685906-.00936691.00851629-.00312231.01768768-.00624461.02685907-.00874245.00917139-.00312231.01768768-.00624461.02685906-.00936692l.02751417-.00874245.02685906-.00874245c.00917139-.00249785.01768768-.00562015.02685907-.008118.00851629-.00249784.01768768-.00499568.02685906-.00811799.00917139-.00187338.01768768-.00499568.02685907-.00749353.00917139-.00249784.01768768-.00437122.02685906-.00749353l.02751417-.00686907c.00851629-.00187338.01768768-.00437123.02685906-.00624461.00917139-.00187338.01768768-.00437123.02685907-.00624461s.01768768-.00437122.02685906-.00624461c.00917139-.00187338.01768768-.00374676.02751417-.00562015l.02685906-.00562014c.00917139-.00187339.01834278-.00374677.02751417-.00562015.00851629-.00124892.01768767-.00312231.02685906-.00499569.00917139-.00124892.01768768-.0031223.02685907-.00499569.00917139-.00187338.01768767-.00249784.02751416-.00437122l.02685907-.00437123c.00917139-.00124892.01768767-.0031223.02685906-.00437123.00851629-.00062446.01834278-.00187338.02685907-.0031223.00917139-.00124892.01768767-.00249784.02685906-.00374677l.02685907-.0031223.02685906-.0031223c.00851629-.00062447.01768768-.00187339.02685907-.00249785s.01834277-.00187338.02751416-.00187338l.02685907-.00249784c.00917139-.00062447.01768767-.00124893.02751416-.00187339.00851629-.00062446.01768768-.00124892.02685907-.00187338.00917138 0 .01768767-.00124892.02685906-.00124892.00917137-.00062446.01768767-.00062446.02685907-.00124892l.0268591-.00062446c.0091714 0 .0176876-.00062447.026859-.00124893h.0268591.0268591.0124468.0144122.0275142.0268591.026859.0268591.026859.0268591.0275142.026859.0268591.0268591.026859.0275142.0268591.026859.0268591.0268591.026859.0275142.0268591.026859.0268591.0268591.026859.0268591.026859.0275142.0268591.026859.0275142.0268591.0275141.0268591.0268591.026859.0268591.0268591.026859.0268591.0268591.026859.0275142.0268591.026859.0268591.0150673.0275141.0268591.0268591.026859.0268591.0275142.026859.0268591.026859.0268591.0268591.026859.0268591.0268591.026859.0275142.0268591.026859.0268591.0268591.026859.0275142.0268591.026859.0268591.0275142.026859.0268591.026859.0268591.0275142.026859.0275142.0268591.026859.0268591.0268591.026859.0275142.0268591.0275141.0268591.0268591.026859.0268591.0275142.026859.0268591.026859.0275142.0268591.026859.0268591.0268591.026859.0275142.0268591.026859.0268591.0268591.0275141.0268591.0268591.026859.0268591.0268591.0275141.0268591.026859.0268591.0268591.026859.0268591.0268591.026859.0268591.0268591.0275141.0268591.0275142.026859.0268591.0268591.026859.0268591.0268591.026859.0268591.026859.0268591.0275142.026859.0268591.0268591.026859.0268591.0268591.026859.0268591.0275142.026859.0268591.0268591.026859.0268591.0275142.0229284zm7.6947946 0h-.0006551v-.0006244c0 .1155252-.0085162.2291771-.0229284.3403312-.0072061.0543281-.0157224.1067828-.0268591.1592375-.0085163.0399655-.0170326.0805555-.0275142.119272-.0091713.0330965-.0163774.0655684-.026859.0986649-.0085163.0287252-.0176877.0574504-.0268591.0855511-.0085163.0256029-.0176877.0512058-.0268591.0761842-.0091713.0237296-.0176876.0468346-.026859.0699397-.0091714.0218561-.0176877.0424633-.0275142.0643194-.0085163.0199828-.0170326.0393411-.026859.0605728-.0085163.0181093-.0170326.0374676-.0268591.0549525-.0085163.0174849-.0170326.0355943-.0268591.0524547-.0085163.0168605-.0170326.0343454-.026859.0499569-.0091714.016236-.0170326.0318475-.0275142.047459-.0085163.0149871-.0163775.0305986-.0268591.0455857-.0085163.014987-.0163775.0287252-.026859.0430878-.0085163.0131137-.0176877.0274763-.0268591.0412144-.0085163.0131137-.0176877.0268518-.0268591.039341-.0091714.0124893-.0176876.0262274-.026859.0387166-.0091714.0131137-.0176877.024354-.0275142.0374677-.0085163.0118647-.0170326.0237295-.0268591.0355942-.0085163.0118648-.0170325.0237296-.0262039.0349699-.0098265.0118647-.0176877.0218561-.0268591.0337208-.0098265.0106159-.0176877.0212317-.0268591.0318476-.0098264.0106158-.0176876.0212316-.026859.0318475-.0098265.0106158-.0176877.0206072-.0268591.031223-.0091714.0099914-.0176877.0187338-.0268591.0293497-.0098264.0099913-.0176876.0187338-.026859.0281007-.0098265.0099914-.0176877.0181094-.0268591.0281008-.0098265.0093669-.0176877.0181093-.0281692.0268518-.0085163.0087424-.0176877.0168604-.0268591.0256029-.0085163.0093669-.0176877.0168604-.0268591.0256029-.0085163.0087424-.0176877.0168604-.026859.0256029-.0091714.0087424-.0170326.0156115-.0268591.0243539-.0091714.008118-.0176877.0149871-.0268591.0231051-.0091714.0087424-.0176877.0149871-.026859.023105-.0091714.0074936-.0176877.0149871-.0268591.0224806-.0098265.008118-.0176877.0143626-.0268591.0212317-.0098265.0074935-.0176876.0143626-.0281692.0218561-.0085163.0068691-.0170326.0131137-.0268591.0206073-.0091714.006869-.0170326.0131136-.0268591.0206072-.0085163.006869-.0170325.0131136-.026859.0193583-.0098265.0062446-.0176877.0131136-.0268591.0193582-.0098265.0062446-.0176877.0124893-.0268591.0181094-.0098264.0068691-.0176876.0131137-.026859.0181094-.0091714.0062446-.0176877.0124892-.0268591.0174849-.0098265.006869-.0176877.0131137-.0281693.0181093-.0085162.0056202-.0170325.0112403-.026859.016236-.0091714.0062446-.0170326.0118648-.0268591.016236-.0091714.0056202-.0176877.0118648-.026859.016236-.0098265.0056201-.0176877.0112403-.0268591.0149871-.0091714.0056201-.0176877.0106158-.0268591.0156115-.0098265.0049957-.0176877.0106158-.026859.014987-.0091714.0037468-.0176877.009367-.0268591.0137382l-.0268591.0137381-.026859.0137382-.0268591.0131136c-.0091714.0049957-.0183428.0099914-.0268591.0137382-.0091714.0043712-.0183427.008118-.0281692.0131137-.0091714.0043712-.0170326.0093669-.0268591.0131136-.0078612.0043713-.0170326.008118-.0268591.0131137-.0091714.0037468-.0170325.008118-.026859.0118648-.0091714.0043712-.0176877.008118-.0268591.0118647l-.0268591.0118648-.026859.0106158-.0268591.0112403c-.0091714.0037468-.0176877.0068691-.0268591.0106159-.0091713.0031223-.0176876.006869-.026859.0093669-.0091714.0037467-.0176877.0074935-.0275142.0106158-.0085163.0031223-.0176877.0056202-.026859.0093669l-.0268591.0087425-.0268591.0099913c-.0098265.0024979-.0176877.0056202-.026859.008118-.0098265.0031223-.0183428.0056202-.0275142.008118-.0091714.0024979-.0176877.0056202-.0268591.0087425l-.026859.0074935-.0268591.0074935c-.0091714.0024979-.0176877.0037468-.0268591.0062447-.0104816.0031223-.0176876.0049956-.0275141.0074935-.0085163.0018734-.0176877.0043712-.0268591.0062446-.0098265.0018734-.0170326.0049957-.0268591.0062446l-.026859.0062446-.0268591.0062446c-.0098265.0018734-.0170326.0037468-.0275142.0056202-.0091713.0018734-.0176876.0031223-.026859.0049957l-.0268591.0056201-.0268591.0037468c-.0091713.0012489-.0176876.0031223-.026859.0049957-.0091714.0012489-.0176877.0024978-.0268591.0043712-.0091714.0012489-.0176877.0018734-.0275141.0037468l-.0268591.0031223c-.0098265.0012489-.0170326.0024978-.0268591.0037467s-.0170326.0012489-.026859.0024979c-.0098265.0012489-.0170326.0024978-.0275142.0037467-.0091714 0-.0176877.001249-.0268591.0024979l-.0275141.0024978c-.0085163.0006245-.0170326.0012489-.0268591.0018734s-.0170326.0006245-.0268591.0012489l-.026859.0018734-.0268591.0012489c-.0091714 0-.0183428 0-.0268591.0006245-.0091714 0-.0170325.0006245-.026859.0006245-.0091714.0006244-.0170326.0006244-.0268591.0006244h-.0268591c-.0085162 0-.0157223 0-.0248937 0h-.0019653-.0268591-.0268591-.0262039-.0281693-.026859-.0281693-.0268591-.026859-.0268591-.0111367-.0268591-.026859-.0268591-.0275142-.026859-.0268591-.0275141-.0268591-.026204-.0262039-.0268591-.0268591-.026859-.0268591-.0268591-.026859-.0268591-.0268591-.026859-.0268591-.0268591-.026859-.0268591-.0275142-.026859-.0268591-.0268591-.0275141-.0268591-.0255488-.026204-.0268591-.026859-.0275142-.0268591-.026859-.0268591-.0268591-.026859-.0268591-.0268591-.026859-.0275142-.0268591-.026859-.0268591-.0268591-.0275141-.0268591-.026859-.0248938-.0268591-.026859-.0268591-.0268591-.026859-.0268591-.0275142-.026859-.0268591-.026204-.026859-.0268591-.0268591-.026859-.0268591-.0268591-.026859-.0268591-.0268591-.026859-.0268591-.0275141-.0268591-.0268591-.026859-.0275142-.0268591-.026859-.0268591-.0268591-.0248937-.0275142-.0268591-.026859-.0268591-.0268591-.0275141-.0268591-.0268591-.026859-.0255489-.0268591-.026859-.0268591-.026859-.0268591-.0275142-.026859-.0268591-.0268591-.0262039-.0275142-.0268591-.026859-.0268591-.0268591-.026859-.0275142-.0268591-.026859-.0255489-.0268591-.026859-.0268591-.0268591-.026859-.0275142-.026859-.0275142-.0268591-.026859-.0248938-.0268591-.026859-.0268591-.0268591-.026859-.0268591-.0268591-.0275141-.0268591-.0275142-.026859-.0268591-.0268591-.026859-.0268591-.0268591-.026859-.0576487v-6.1322062c.0189978.0149871.0379957.0305986.0576487.0455857.0085163.006869.0176877.0137381.026859.0206072.0091714.0068691.0176877.0131137.0268591.0199827.0091714.0068691.0176877.0131137.0268591.0193583s.0176877.0131137.026859.0181094c.0085163.0062446.0176877.0124892.0268591.0181094.0085163.0062446.0176877.0124892.0268591.0181093l.026859.016236c.0091714.0056202.0176877.0118648.0275142.0174849l.0268591.0168605c.0091714.0049956.0176876.0106158.0275141.0156115.0085163.0062446.0176877.0112403.0268591.0156115l.0268591.0156115c.0091714.0049957.0176876.0099914.026859.0143626.0091714.0043713.0176877.0099914.0268591.0143626l.0268591.0143626.026859.0131137.0268591.0137381c.0091714.0043713.0176877.009367.0268591.0137382.0091713.0043712.0176876.0087424.026859.0131137l.0268591.0131136.0275142.0131137.026859.0124892c.0091714.0043713.0176877.0087425.0275142.0124893l.026859.0124892.0268591.0118647.0268591.0118648.026859.0112403.0268591.0112403.0268591.0112403.026859.0106158.0268591.0106159.0275142.0106158.026859.0106158c.0091714.0024979.0176877.0062446.0268591.0099914l.0268591.0093669c.0091713.0031223.0176876.0068691.026859.0093669.0091714.0037468.0176877.0062446.0268591.0099914l.0275142.0087425.026859.0087424c.0091714.0037468.0176877.0062446.0268591.0093669.0085163.0024979.0176877.0049957.0268591.008118l.026859.0087425.0275142.008118.026859.008118.0268591.0074935.0268591.0074935.026859.008118.0268591.0068691.0275142.0074935.026859.0062446.0268591.0074935.0268591.0062447.0275141.0074935.0268591.0062446.0268591.0062446.026859.0056202.0268591.0056201.0275142.0062446.026859.0056202.0268591.0056201.0268591.0049957.026859.0049957.0268591.0049957.0275141.0056201.0268591.0049957.0268591.0043712.026859.0049957.0275142.0037468.0268591.0049957.0275141.0043712.0268591.0043712.0268591.0043713.026859.0043712.0268591.0037467.0268591.0037468.026859.0031223.0268591.0037468.0268591.0037467.026859.0031223.0268591.0031224.0268591.0031223.026859.0037467.0275142.0024979.026859.0024978.0268591.0043712.0268591.0024979.026859.0024978.0268591.0024979.0268591.0024978.026859.0024979.0268591.0024978.0268591.0012489.0275141.0024979.0268591.0012489.0268591.0012489.026859.0024979.0268591.0018733.0275142.0018734.026859.0012489.0268591.001249.0268591.0012489.026859.0012489.0268591.0012489.026859.0012489.0268591.001249.0268591.0006244.0275141.001249.0268591.0006244.0268591.0012489.026859.001249h.0268591l.0268591.0012489h.0275141l.0268591.0012489h.0268591.026859.0275142.0268591.026859.0268591.0268591.026859.0268591.026859.0268591.0268591.026859.0268591.0268591.026859l.0268591-.0012489h.0275142.026859l.0275142-.0012489h.0268591l.026859-.001249h.0275142l.0268591-.0012489.026859-.0012489.0268591-.0006245.0268591-.0012489.026859-.0006245.0268591-.0006244.013102-.0006245h.013757l.0268591-.0012489.0268591-.0012489.0281692-.0012489.0268591-.001249.0268591-.0018733.026859-.001249.0268591-.0018733.0268591-.0024979.026859-.0012489.0268591-.0024979.0268591-.0012489.026859-.0024978.0268591-.0024979.0268591-.0018733.026859-.0024979.0268591-.0018734.0268591-.0024978.0281692-.0024979.026204-.0031223.026859-.0018734.0268591-.0037467.0275142-.0024979.026859-.0024978.0268591-.0031223.0268591-.0031223.026859-.0031223.0268591-.0031223.0275142-.0031223.026859-.0031223.0268591-.0037468.0268591-.0024978.026859-.0043713.0275142-.0037467.0268591-.0037468.026859-.0031223.0268591-.0037468.0268591-.0049957.0275141-.0037467.0268591-.0037468.026859-.0043712.0268591-.0037468.0268591-.0037467.0275141-.0043713.0268591-.0037467.0268591-.0049957.026859-.0043712.0268591-.0043713.0275142-.0043712.026859-.0043712.0268591-.0049957.0268591-.0049957.026859-.0043712.0275142-.0043713.0268591-.0043712.026859-.0056201.0268591-.0049957.0268591-.0043712.026859-.0049957.0268591-.0056202.026859-.0049957.0268591-.0049957.0268591-.0049956.026859-.0049957.0268591-.0049957.0281693-.0062446.026859-.0049957.0268591-.0056202.0268591-.0056201.026859-.0049957.0268591-.0062446.0268591-.0049957.026859-.0062446.0281693-.0056201.0268591-.0056202.026859-.0062446.0268591-.0062446.0268591-.0062446.026859-.0062446.0268591-.0062446.026859-.0062447.0268591-.0062446v-1.1234051l-.0268591.0131136-.026859.0124893-.0255489.0093669-.026859.0124892-.0268591.0124892-.0268591.0124892-.026859.0124892-.0268591.0124893-.0281693.0118647-.026859.0118648-.0268591.0124892-.0268591.0124892-.026859.0112403-.0268591.0112403-.0268591.0118648-.026859.0118647-.0281693.0106159-.0268591.0106158-.026859.0112403-.0268591.0106158-.0268591.0106159-.026859.0099913-.0268591.0099914-.026859.0099914-.0268591.0093669-.0268591.0099914-.026859.0099913-.0268591.009367-.0275142.0093669-.026859.0087424-.0268591.0087425-.0268591.0087424-.026859.0087425-.0275142.0087424-.0268591.008118-.026859.008118-.0268591.0087425-.0268591.0074935-.0275141.0074935-.0268591.008118-.0268591.0068691-.026859.0074935-.0268591.0074936-.0275141.006869-.0268591.0068691-.0268591.0074935-.026859.0062446-.0268591.0074936-.0275142.0062446-.026859.0062446-.0268591.0049957-.0268591.0062446-.026859.0056201-.0275142.0056202-.0268591.0049957-.026859.0062446-.0268591.0049957-.0268591.0049956-.026859.0043713-.0275142.0043712-.0268591.0049957-.026859.0037468-.026204.0043712-.0281692.0037467-.0268591.0037468-.0268591.0037468-.026859.0043712-.0268591.0024978-.0268591.0037468-.026859.0037468-.0268591.0031223-.0268591.0024978-.026859.0031223-.0445468.0006245-.026859.0024978-.026204.0018734-.0268591.0024979-.026859.0024978-.0163775.0012489h-.0104816l-.0268591.0024979-.0275141.0012489-.0268591.0012489-.0281693-.0118647-.026859.0012489-.0255489.0006244-.0268591.0006245-.026859.0006245h-.0268591l-.0275142.0006244c-.0091713 0-.0176876 0-.026859 0h-.0268591l-.0275141-.0006244h-.0268591l-.0275142-.0006245c-.0085163 0-.0176877 0-.026859-.0006245-.0091714-.0006244-.0176877-.0006244-.0268591-.0012489l-.0268591-.0012489-.026859-.0012489-.0268591-.0024979-.0268591-.0012489c-.0085163-.0012489-.0176876-.0012489-.026859-.0024978-.0091714 0-.0176877-.001249-.0268591-.0024979l-.0268591-.0024978-.026859-.0031223-.0268591-.0024979-.0268591-.0037467-.026859-.0037468c-.0091714-.0018734-.0183428-.0031223-.0268591-.0043712-.0091714-.001249-.0176877-.0024979-.0275142-.0037468-.0085162-.0012489-.0176876-.0024978-.026859-.0037468-.0091714-.0024978-.0176877-.0037467-.0268591-.0056201s-.0183428-.0024979-.026859-.0049957c-.0098265-.0012489-.0176877-.0031223-.0275142-.0056201-.0091714-.001249-.0176877-.0024979-.0268591-.0049957-.0091714-.001249-.0176877-.0037468-.026859-.0062446l-.0268591-.0062446c-.0091714-.0018734-.0176877-.0043713-.0268591-.0062447-.0091714-.0018733-.0183427-.0049956-.026859-.0062446-.0091714-.0024978-.0176877-.0049957-.0275142-.0074935-.0085163-.0024978-.0176877-.0049957-.0268591-.0074935-.0085163-.0024979-.0176876-.0049957-.026859-.0074936-.0091714-.0024978-.0176877-.0049956-.0268591-.0087424-.0091714-.0024979-.0176877-.0056202-.0268591-.008118-.0091714-.0031223-.0176876-.0056202-.026859-.0087425s-.0176877-.006869-.0268591-.0093669c-.0091714-.0037467-.0176877-.006869-.0268591-.0099913-.0091713-.0031224-.0176876-.0068691-.026859-.0099914-.0091714-.0037468-.0176877-.0074936-.0275142-.0106159-.0091714-.0037467-.0176877-.0074935-.0268591-.0112403-.0091713-.0043712-.0176876-.0081179-.026859-.0118647-.0085163-.0037468-.0176877-.008118-.0268591-.0118648-.0091714-.0037467-.0176877-.008118-.026859-.0131136-.0091714-.0037468-.0176877-.008118-.0275142-.0124893-.0091714-.0043712-.0176877-.0087424-.0268591-.0131136-.0091714-.0037468-.0183428-.0087425-.026859-.0131137-.0091714-.0049957-.0183428-.0106159-.0268591-.0137382-.0091714-.0056201-.0176877-.0106158-.0268591-.0143626-.0091714-.0049957-.0176877-.0112403-.026859-.0156115-.0091714-.0043712-.0176877-.0106158-.0268591-.0156115s-.0183428-.0112403-.0268591-.0156115c-.0091714-.0056202-.0176876-.0124893-.026859-.0168605-.0091714-.0062446-.0176877-.0124892-.0268591-.0181093-.0091714-.0062447-.0183428-.0131137-.0275142-.0187339-.0091714-.0062446-.0176876-.0131137-.026859-.0193583-.0091714-.006869-.0183428-.0131136-.0268591-.0199827-.0091714-.008118-.0183428-.0137381-.0268591-.0218561-.0091713-.0074936-.0176876-.0143626-.026859-.0218562-.0091714-.0074935-.0176877-.0156115-.0268591-.023105-.0091714-.0087425-.0176877-.016236-.0268591-.0249785-.0091713-.008118-.0183427-.0168604-.026859-.0256029-.0091714-.0093669-.0176877-.0181093-.0268591-.0268518-.0091714-.0093669-.0176877-.0187338-.0268591-.0281007-.0091713-.0093669-.0176876-.0199828-.026859-.0299741-.0091714-.0106159-.0176877-.0206073-.0268591-.0318476-.0091714-.0112402-.0176877-.0218561-.026859-.0330964-.0091714-.0118647-.0183428-.0237295-.0275142-.0349698-.0091714-.0131137-.0176877-.0249784-.0268591-.0374676-.0091714-.0131137-.0183428-.0268519-.0275141-.0399655-.0091714-.0131137-.0176877-.0287252-.0268591-.0430878-.0091714-.0149871-.0183428-.0305986-.0268591-.0455857-.0091714-.016236-.0183427-.0337209-.026859-.0499569-.0098265-.0181093-.0183428-.0374676-.0275142-.0549525-.0091714-.0206072-.0183428-.0393411-.0268591-.0605727-.0098265-.0231051-.0183427-.0455857-.026859-.0686907-.0091714-.0256029-.0183428-.0512058-.0268591-.0780577-.0091714-.0305985-.0189979-.0618216-.0268591-.0930446-.0104815-.0393411-.0189978-.079931-.026859-.1211454-.0117918-.0611972-.0209632-.1230188-.0275142-.1879628-.0072061-.0743108-.0111367-.1511195-.0111367-.2298016s.0039306-.1554908.0111367-.2298016c.006551-.0649439.0150673-.12739.0275142-.1885872.0078612-.04059.0163775-.0811799.026859-.1211454.0078612-.0318475.0170326-.0630706.0268591-.0936692.0085163-.0262273.0176877-.0524547.0268591-.0780576.0085163-.023105.0170325-.0462101.026859-.0686907.0085163-.0199827.0176877-.0399655.0268591-.0599482.0085163-.0187339.0176877-.0374677.0275142-.0549526.0078612-.0168604.0170325-.0337209.026859-.0505813.0085163-.0156115.0176877-.0312231.0268591-.0462101.0085163-.0143626.0176877-.0287252.0268591-.0430878.0091713-.0137382.0176876-.0262274.0275141-.0399655.0085163-.0124893.0176877-.0249785.0268591-.0374677.0091714-.0112403.0176877-.023105.0275142-.0349698.0085162-.0112403.0176876-.0224806.026859-.0330964.0091714-.0106159.0176877-.0212317.0268591-.0312231.0091714-.0106158.0176877-.0199827.026859-.0299741.0091714-.0099914.0176877-.0193583.0268591-.0281007.0091714-.009367.0176877-.0181094.0268591-.0274763.0085163-.008118.0176877-.0168605.026859-.0249785.0091714-.0087424.0176877-.0162359.0268591-.0249784.0091714-.0074935.0176877-.0156115.0268591-.023105.0091714-.008118.0176877-.0149871.026859-.0224806.0085163-.0074936.0176877-.0137382.0268591-.0212317.0085163-.0068691.0176877-.0137381.0268591-.0206072.0085163-.0068691.0176876-.0131137.026859-.0199828.0091714-.006869.0176877-.0124892.0275142-.0187338.0085163-.0062446.0176877-.0124892.0268591-.0181094.0091714-.0056201.0176876-.0118647.026859-.0174849.0085163-.0056201.0176877-.0112403.0268591-.016236.0091714-.0056201.0176877-.0112402.0268591-.0162359.0091713-.0049957.0176876-.0106159.026859-.0156116.0091714-.0049956.0176877-.0093669.0268591-.0143626.0085163-.0049956.0176877-.0099913.0268591-.0143626.0085162-.0043712.0176876-.0087424.026859-.0131136.0091714-.0043713.0176877-.009367.0268591-.0131137.0091714-.0043712.0183428-.008118.0275142-.0124892.0091713-.0043713.0176876-.008118.026859-.0131137.0085163-.0037468.0176877-.008118.0268591-.0118648.0091714-.0031223.0176877-.0074935.026859-.0112403.0091714-.0037467.0176877-.0074935.0268591-.0112403.0091714-.0031223.0176877-.006869.0275142-.0099913.0085163-.0031223.0176877-.0068691.026859-.0099914.0091714-.0031223.0176877-.0062446.0268591-.0093669s.0176877-.0062446.0268591-.0099914c.0091714-.0024978.0176876-.0056202.026859-.0087425.0091714-.0024978.0176877-.0056201.0268591-.0081179.0091714-.0031224.0176877-.0049957.0268591-.008118.0085163-.0024979.0176876-.0049957.026859-.0074936l.0268591-.0074935c.0091714-.0024978.0176877-.0049957.0275142-.0074935.0085163-.0018734.0176876-.0043713.026859-.0062446.0091714-.0018734.0176877-.0043713.0268591-.0062447l.0268591-.0062446c.0091713-.0018733.0176876-.0037467.026859-.0062446.0091714-.0018734.0176877-.0031223.0268591-.0049957.0091714-.0018733.0176877-.0037467.0275142-.0049956.0085162-.0018734.0176876-.0031223.026859-.0049957s.0176877-.0031223.0268591-.0049957c.0091714-.0012489.0176877-.0024979.026859-.0037468.0091714-.0018734.0176877-.0031223.0275142-.0043712l.0268591-.0037468.026859-.0037467.0268591-.0037468.0268591-.0024979.026859-.0031223.0268591-.0024978c.0091714-.0012489.0176877-.0018734.0268591-.0024978.0091714-.0006245.0183427-.001249.026859-.0018734l.0268591-.0018734.0268591-.0018734.026859-.0012489.0268591-.0012489c.0091714-.0006245.0176877-.0006245.0268591-.001249.0091713-.0006244.0176876-.0006244.026859-.0006244l.0275142-.0006245h.0268591l.0275141-.0006244h.0268591.026859l.0275142.0006244h.0268591l.026859.0006245.0268591.0006244.0268591.0006245.026859.0012489.0268591.0012489.0268591.001249.0275141.0012489.0268591.0018734.0104816.0006244.0163775.001249.026859.0018733.0268591.0024979.0268591.0018734.026859.0024978.0268591.0024979.026204.0031223.026859.0024978.0268591.0031223.026859.0024978.0268591.0037468.0268591.0031223.026859.0037468.0281693.0037468.0268591.0037467.026859.0037468.0268591.0037467.0268591.0049957.026859.0043713.0281693.0043712.0268591.0049957.026859.0043712.0268591.0049957.0268591.0049957.026859.0049957.0268591.0049957.0268591.0056201.026859.0056201.0268591.0056202.026859.0062446.0281693.0062446.0268591.0062446.026859.0062446.0268591.0062446.0268591.0068691.026859.0068691.0268591.0068691.0268591.0074935.026859.0074935.0268591.0074935.0281693.0074936.026859.008118.0268591.008118.0268591.008118.026859.0081179.0268591.008118.0268591.0087425.026859.008118.0268591.0087424.026859.0093669.0281693.0087425.026204.0093669.026859.0093669.0268591.0093669.0268591.0099914.026859.0099914.0268591.0099914.0268591.0106158.026859.0106158.0268591.0106159.0275142.0106158.026859.0106158.0275142.0112403.0268591.0112403.026859.0112403.0275142.0149871.0275142.0112403.026859.0118647.0268591.0118648.026859.0118648.0275142.0118647.0268591.0124892.026859.0118648.0268591.0131137.0268591.0124892.0275141.0124892.0268591.0131137.0268591.0124892.026859.0131137v-1.1240297l-.026859-.0062446-.0268591-.0062446-.0268591-.0056201-.0275141-.0062446-.0268591-.0062446-.0268591-.0056202-.026859-.0056201-.0268591-.0056202-.0275142-.0056201-.026859-.0056202-.0373407-.0137381-.026859-.0056202-.0268591-.0049957-.0268591-.0056201-.026859-.0049957-.0268591-.0049957-.0281693-.0056201-.0262039-.0049957-.0275142-.0049957-.0268591-.0049957-.026859-.0049957-.0268591-.0049957-.026859-.0056201-.0268591-.0049957-.0268591-.0043712-.026859-.0049957-.0268591-.0043712-.0268591-.0043713-.0275141-.0049957-.0268591-.0043712-.0268591-.0043712-.026859-.0049957-.0268591-.0043712-.0275142-.0043713-.026859-.0043712-.0268591-.0043712-.0268591-.0043712-.026859-.0037468-.0275142-.0037468-.0268591-.00374673-.026859-.00437122-.0268591-.00374677-.026859-.00374676-.0275142-.00312231-.0268591-.00437123-.026859-.00374676-.0268591-.00374677-.0268591-.00374676-.0275141-.00312231-.0268591-.00374676-.0268591-.00312231-.026859-.0031223-.0268591-.00312231-.0275142-.0031223-.026859-.0031223-.0268591-.00312231-.0268591-.0031223-.026859-.00249785-.0268591-.0031223-.0275142-.00249785-.026859-.0031223-.0268591-.00249784-.026204-.00187339-.020308-.00562015-.0268591-.00249784-.0268591-.00187338-.026859-.00249785-.0268591-.00187338-.026859-.00249784-.0268591-.00249785-.0268591-.00187338-.026859-.00187338-.0268591-.00187338-.0268591-.00187339-.026859-.00187338-.0268591-.00124892-.0268591-.00124892-.026859-.00187339-.0281693-.00124892-.0242387-.00249784-.0275141-.00124892-.0137571-.00062446h-.013102l-.0268591-.00124893-.026859-.00124892-.026204-.00187338-.0268591-.00062446-.026859-.00062446-.0268591-.00062446-.0275142-.00062446-.026859-.00062446h-.0268591l-.0275141-.00062447h-.0275142l-.026204-.00249784-.026859-.00062446h-.0268591l-.0268591-.00062446h-.026859-.0268591-.0268591-.026859-.0268591-.0268591-.026859-.026204-.0268591-.026859-.0268591l-.0275142.00062446h-.026859l-.0268591.00062446-.0268591.00062446-.0275141.00062446h-.0268591l-.026859.00062446-.0268591.00062446-.0268591.00062447-.026859.00062446-.0275142.00124892-.0268591.00062446-.026859.00124892-.0268591.00124892-.0268591.00124892-.026859.00124893-.0268591.00124892-.0268591.00124892-.026859.00187338-.0275142.00124892-.0268591.00187339-.026859.00187338-.0268591.00124892-.0268591.00187338-.0275141.00187339-.0268591.00187338-.026859.00249784-.0268591.00249785-.0268591.00249784-.026859.00187338-.0268591.00312231-.0268591.00249784-.026859.00312231-.0268591.00249784-.0275142.0031223-.026859.00312231-.0268591.0031223-.0268591.00374677-.026859.0031223-.0268591.00312231-.0222734.00811799-.026859.00312231-.0268591.00374676-.0268591.00437123-.026859.0031223-.0268591.00437123-.0268591.00437122-.0275141.00437123-.0268591.00437123-.0275141.00437122-.0268591.00437123-.0268591.00499569-.026859.00499568-.0275142.00499571-.0268591.0049957-.026859.0049957-.0268591.0056201-.0268591.0056202-.026859.0056201-.0275142.0056201-.0268591.0056202-.026859.0062446-.0268591.0062446-.0268591.0062446-.0275141.0062446-.0229285.0062446-.0268591.0068691-.026859.0068691-.0275142.0068691-.0268591.0074935-.026859.0074935-.0268591.0074935-.026859.0074936-.0268591.0074935-.0275142.008118-.026859.008118c-.0085163.0024978-.0176877.0056201-.0268591.008118l-.0268591.0087424c-.0091714.0031223-.0183427.0056202-.026859.0087425l-.0275142.0093669-.0268591.0087425c-.0091714.0031223-.0176876.0062446-.026859.0093669-.0085163.0031223-.0176877.0062446-.0268591.0093669l-.0268591.0099914c-.0091714.0031223-.0183427.0062446-.026859.0099913l-.0275142.0099914-.0268591.0099914-.026859.0106158-.0268591.0106159-.0268591.0106158-.026859.0112403-.0268591.0112403-.026859.0118647-.0268591.0118648c-.0091714.0037468-.0176877.008118-.0275142.0118648l-.026859.0131136-.0275142.0131137-.0268591.0131137c-.0091714.0043712-.0176877.0087424-.026859.0131137-.0091714.0043712-.0176877.0093669-.0268591.0137381l-.0268591.0137382-.026859.0137381c-.0091714.0049957-.0176877.0099914-.0268591.0143626s-.0176877.0099914-.0268591.0149871c-.0091714.0049956-.0176876.0099913-.026859.014987-.0091714.0056202-.0176877.0106159-.0268591.0156115-.0091714.0049957-.0176877.0106159-.0268591.0156116-.0091713.0049956-.0183427.0106158-.0275141.0162359l-.0268591.0168605c-.0091714.0056201-.0176877.0112403-.0275142.0168604l-.026859.0174849c-.0091714.0062446-.0183428.0124893-.0268591.0181094-.0091714.0062446-.0183428.0124892-.026859.0181094-.0091714.0062446-.0176877.0124892-.0268591.0193583-.0091714.0062446-.0176877.0124892-.0268591.0193583-.0091714.006869-.0176877.0131136-.026859.0199827-.0091714.0068691-.0183428.0137381-.0268591.0206072-.019653.0149871-.039306.0305986-.0576487.0455857v-3.47637395c0-.18484044.0196529-.36530964.0576487-.53953424.0078612-.03746765.0163775-.0749353.0268591-.11115404.0085162-.0318475.0176876-.06307055.026859-.0942936.0085163-.02747628.0170326-.05495256.0268591-.08242884.0085163-.02497843.0170326-.04995687.0268591-.07431085.0085162-.02310505.0176876-.04558564.026859-.06806624.0085163-.02123167.0176877-.04183888.0268591-.06307055.0085163-.01998275.0176877-.03934104.026859-.05869932.0091714-.01873383.0176877-.0368432.0275142-.05495256.0085163-.01748491.0170326-.03496982.0268591-.05183026.0091714-.01623598.0176877-.03309643.0275141-.04933241.0085163-.01561153.0176877-.03122305.0268591-.04683457.0091714-.01498706.0176877-.02997412.0268591-.04496119.0091714-.0143626.0176876-.0287252.026859-.0430878.0085163-.01373814.0176877-.02747628.0268591-.04121442.0091714-.01311368.0176877-.02622736.0268591-.03934104.0085163-.01311368.0176876-.0256029.026859-.03871657.0091714-.01186476.0176877-.02435398.0268591-.0368432.0085163-.01186476.0176877-.02372951.0268591-.03496981.0091713-.0112403.0176876-.02310505.026859-.03434535.0085163-.01186476.0176877-.02248059.0268591-.03372089.0091714-.01061584.0176877-.02123167.0275142-.03184751.0085162-.01061583.0176876-.02123167.026859-.03122304.0091714-.00999138.0176877-.01998275.0275142-.02997413.0085163-.00999137.0176877-.01935828.0268591-.02934966.0091713-.00936691.0176876-.01873383.026859-.02810074.0085163-.00936691.0176877-.01873383.0268591-.02747628s.0176877-.01810937.026859-.02685182c.0091714-.00874245.0176877-.01748491.0268591-.02622736s.0176877-.01686044.0268591-.0256029c.0091714-.00874245.0176877-.01686044.026859-.02560289.0085163-.00811799.0176877-.01561153.0268591-.02372952s.0176877-.01561152.0275142-.02372951c.0085163-.00749353.0176876-.01498706.026859-.02310506.0091714-.00811799.0176877-.01498706.0268591-.02248059.0085163-.00749353.0176877-.0143626.0268591-.02185613s.0176876-.0143626.026859-.02123167.0176877-.01373814.0268591-.02060721.0176877-.01373814.0275142-.02060721c.0085163-.00624461.0176876-.01311368.026859-.01935829s.0176877-.01311368.0268591-.01935829c.0085163-.00624461.0176877-.01248922.0268591-.01873383.0091713-.00562014.0183427-.01248922.026859-.01810936.0091714-.00562015.0176877-.01186476.0275142-.01748491.0091714-.00624461.0176877-.01186476.0268591-.0174849.0085162-.00562015.0176876-.0112403.026859-.01686045.0085163-.00562015.0176877-.0112403.0268591-.01623598.0091714-.00562015.0176877-.0112403.026859-.01623599.0091714-.00562014.0176877-.01061583.0268591-.01561152s.0176877-.00999137.0275142-.01498706c.0085163-.00499569.0176877-.01061584.026859-.01498706.0091714-.00499569.0176877-.00936692.0268591-.01373814.0091714-.00499569.0176877-.00999138.0268591-.0143626.0091714-.00437123.0176876-.00936692.0275141-.01311368.0085163-.00437123.0176877-.00936692.0268591-.01311368l.0268591-.01311368.026859-.01311368c.0091714-.00437123.0176877-.00811799.0268591-.01248922s.0176877-.00811799.0275142-.01248922c.0091713-.00374676.0176876-.00811799.026859-.01186476.0085163-.00374676.0176877-.00749353.0268591-.01124029.0091714-.00374677.0183428-.00749353.0268591-.0112403.0091713-.00374676.0176876-.00686907.026859-.01061583l.0268591-.01061584c.0091714-.0031223.0176877-.00686907.0275142-.00999137.0085162-.00312231.0176876-.00686907.026859-.00999138.0091714-.0031223.0176877-.00686907.0268591-.00936691.0091714-.00312231.0176877-.00624461.026859-.00936692.0091714-.0031223.0176877-.00624461.0275142-.00936691.0085163-.00249784.0176877-.00562015.0268591-.00874245l.0275141-.00874246c.0085163-.00249784.0176877-.00562014.0268591-.00749353.0091714-.0031223.0176877-.00562014.0268591-.00811799.0091714-.00249784.0176876-.00499569.026859-.00749353s.0176877-.00437123.0268591-.00686907l.0268591-.00749353c.0091714-.00187338.0176876-.00437123.026859-.00624461s.0176877-.00437123.0268591-.00624461.0176877-.00437123.0268591-.00624461c.0091713-.00187338.0176876-.00374676.026859-.00562015l.0268591-.00562014c.0091714-.00187339.0176877-.00374677.0268591-.00499569.0091713-.00187338.0176876-.00312231.026859-.00499569.0091714-.00124892.0176877-.0031223.0275142-.00499569l.0268591-.00437122.026859-.00437123c.0091714-.00124892.0176877-.0031223.0268591-.00437123.0091714-.00062446.0176877-.00187338.026859-.0031223.0091714-.00124892.0176877-.00249784.0268591-.00374677l.0268591-.0031223.026859-.00249784c.0085163-.00124893.0176877-.00187339.0268591-.00312231.0091714-.00062446.0176877-.00124892.0268591-.00187338l.0275141-.00249784c.0091714-.00062447.0176877-.00124893.0268591-.00187339.0085163-.00062446.0176877-.00124892.0268591-.00187338.0091714 0 .0176876-.00124892.026859-.00124892.0091714-.00062446.0183428-.00062446.0268591-.00124892l.0275142-.00062446c.0085163 0 .0176876-.00062447.026859-.00124893h.0268591.0268591.0117917.0150673.0268591.0268591.026859.0268591.0275141.0268591.0268591.026859.0268591.0268591.0275141.0268591.0268591.026859.0275142.0268591.026859.0268591.0268591.026859.0268591.0268591.026859.0268591.026859.0268591.0268591.026859.0268591.0275142.026859.0275142.0268591.026859.0275142.0268591.026859.0268591.0268591.026859.0268591.0268591.0281692.0268591.026859.0268591.0268591.026859.0268591.0268591.026859.0268591.0268591.026859.0268591.0268591.026859.0275142.0268591.0275141.0268591.0268591.026859.0275142.026859.0268591.0268591.026859.0268591.0275142.026859.0268591.0268591.026859.0275142.0268591.026859.0268591.0268591.0275141.0268591.0268591.026859.0268591.0275141.0268591.0268591.026859.026204.0281693.026859.0268591.0268591.026859.0268591.0268591.026859.0268591.0268591.026859.0268591.0268591.026859.0268591.0281692.0268591.0268591.026859.0268591.0268591.0281692.0268591.0268591.026859.0268591.0268591.026859.0268591.0268591.0281692.0268591.0268591.026859.0268591.026859.0268591.0268591.026859.0268591.0268591.026859.0268591.0268591.0275141.0268591.0268591.026859.0268591.0268591.0275141.0019653.0268591.0268591.026859.0275142.026859.0268591.0268591.026859.0275142.0268591.0229284zm7.7124823 0h-.0045857c0 .0786821-.0045857.1573642-.0117917.2347973-.006551.0680663-.0150673.1355081-.0268591.2023254-.0091714.0449612-.0170326.0892979-.0275142.1330102-.0085163.0368432-.0170325.0711885-.026859.1067828-.0085163.0299741-.0176877.0605727-.0268591.0911713-.0085163.0268518-.0176877.0543281-.0268591.0805554-.0085163.024354-.0170325.048708-.026859.071813-.0098265.0231051-.0170326.0443368-.0268591.0661929-.0098265.0206072-.0170326.0405899-.0275142.0618216-.0091714.0193583-.0163774.0387166-.026859.0574504-.0091714.0181094-.0176877.0374677-.0268591.0537037-.0091714.0181093-.0176877.0355942-.0268591.0524547-.0091713.0156115-.0176876.0324719-.0275141.047459-.0098265.0156115-.0170326.0318475-.0268591.0462101-.0098265.0149871-.0170326.0293497-.0268591.0443367-.0085162.0137382-.0170325.0281008-.026859.0418389-.0085163.0137382-.0170326.0268518-.0268591.04059-.0098265.0131137-.0170326.0262273-.026859.039341-.0098265.0124892-.0170326.024354-.0268591.0374677-.0098265.0118647-.0170326.0243539-.0268591.0374676-.0091714.0118648-.0170326.0231051-.0275141.0349698-.0085163.0118648-.0176877.0224806-.0268591.0337209s-.0176877.0224806-.0268591.0330965c-.0091714.0112403-.0176876.0218561-.026859.0324719-.0091714.0099914-.0176877.0199828-.0275142.0305986-.0085163.0106158-.0170326.0199828-.0268591.0299741-.0085163.0099914-.0170325.0193583-.026859.0293497-.0085163.0099914-.0170326.0187338-.0268591.0281007-.0091714.0099914-.0170326.0181094-.0275142.0268519-.0091713.0099913-.0176876.0174849-.026859.0268518-.0091714.0087424-.0176877.0168604-.0268591.0256029-.0085163.0087424-.0176877.016236-.0268591.0249784-.0091713.008118-.0176876.016236-.026859.024354s-.0176877.016236-.0268591.024354-.0176877.0156115-.0275142.023105c-.0085162.008118-.0170325.0149871-.026859.0231051-.0085163.0074935-.0170326.0137381-.026204.0218561-.0091714.0074935-.0176877.0137381-.026859.0212317-.0098265.0074935-.0176877.0137381-.0268591.0206072-.0098265.0074935-.0176877.0137381-.0281693.0206072-.0091714.0074935-.0176877.0131137-.026859.0199827-.0085163.0062447-.0176877.0131137-.0268591.0199828-.0091714.0062446-.0176877.0124892-.0268591.0181094-.0098265.0062446-.0176876.0131136-.026859.0187338-.0098265.0056201-.0176877.0118647-.0281693.0174849-.0091714.0062446-.0176877.0124892-.0268591.0181094-.0091714.0056201-.0176876.0112403-.026859.0162359-.0091714.0049957-.0176877.0118648-.0268591.0168605s-.0176877.0106158-.0268591.014987c-.0091713.0062447-.0176876.0118648-.026859.016236-.0091714.0043713-.0176877.0106159-.0268591.0149871l-.0216183.0181094c-.0091714.0049956-.0183427.0099913-.0281692.0137381-.0078612.0049957-.0170326.0099914-.0268591.0137381-.0091714.0049957-.0170326.0099914-.0268591.0137382-.0091713.0043712-.0176876.0093669-.026859.0131137-.0091714.0049956-.0176877.0093669-.0268591.0137381s-.0176877.0093669-.0268591.0131137c-.0091713.0037467-.0176876.0093669-.026859.0131137-.0091714.0037467-.0176877.0087424-.0268591.0124892l-.0281692.0124892-.0268591.0124892c-.0091714.0037468-.0170326.0074935-.0268591.0112403-.0091714.0037468-.0176877.0074935-.026859.0112403-.0091714.0037468-.0170326.0074935-.0268591.0112403-.0091714.0037468-.0170326.0074935-.0268591.0106158-.0091714.0031223-.0176876.0068691-.026859.0106159-.0091714.0024978-.0176877.0062446-.0268591.0099913l-.0268591.009367c-.0091714.0031223-.0176876.006869-.026859.0093669-.0091714.0024978-.0176877.006869-.0275142.0093669-.0098265.0031223-.0176877.0056201-.0268591.0087424l-.026859.008118c-.0098265.0024979-.0183428.0056202-.0275142.008118l-.0268591.0074936c-.0091713.0031223-.0183427.0056201-.0275141.0081179-.0098265.0024979-.0176877.0037468-.0268591.0062447-.0098265.0031223-.0176877.0056201-.0268591.0074935l-.026859.0068691-.0268591.006869-.026859.0062446c-.0098265.0018734-.0176877.0037468-.0275142.0056202-.0091714.0018734-.0176877.0037468-.0268591.0056201l-.0275141.0049957-.0268591.0062446c-.0098265.001249-.0170326.0024979-.0268591.0049957-.0098265.0012489-.0183427.0024979-.0275141.0037468l-.0268591.0037467-.0268591.0037468-.026859.0037468c-.0091714.0012489-.0176877.0024978-.0268591.0037467-.0091714.001249-.0176877.001249-.0275142.0024979-.0098264 0-.0170325.0012489-.026859.0024978-.0098265.001249-.0170326.001249-.0268591.0024979-.0085163 0-.0170326.0018734-.0268591.0024978-.0098264.0006245-.0170325.0018734-.026859.0024979-.0098265.0006244-.0170326.0006244-.0268591.0018733l-.0275142.001249c-.0091713.0006244-.0176876.0012489-.026859.0012489-.0091714.0006245-.0176877.0006245-.0275142.0006245l-.026859.0006244h-.0275142c-.0091714 0-.0176877 0-.0268591 0h-.026859-.0052408-.0209632-.0275142-.026859-.0275142-.0268591-.0189978-.0268591-.0268591-.026859-.0268591-.0268591-.026859-.0268591-.0281693-.0255488-.0268591-.0268591-.026859-.0268591-.0281693-.026859-.0268591-.026859-.0268591-.026204-.0275141-.0268591-.0268591-.0275141-.0268591-.0268591-.026859-.0268591-.026204-.026859-.0268591-.0268591-.026859-.0268591-.0268591-.026859-.0268591-.026859-.0268591-.0275142-.026859-.0268591-.0268591-.026859-.0275142-.0268591-.026859-.026204-.0268591-.0275141-.0268591-.0275142-.026859-.0268591-.0275142-.026859-.0268591-.0248938-.026859-.0268591-.026859-.0268591-.0268591-.026859-.0268591-.0281693-.026859-.0255489-.0268591-.026859-.0268591-.0268591-.026859-.0281693-.0268591-.026859-.0255489-.0281693-.026859-.0268591-.026859-.0268591-.0268591-.026859-.0268591-.0268591-.026859-.026204-.0268591-.026859-.0268591-.0275142-.026859-.0268591-.0275142-.0262039-.0275142-.0268591-.026859-.0275142-.026859-.0275142-.0268591-.026859-.0255489-.0268591-.026859-.0268591-.0268591-.026859-.0268591-.0275142-.026859-.0268591-.026204-.026859-.0275142-.0268591-.026859-.0268591-.0268591-.0275141-.0268591-.026859-.0255489-.0268591-.026859-.0268591-.0268591-.026859-.0268591-.0268591-.0281692-.0255489-.0268591-.026859-.0281693-.0268591-.026859-.0268591-.0268591-.026859-.0268591-.0255489-.0281692-.0576487v-5.4140761h.0576487.0281692.0268591.0268591.026859.0268591.0268591.026859.0268591.0281693.026859.0268591.0268591.026859.0268591.0268591.026859.0281693.0268591.026859.0268591.026859.0268591.0268591.026859.0268591.0268591.026859.0268591.0281693.026859.0268591.0268591.026859.0281693.0268591.0262039.0268591.0268591.026859.0268591.026859.0268591.0268591.0275141.0268591.0275142.026859.0268591.0275142.026859.0268591.0268591.026859.0275142.0268591.026859.0268591.0268591.026859.0275142.026859.0268591.0268591.0275141.0268591.0268591.026859.019653.0268591.026859.0268591.0281693.026859.0268591.0268591.026859.0268591.0268591.026859.0281693.0268591.026859.0268591.0268591.026859.0268591.026859.0281693.0268591.026859.0268591.0268591.026859.0281693.0268591.026859.0268591.0268591.026859.0268591.0281693.026859.0268591.026859.0268591.0268591.026859.0268591.0268591.026859.0268591.0268591.026859.0268591.0268591.026859.0268591.0268591.026859.0268591.0268591.0275141.0268591.0268591.0275141.0268591.0275141.0268591.0268591.026859.0275142.0268591.026859.0268591.0268591.026859.0275142.0268591.026859.0268591.0268591.0275141.0268591.026859.0268591.0268591.026859.0268591.0275142.0262039.0268591.0268591.0281692.0268591.0268591.026859.0281693.0268591.013757.0137571.0268591l.0268591-.0006245c.0091713 0 .0176876 0 .026859-.0006244.0091714 0 .0176877-.0006245.0268591-.001249l.026859-.0012489.0268591-.0012489.0268591-.0012489.026859-.0018734.0281693-.0024979c.0091714-.0012489.0170326-.0012489.0268591-.0024978.0091714-.0012489.0170326-.0024978.026859-.0024978l.0268591-.0037468c.0098265-.0012489.0176877-.0018734.0268591-.0031223.0104816-.0012489.0176876-.0024979.0281692-.0037468.0091714-.0012489.0170326-.0024978.0268591-.0037467l.0268591-.0043713.026859-.0049957c.0091714-.0012489.0170326-.0024978.0268591-.0049956.0091714-.001249.0170326-.0037468.0268591-.0049957l.013757-.0056202c.0091714-.0018734.0176877-.0037467.0268591-.0056201.0091714-.0024979.0176877-.0049957.0275142-.0074936.0085163-.0012489.0170325-.0037467.026859-.0062446.0098265-.0018733.0170326-.0043712.0268591-.006869.0098265-.0018734.0170326-.0049957.0275142-.0068691.0091714-.0024979.0176876-.0049957.026859-.0087425l.0268591-.0074935c.0085163-.0031223.0176877-.0056201.0268591-.0087424.0091713-.0037468.0176876-.0062447.026859-.0087425.0091714-.0037468.0176877-.0068691.0275142-.0099914.0091714-.0031223.0170326-.0062446.0268591-.0093669.0085162-.0043712.0170325-.0068691.026859-.0106158.0091714-.0043712.0170326-.0074936.0268591-.0112403.0091714-.0031223.0170326-.0074935.026859-.0112403.0091714-.0037468.0170326-.008118.0275142-.0118648.0085163-.0043712.0176877-.008118.0268591-.0131137.0091714-.0037467.0176877-.0074935.026859-.0124892.0091714-.0043712.0176877-.0087424.0268591-.0131136.0091714-.0037468.0176877-.009367.0268591-.0131137.0091714-.0037468.0176877-.0093669.026859-.0143626.0091714-.0037468.0176877-.0099914.0275142-.0137382.0085163-.0049957.0170326-.0106158.026204-.014987.0098265-.0056202.0189978-.0112403.0281692-.016236s.0176877-.0118648.0268591-.0168605c.0098265-.0056201.0176877-.0118647.0268591-.0174849.0098265-.0062446.0176876-.0124892.026859-.0181093.0098265-.0062446.0176877-.0131137.0268591-.0199828.0098265-.006869.0189979-.0131137.0268591-.0206072.0098264-.0068691.0176876-.0137381.026859-.0212317.0098265-.0074935.0189979-.0143626.0268591-.0218561.0098265-.0087424.0176877-.0156115.0281693-.024354.0085162-.0087424.0176876-.0156115.026859-.0243539.0091714-.0099914.0176877-.0174849.0268591-.0268519.0091714-.0099913.0176877-.0187338.026859-.0281007.0098265-.0106158.0189979-.0199828.0268591-.0305986.0098265-.0106158.0189979-.0206072.0281693-.032472.0091714-.0118647.0176877-.023105.026859-.0349698.0091714-.0131136.0176877-.0249784.0268591-.0380921.0098265-.0131137.0176877-.0274763.0268591-.0399655.0098265-.0143626.0176876-.0305986.026859-.0455856.0098265-.016236.0176877-.0330965.0268591-.0505814.0104816-.0193583.0189979-.0387165.0268591-.0580748.0104816-.0224806.0189978-.0455857.026859-.0686907.0104816-.0287252.0189979-.0580749.0268591-.0874246.0124469-.0437122.0203081-.0886734.0268591-.1336346.0085163-.0562015.0124468-.112403.0124468-.1711023 0-.0568259-.0039305-.1124029-.0124468-.1661066-.006551-.0437123-.0144122-.0874245-.0268591-.1292634-.0078612-.0287252-.0163775-.0568259-.0268591-.0849267-.0078612-.0218561-.0163774-.0437122-.026859-.0655684-.0078612-.0193583-.0170326-.0380921-.0268591-.0562015-.0078612-.0162359-.0170326-.0330964-.0268591-.0493324-.0091714-.0137381-.0170325-.0287252-.026859-.0430878-.0091714-.0131137-.0170326-.0262273-.0268591-.0387166-.0091714-.0131136-.0176877-.0249784-.0268591-.0368431-.0091713-.0112403-.0176876-.0218562-.026859-.0337209-.0091714-.0106159-.0176877-.0206072-.0281693-.0305986-.0078612-.0106159-.0163775-.0199828-.0268591-.0293497-.0078611-.0093669-.0170325-.0181093-.026859-.0274763-.0091714-.0087424-.0170326-.0168604-.0268591-.0256029-.0091714-.0087424-.0176877-.0162359-.026859-.0243539-.0091714-.0074936-.0176877-.0149871-.0281693-.0231051-.0078612-.0074935-.0170326-.0143626-.0268591-.0218561-.0091714-.0074936-.0170326-.0131137-.026859-.0212317-.0078612-.0062446-.0170326-.0131137-.0268591-.0187338-.0091714-.0068691-.0170326-.0131137-.0268591-.0187338-.0091714-.0068691-.0170325-.0131137-.026859-.0181094-.0091714-.0056202-.0170326-.0118648-.0268591-.0174849-.0091714-.0056202-.0176877-.0112403-.0268591-.0156115-.0091714-.0043713-.0176876-.0112403-.0281692-.0156116-.0078612-.0049957-.0170326-.0099913-.026204-.0143626-.0098265-.0049957-.0176877-.0099913-.0275142-.0143626-.0091713-.0049957-.0176876-.0099913-.026859-.0131136-.0091714-.0049957-.0176877-.009367-.0268591-.0131137-.0091714-.0049957-.0176877-.0087425-.0268591-.0131137-.0091713-.0037468-.0176876-.008118-.026859-.0124892-.0091714-.0037468-.0176877-.008118-.0268591-.0124892-.0091714-.0037468-.0176877-.0074936-.0275142-.0112403-.0098264-.0031223-.0176876-.0068691-.026859-.0106159-.0098265-.0043712-.0176877-.006869-.0268591-.0106158-.0098265-.0037468-.0183428-.0068691-.026859-.0106158-.0098265-.0031223-.0176877-.0062447-.0268591-.009367-.0098265-.0024978-.0176877-.0062446-.0275142-.0093669-.0091714-.0031223-.0176877-.0056201-.026859-.0087424-.0091714-.0024979-.0176877-.0056202-.0268591-.008118-.0091714-.0024979-.0183428-.0062446-.0268591-.0087425l-.026859-.0074935c-.0091714-.0024978-.0176877-.0049957-.0275142-.0074935-.0098265-.0024979-.0170326-.0049957-.0268591-.0074936-.0098265-.0012489-.0170325-.0037467-.026859-.0062446-.0098265-.0018734-.0183428-.0043712-.0275142-.0062446-.0091714-.0024978-.0176877-.0037467-.0268591-.0056201-.0091713-.0031223-.0176876-.0043713-.0275141-.0056202-.0098265-.0024978-.0170326-.0037467-.0268591-.0049957l-.0268591-.0056201-.026859-.0043712c-.0098265-.001249-.0170326-.0031223-.0268591-.0043713l-.0268591-.0043712c-.0098264-.0012489-.0170325-.0024978-.0275141-.0037468l-.0268591-.0037467-.0275141-.0024979-.0268591-.0031223-.0268591-.0024978-.0275141-.0012489-.0268591-.0018734-.0248938-.0018734v-.031223l.0248938-.0024979.0268591-.0049957c.0091713-.0012489.0176876-.0024978.0275141-.0043712l.0268591-.0049957c.0098265-.0018734.0170326-.0037468.0268591-.0056201l.0275141-.0062447c.0091714-.0012489.0176877-.0037467.0268591-.0049956.0104816-.0024979.0176877-.0049957.0275141-.0068691.0098265-.0024979.0170326-.0043712.0268591-.0068691.0098265-.0018734.0170326-.0049957.0268591-.0074935.0098265-.0024979.0183428-.0049957.026859-.0074935.0098265-.0031223.0170326-.0056202.0268591-.0087425.0098265-.0024978.0170326-.0056201.0268591-.0087424.0098265-.0037468.0170326-.0062447.0275141-.0087425.0091714-.0037468.0176877-.0068691.0268591-.0099914s.0176877-.0062446.0275142-.0099913c.0085163-.0031224.0170325-.0068691.026859-.0106159.0098265-.0037467.0183428-.0074935.0268591-.0112403.0098265-.0037467.0170326-.0074935.0275142-.0112403.0091714-.0037467.0176876-.008118.026859-.0124892s.0176877-.008118.0268591-.0131137c.0085163-.0043712.0176877-.0087424.0268591-.0131137.0091713-.0043712.0176876-.0093669.026859-.0137381s.0176877-.0093669.0275142-.0143626c.0091714-.0049957.0170326-.0099914.0268591-.0149871.0091713-.0056201.0183427-.0106158.026859-.0162359.0091714-.0056202.0170326-.0112403.0268591-.0168605.0091714-.0056201.0183428-.0118647.026859-.0174849.0091714-.0062446.0170326-.0124892.0275142-.0187338.0085163-.0068691.0176877-.0131137.0268591-.0199828.0091714-.006869.0176877-.0137381.026859-.0206072.0091714-.0074935.0176877-.0143626.0268591-.0224806.0091714-.0074935.0176877-.014987.0268591-.023105s.0176877-.016236.026859-.0249785c.0091714-.0087424.0176877-.0168604.0275142-.0262273.0091714-.0093669.0170326-.0187338.026204-.0281008.0098265-.0099913.0189978-.0193582.0281692-.0293496.0091714-.0106159.0176877-.0212317.0268591-.0318475.0098265-.0112403.0176877-.0231051.0268591-.0343454.0098265-.0124892.0189978-.0249784.026859-.0374676.0098265-.0131137.0176877-.0268519.0268591-.04059.0098265-.0149871.0189979-.0299741.0268591-.0449612.0098264-.0168604.0189978-.0337209.026859-.0512058.0104816-.0193583.0189979-.039341.0268591-.0586993.0104816-.0237295.0189979-.0462101.0281693-.0699396.0098264-.0293497.0189978-.0599483.026859-.0905469.0124469-.0499568.0216183-.1005382.0268591-.151744.0045857-.0405899.0072061-.0818043.0072061-.1236432 0-.0437123-.0026204-.0868001-.0072061-.128639-.0052408-.0530791-.0137571-.1049094-.0268591-.1548663-.0078612-.031223-.0163775-.0618216-.026859-.0911713-.0091714-.0237295-.0170326-.0468345-.0281693-.0699396-.0078612-.0199827-.0163775-.039341-.0268591-.0580749-.0078612-.0168604-.0170326-.0337208-.026859-.0499568-.0078612-.0149871-.0170326-.0293497-.0268591-.0437123-.0091714-.0137381-.0170326-.0268518-.0268591-.0399655-.0078612-.0124892-.0170325-.024354-.026859-.0362187-.0091714-.0112403-.0170326-.0224806-.0268591-.0330965-.0091714-.0106158-.0176877-.0206072-.0268591-.0305985-.0091714-.0099914-.0176876-.0187339-.0281692-.0287252-.0078612-.0087425-.0170326-.0174849-.026204-.0268519-.0098265-.0087424-.0176877-.0168604-.0275142-.0249784-.0091713-.008118-.0176876-.016236-.026859-.0237295s-.0176877-.0149871-.0268591-.0224806-.0176877-.0143626-.0268591-.0212317c-.0091713-.006869-.0176876-.0137381-.026859-.0206072-.0091714-.0062446-.0176877-.0124892-.0268591-.0187338s-.0176877-.0124892-.0275142-.0181094c-.0085162-.0056201-.0176876-.0112403-.026859-.0168604-.0098265-.0056202-.0176877-.0112403-.0268591-.016236-.0085163-.0049957-.0183428-.0106158-.026859-.0156115-.0098265-.0049957-.0176877-.0099914-.0268591-.0149871-.0098265-.0043712-.0176877-.0093669-.0275142-.0137381-.0091714-.0043713-.0176877-.0087425-.026859-.0131137-.0091714-.0043712-.0176877-.0087425-.0268591-.0131137-.0091714-.0037468-.0176877-.0087424-.0268591-.0124892s-.0176876-.0074935-.026859-.0118648c-.0091714-.0037467-.0176877-.006869-.0275142-.0106158-.0085163-.0037468-.0170326-.0074935-.0268591-.0112403-.0098265-.0031223-.0170325-.0068691-.026859-.0106158-.0098265-.0031223-.0183428-.0062446-.0275142-.0093669-.0091714-.0031224-.0176877-.0062447-.0268591-.009367-.0091713-.0031223-.0176876-.0062446-.0275141-.0087424-.0098265-.0031223-.0170326-.0056202-.0268591-.0087425-.0098265-.0024978-.0170326-.0049957-.0268591-.0074935-.0085162-.0031223-.0170325-.0049957-.026859-.008118-.0098265-.0024978-.0170326-.0049957-.0268591-.0074935-.0098265-.0018734-.0170326-.0043712-.0268591-.0062446l-.0275141-.0068691c-.0091714-.0018734-.0176877-.0043712-.0268591-.0062446-.0091714-.0012489-.0176877-.0037468-.0275141-.0056202l-.0268591-.0049956c-.0098265-.001249-.0170326-.0037468-.0268591-.0049957-.0098265-.0018734-.0183428-.0031223-.0275141-.0049957l-.0268591-.0043712c-.0085163-.0018734-.0176877-.0031223-.0268591-.0043713l-.026859-.0037467-.0242387.0018733-.0275142-.0031223-.026859-.0031223-.0268591-.0024978-.0268591-.0031223-.026859-.0018734-.0268591-.0018734-.0268591-.0018734-.026859-.0012489-.0111367-.0006244-.0157224-.001249-.0268591-.0012489-.0281692-.0012489-.0268591-.0012489-.026859-.001249-.0268591-.0012489-.0268591-.0006244-.026859-.0006245-.0268591-.0006245h-.0268591-.0144122-.0111366-.0268591-.0268591-.026859-.0268591-.0268591-.026859-.0268591-.0281693-.0255488-.0268591-.0268591-.026859-.0268591-.0281693-.026859-.0268591-.026859-.0268591-.026204-.0275141-.0268591-.0268591-.0275141-.0268591-.0268591-.026859-.0268591-.026204-.026859-.0268591-.0268591-.026859-.0268591-.0268591-.026859-.0268591-.026859-.0268591-.0275142-.026859-.0268591-.0268591-.026859-.0275142-.0268591-.026859-.026204-.026204-.0275141-.0268591-.0275142-.026859-.0268591-.0275142-.026859-.0268591-.0255489-.026859-.0268591-.026859-.0268591-.0268591-.026859-.0268591-.0281693-.026859-.0255489-.0268591-.026859-.0268591-.0268591-.026859-.0281693-.0268591-.026859-.0255489-.0281693-.026859-.0268591-.026859-.0268591-.0268591-.026859-.0268591-.0268591-.026859-.026204-.0268591-.026859-.0268591-.0275142-.026859-.0268591-.0275142-.0262039-.0275142-.0268591-.026859-.0275142-.026859-.0275142-.0268591-.026859-.0255489-.0268591-.026859-.0268591-.0268591-.026859-.0268591-.0275142-.026859-.0268591-.026204-.026859-.0275142-.0268591-.026859-.0268591-.0268591-.0275141-.0268591-.026859-.0255489-.0268591-.026859-.0268591-.0268591-.026859-.0268591-.0268591-.0281692-.0255489-.0268591-.026859-.0281693-.0268591-.026859-.0268591-.0268591-.026859-.0268591-.0255489-.0281692-.0576487v-2.75761935c0-.1854649.0196529-.36655856.0576487-.54140762.0091714-.03746765.0170326-.07493531.0281692-.1117785.0085163-.03122305.0163775-.06307055.0268591-.09366914.0085163-.02747628.0170326-.05557702.0268591-.08242884.0091714-.02497844.0176877-.04995687.026859-.07493531.0091714-.02248059.0176877-.04558565.0268591-.06806624.0091714-.02123167.0176877-.04183888.0268591-.06307055.0098265-.01935829.0176877-.03934104.026859-.05869933.0091714-.01873382.0176877-.03684319.0268591-.05495256.0098265-.0174849.0176877-.03434535.0281693-.05183025.0085163-.01623599.0170325-.03309643.026859-.04933242.0091714-.01561152.0170326-.03122304.0268591-.04683456.0091714-.01498707.0170326-.02997413.0268591-.04496119.0091714-.01373814.0170325-.02810074.026859-.04246334.0091714-.01373814.0176877-.02747628.0268591-.04121442.0091714-.01311368.0176877-.02622736.0268591-.03934104.0091713-.01248922.0176876-.0256029.026859-.03809212.0098265-.01248921.0176877-.02497843.0281693-.03684319.0085163-.01186476.0170326-.02372952.0268591-.03559427.0091713-.01186476.0170325-.02310506.026859-.03372089.0078612-.0112403.0170326-.02248059.0268591-.03372089.0091714-.01061584.0170326-.02123167.026859-.03184751.0091714-.01061583.0170326-.02060721.0268591-.03059858.0091714-.01061584.0170326-.02060721.0268591-.03059859.0091714-.00999137.0170326-.01935829.026859-.0287252.0091714-.00999137.0176877-.01935829.0268591-.0287252.0091714-.00936692.0176877-.01810937.0268591-.02747628.0091714-.00874245.0176877-.01748491.026859-.02685182.0091714-.00874245.0176877-.01748491.0268591-.02622736s.0176877-.01686044.0281693-.0256029c.0078612-.00874245.0170325-.01686044.026859-.02497843.0091714-.008118.0176877-.01561153.0268591-.02372952s.0176877-.01561152.0268591-.02372951c.0091714-.00749353.0176876-.01498707.026859-.0224806s.0183428-.01498706.0281693-.02248059c.0091714-.00749353.0170326-.0143626.0268591-.02185613.0091713-.00749353.0170325-.01373814.0262039-.02123167.0085163-.00686907.0176877-.01373814.0268591-.02060721l.0268591-.01998275.026859-.01998275c.0098265-.00624461.0176877-.01248922.0268591-.01873383.0098265-.00624461.0183428-.01311368.026859-.01873383l.0268591-.01810936c.0098265-.00624461.0176877-.01248922.0268591-.01810937l.0275141-.0174849.0268591-.01623599c.0091714-.00562015.0183428-.01124029.0275142-.01686044l.026859-.01623599c.0098265-.00499568.0176877-.01061583.0268591-.01561152.0098265-.00499569.0183428-.00999137.0275142-.01498706s.0176876-.01061584.026859-.01498706c.0091714-.00437123.0176877-.00936692.0268591-.0143626.0091714-.00499569.0176877-.00936692.0268591-.01373814.0091714-.00437123.0176876-.00936692.026859-.01373814.0091714-.00437123.0176877-.00936692.0275142-.01311368.0098265-.00437123.0170326-.00874246.0268591-.01311368.0098264-.00437123.0170325-.00874246.026859-.01311368l.0268591-.01248922c.0098265-.00437123.0170326-.00811799.0268591-.01248922.0098264-.00374676.0170325-.00811799.026859-.01186476.0098265-.00374676.0170326-.00749353.0275142-.01124029.0091714-.00374677.0176877-.00749353.026859-.0112403.0091714-.00374676.0176877-.00686907.0268591-.01061583.0091714-.00374677.0176877-.00749354.0268591-.01061584l.0275141-.00999138.0268591-.00999137c.0098265-.0031223.0170326-.00624461.0268591-.00936691.0085163-.00249785.0183427-.00624461.026859-.00874246.0091714-.0031223.0183428-.00624461.0275142-.00936691s.0176877-.00562015.0268591-.00874245l.0275141-.00811799c.0085163-.00249785.0170326-.00562015.0268591-.008118.0091714-.00249784.0170326-.00499568.0275142-.00749353.0085162-.00249784.0176876-.00499568.026859-.00749353.0091714-.00249784.0176877-.00499569.0268591-.00749353.0091714-.00187338.0176877-.00437123.0275142-.00686907l.026859-.00686907c.0085163-.00187338.0170326-.00374677.0268591-.00624461.0091714-.00187338.0170326-.00437123.0268591-.00624461.0091713-.00124892.0170325-.00374676.026859-.00562015l.0275142-.00562014.026859-.00499569c.0091714-.00124892.0176877-.00312231.0268591-.00499569.0085163-.00124892.0176877-.0031223.0268591-.00499569.0091714-.00124892.0176877-.00249784.026859-.00374676l.0268591-.00437123c.0091714-.00124892.0176877-.0031223.0268591-.00374676.0091714-.00124893.0176876-.00249785.026859-.00374677.0098265-.00124892.0176877-.00187338.0281693-.0031223.0085163-.00124893.0176877-.00249785.0268591-.00312231l.026859-.00249784c.0091714-.00062446.0176877-.00187338.0268591-.00249785.0098265-.00062446.0176877-.00124892.0268591-.00249784l.026859-.00249784.0281693-.00124892c.0091714-.00062447.0176877-.00124893.0268591-.00187339.0091713 0 .0176876-.00124892.026859-.00124892.0091714-.00062446.0176877-.00062446.0268591-.00062446l.026859-.00062446c.0098265 0 .0176877-.00062446.0268591-.00124892h.0268591.0281692.006551.0203081.0268591.026859.0268591.0268591.026859.0268591.0268591.026859.0268591.0268591.026859.0268591.0268591.026859.0268591.0268591.026859.0268591.026859.0281693.0268591.026859.0268591.0268591.0281692.0268591.0268591.026859.0268591.0268591.026859.0268591.0268591.026859.0275142.026859.0268591.0268591.026859.0275142.0268591.026859.0268591.0268591.026859.0268591.0275142.026859.0268591.0268591.0275141.0268591.0275142.026859.0275142.026859.0268591.0268591.026859.0268591.0085163.0268591.026859.0268591.0268591.0275141.0268591.0268591.0275141.0268591.0275141.0268591.0268591.026859.0268591.0268591.0281692.0268591.0275142.026859.0268591.0275142.026859.0268591.0268591.026859.0275142.0268591.026859.0268591.026859.0275142.0268591.026859.0268591.0268591.026859.0275142.0268591.0216182.0268591.0268591.026859.0268591.0268591.026859.0268591.0281693.026859.0268591.0268591.026859.0281693.026859.0268591.0268591.026859.0268591.0268591.026859.0268591.0268591.026859.0281693.0268591.026859.0268591.0268591.026859.0268591.0268591.0281692.0268591.026859.026204.0268591.026859.0268591.0268591.0275141.0268591.0268591.026859.0275142.0268591.026859.0268591.0268591.026859.0275142.0268591.0117917zm-5.5021777-4.9875693v-.0024978h.0275141.0268591.0268591.026859.0275142.0268591.0275141.0268591.0268591.0275141.0268591.0268591.0275141.0268591.026859.0275142.0268591.0262039.0242387.0268591.026859.0268591.0268591.026859.0268591.0268591.0281692.0268591.0268591.026859.0268591.0268591.026859.0268591.0268591.026859.0281693.026859.0268591.0268591.026859.0268591.0268591.026859.0268591.0268591.0281692.0268591.0268591.026859.026204.0281693.026859.0268591.0268591.026859.0275142.026859.0268591.0222734.0045857c.0085163.0012489.0170326.0012489.026859.0012489.0085163.0012489.0176877.0012489.0268591.0024978.0098265 0 .0176877.001249.0268591.0024979.0098265 0 .0176876.0012489.026859.0012489.0098265.0018734.0183428.0031223.0268591.0037468.0098265.0012489.0189979.0024978.0268591.0037467.0058959.0006245.0111367.0018734.0157223.0024979l.0111367.0024978c.0098265.0018734.0170326.0037468.0275142.0062446.0091714.0024979.0176877.0049957.0268591.0074936.0091713.0037467.0176876.0062446.026859.0093669s.0176877.0062446.0268591.0106158c.0091714.0037468.0176877.0074935.0268591.0112403.0091713.0037468.0176876.008118.0275141.0124892.0098265.0037468.0170326.0087425.0268591.0131137.0085163.0049957.0183428.0099914.0268591.0143626.0098264.0049957.0183427.0118648.026859.0168605.0098265.0056201.0183428.0124892.0268591.0181093.0098265.0062446.0183428.0131137.0275141.0193583.0091714.008118.0176877.0149871.0268591.0231051.0091714.0074935.0176877.0156115.0275142.0243539.0098265.0087425.0183428.0181094.026859.0281008.0098265.0099914.0183428.0199827.0275142.0305986.0026204.0131136.0117918.0243539.0203081.0374676.0098265.0131137.0176877.0268518.026859.04059.0098265.014987.0176877.0318475.0268591.047459.0098265.0199828.0189979.0399655.0268591.0611972.0111367.0281007.0189978.0568259.026859.0868.0124469.0518303.0189979.1061584.0189979.1636088 0 .0562015-.0072061.111154-.0189979.1636088-.0078612.0299741-.0157223.0586993-.026859.0868-.0078612.0206072-.0170326.0399655-.0268591.0611972-.0091714.016236-.0170326.0330964-.0268591.0480835-.0091713.0137381-.0170325.0274763-.026859.0405899-.0091714.0118648-.0176877.0231051-.0268591.0349699-.0091714.0106158-.0170326.0212316-.0281692.031223-.0078612.0099914-.0170326.0181094-.0268591.0281007-.0078612.0087425-.0170326.016236-.0268591.024354-.0091714.0074936-.0176877.0143626-.026859.0224806-.0091714.0068691-.0176877.0137382-.0281693.0199828-.0078612.0062446-.0170326.0124892-.0268591.0181093-.0078612.0056202-.0170326.0112403-.026859.0156116-.0078612.0062446-.0170326.0112402-.0268591.014987-.0091714.0049957-.0170326.0093669-.0268591.0137382-.0091714.0037467-.0170325.0074935-.026859.0124892-.0091714.0037467-.0176877.0074935-.0268591.0112403-.0091714.0037467-.0176877.0074935-.0268591.0099913-.0091714.0031223-.0176876.0068691-.026859.009367-.0091714.0024978-.0176877.0049956-.0268591.0074935-.0091714.0018734-.0183428.0043712-.0275142.0068691l-.0111366.0024978c-.0052408 0-.0111367.0012489-.0157224.0024978-.0085163.0018734-.0170326.0031224-.0268591.0043713-.0085163.0006244-.0176877.0018734-.0268591.0031223-.0098264.0012489-.0176876.0018734-.026859.0024978-.0098265.0006245-.0176877.0012489-.0268591.0018734-.0098265.0006245-.0183428.0006245-.0268591.0018734-.0098264 0-.0183427.0006244-.026859.0012489h-.0144122-.0124469-.026859-.0242387-.0275142-.026859-.0268591-.0268591-.026859-.0275142-.0268591-.026859-.026204-.026204-.0275141-.0268591-.0268591-.026859-.0268591-.0275142-.0262039-.0268591-.0268591-.026859-.0268591-.026859-.0268591-.0268591-.026859-.0281693-.0268591-.026859-.0255489-.0268591-.026859-.0268591-.0268591-.026859-.0268591-.0268591-.0281692-.0255489-.0268591-.026859-.0268591-.0281692-.0268591-.0268591-.026859-.0268591-.0268591-.0262039-.0268591-.0268591-.0275141-.0268591-.0275142-.026859-.0268591-.0268591-.0262039-.013102v-1.4012903zm-.013102-.789943v-.001249-1.2932585h.0137571.026859.0268591.0268591.026859.0275142.0268591.026859.0268591.0268591.0275141.0268591.0275142.026859.0268591.0262039.0281693.0268591.026859.0242387.0268591.026859.0268591.0268591.0281692.0268591.0268591.026859.0268591.0268591.0281692.0268591.0268591.026859.0268591.0268591.0281692.0268591.026859.0268591.0268591.026859.0281693.0268591.026859.0268591.0268591.0281692.0268591.0268591.026859.0268591.0281693.026859.0268591.0104816.0163774c.0091714 0 .0170326.0006244.0268591.0012489.0091714.0006245.0176877.0012489.0268591.0018734.0091714.0006244.0176877.0012489.026859.0024978.0104816.0006245.0183428.0018734.0268591.0024979.0091714.0006244.0150673.0018734.0203081.0024978l.006551.0012489c.0091714.001249.0183427.0031223.026859.0056202.0091714.0012489.0176877.0037468.0268591.0062446.0091714.0018734.0176877.0043712.0275142.0068691.0098265.0024978.0176876.0056201.026859.0087424.0085163.0031223.0176877.0062446.0268591.0093669.0098265.0031223.0183428.0074936.0268591.0112403.0098264.0037468.0183427.0074936.026859.0124892.0098265.0037468.0183428.0087425.0275142.0131137.0091714.0049957.0176877.0099914.0268591.0149871.0091713.0049957.0176876.0106158.026859.0168604.0091714.0056202.0183428.0124893.0268591.0187339.0104816.0062446.0183428.0131136.0275142.0206072.0098264.0074935.0183427.014987.026859.023105.0098265.008118.0176877.016236.0268591.0256029.0098265.0093669.0183428.0187339.026859.0287252.0098265.0112403.0183428.0218562.0268591.0330965.0098265.0124892.0183428.0256029.0268591.0387165.0098265.0149871.0189979.0305986.0275141.0462101.0104816.0193583.0176877.0387166.0268591.0593238.0117918.0274763.019653.056826.0268591.0868001.0117918.0468346.0163775.0967914.0163775.1492462 0 .0518302-.006551.1024115-.0163775.1492461-.0072061.0299741-.0150673.0593238-.0268591.0874245-.0078612.0199828-.0163775.0399655-.0268591.0586994-.0085162.0156115-.0176876.031223-.0275141.0462101-.0085163.0131137-.0170326.0262273-.0268591.0387165-.0085163.0112403-.0170326.0224806-.0268591.0330965-.0085162.0099914-.0170325.0199827-.026859.0287252-.0091714.0087424-.0170326.0174849-.0268591.0256029-.0085163.008118-.0170326.014987-.026859.023105-.0091714.0074936-.0170326.0137382-.0275142.0206072-.0085163.0062447-.0176877.0131137-.0268591.0187339-.0091714.0056201-.0176877.0112403-.026859.016236-.0091714.0049956-.0176877.0106158-.0268591.014987s-.0176877.0093669-.0275142.0131137c-.0085163.0037468-.0170326.0087424-.026859.0124892-.0085163.0037468-.0170326.0068691-.0268591.0106158-.0085163.0031224-.0170326.0068691-.0268591.0099914-.0091714.0024979-.0170325.0056202-.026859.008118-.0091714.0024979-.0183428.0049957-.0275142.0074935-.0091714.0024979-.0176877.0043713-.0268591.0062447-.0085163.0018733-.0176876.0031223-.026859.0049956l-.006551.001249c-.0052408.0006244-.013102.0012489-.0203081.0024978-.0078612.0006245-.0163775.0018734-.0268591.0024979-.0091713.0006244-.0176876.0018733-.026859.0024978s-.0176877.0012489-.0268591.0018734c-.0098265.0006244-.0176877.0012489-.0268591.0012489-.0098264 0-.0189978.0006245-.026859.0006245h-.0045857-.0222734-.026859-.0281693-.0268591-.026859-.026204-.032755-.0275141-.0268591-.0268591-.0275141-.0268591-.0275142-.026859-.0268591-.026859-.0268591-.0268591-.0281692-.0268591-.0268591-.026859-.0268591-.0268591-.0281692-.0229285-.0268591-.026859-.0268591-.0268591-.0281692-.0268591-.0268591-.026859-.0255489-.0268591-.026859-.0268591-.0281692-.0268591-.0268591-.026859-.0268591-.0268591-.0262039-.0268591-.0268591-.026859-.0268591-.0275142-.026859-.0268591-.0268591-.026859z" transform="translate(0 -1)"/></svg>