<svg viewBox="0 0 2834.65 2318.75" xmlns="http://www.w3.org/2000/svg"><path d="m38.12 1352.58 8.71-4.77c-.42-2.59-.9-4.81-1.12-7.07-.76-7.93-2.53-16-1.93-23.8 2.93-38.43 17.49-71.14 50.37-93.19 10.66-7.15 23-12 34.84-17.15 57.13-24.65 114.25-49.33 171.62-73.41 60.76-25.5 121.76-50.4 182.7-75.46q80.79-33.21 161.69-66.23 79.88-32.82 159.66-65.85 81.22-33.42 162.52-66.65 79.86-32.81 159.7-65.72 65.55-27 131.11-53.87 62.33-25.62 124.64-51.25c3-1.26 5.93-3.07 9.08-4 9.06-2.61 8.69-2.51 9.38-12.09 1.23-16.93 2.18-34 4.9-50.67 1.29-7.89 3.51-15.25 1.71-23.4-.64-2.92.93-6.51 2-9.6 6.86-19.21 19.34-34.3 36.06-45.44 18.55-12.37 37.83-23.65 56.82-35.36 15.59-9.62 31.14-19.31 46.89-28.68a18.83 18.83 0 0 0 8.77-11.48 207.62 207.62 0 0 0 9.17-64.94c-.72-45.31-.49-90.65-.14-136 .25-32-6.1-62.26-23-89.73-17-27.65-41.87-46.17-71.19-59-4.72-2.06-10.37-2.13-15.63-2.81-23.55-3-47.23-5.59-70.35 1.89-38.42 12.44-68 35.92-86.58 72.25-7.81 15.27-11.67 31.69-14.44 48.59-1.81 11-6 21.71-9.37 32.46a8.79 8.79 0 0 1 -3.71 4.46c-13.74 8.05-30.46 2.05-34-13.54-2.23-9.83-2.24-20.6-1.08-30.7 3.61-31.25 14.13-60.17 32.28-86.09 24.47-34.93 56.55-59.43 97.31-73s80.67-10.39 120.62 2.55c34.56 11.18 63.31 30.73 85.53 59.59a171.25 171.25 0 0 1 26.15 46.95 308 308 0 0 1 10.38 34.28c2.37 10.33 4.3 21 4.38 31.56.5 66 .46 132 .53 198 0 36.1-15.87 63.17-46.54 81.83q-39.69 24.15-79.38 48.31c-16.26 9.94-29.81 22.49-37.34 40.44-7.61 18.15-6.4 36.46-.1 54.64 2.45 7.09 8.25 11.12 14.91 13.89q35.47 14.8 71 29.47 75.66 31.2 151.38 62.29 70.67 28.92 141.46 57.53 78.66 31.79 157.46 63.23c47.58 19 95.26 37.76 142.87 56.69q78.38 31.18 156.72 62.45c45.15 17.92 90.39 35.6 135.55 53.47q55.7 22 111.3 44.28c31.23 12.4 62.56 24.57 93.7 37.22 17.23 7 34 15.07 51.23 22.11 21.24 8.69 42.83 16.5 64 25.26 17.27 7.12 34.09 15.12 47.21 29.21a108.47 108.47 0 0 1 27.88 55.47 213.8 213.8 0 0 1 3.9 38.63c-.12 36.29-15 65.86-43.89 87.79-7.91 6-11.24 12.3-11.23 22.51q.43 409.47.24 818.94v6c-.1 3.67-2.18 5.4-5.71 5.51-3.33.1-6.66.09-10 .09h-1799.82q-449 0-897.94 0c-18.66 0-15.77-.37-15.78-15.51l-.06-887.94zm1390.41-2.15h1312.92c5.34 0 10.67 0 16-.15 4.28-.09 6.55-2.17 7.26-6.6 2.41-15.12 5.27-30.17 7.52-45.32a19.6 19.6 0 0 0 -1.43-10.48c-3-6.64-6.94-12.87-10.42-19.31-5.58-10.35-13.37-18.06-24.82-21.8-5.37-1.75-10.57-4-15.82-6.12q-66.31-26.43-132.61-52.86-68.64-27.3-137.31-54.46l-102.07-40.47q-55.2-21.88-110.39-43.81-62.57-25-125-50.22-57-22.86-114-45.67c-27.73-11.17-55.36-22.56-83.08-33.74-15.43-6.23-31-12.21-46.44-18.31q-111-43.75-221.91-87.54c-65.58-26-131-52.31-196.59-78.3-17.78-7-35.71-6.93-53.57.44q-59.5 24.56-119.11 48.86c-53.94 21.95-108 43.6-161.89 65.66q-122.85 50.3-245.57 100.93c-53.88 22.09-107.88 43.9-161.77 66-54.19 22.19-108.29 44.62-162.48 66.81q-91.46 37.42-183 74.63-98.4 40.2-196.74 80.57c-16.63 6.82-33.41 13.26-47.74 24.67-21.73 17.29-30.73 39.92-27.42 67 2.66 21.79 2 19.5 21.56 19.62h1315.92zm-14.53-721.43c-4.41 6.86-4.38 16.65 0 23.06z" fill="#5a5447"/><path d="m1308.76 1503.09 93.12 189.07 208.82 31.04-150.97 148.15 36.69 207.41-187.66-98.77-187.65 98.77 36.68-207.41-150.97-148.15 208.82-31.04z" fill="#d9ceb4"/><path d="m2436.11 1717.55 8.46 56.44h49.38v201.77h76.19v-201.77h55.03v-56.44z"/><path d="m562.37 1878.4c0 28.22-8.46 42.33-31 42.33s-31-14.11-31-42.33v-160.85h-76.27v170.73c0 56.44 33.86 94.53 107.23 94.53s107.23-42.33 107.23-94.53v-170.73h-76.19z"/><path d="m761.32 1717.55h-76.19v258.21h158.02l7.06-57.85h-88.89z"/><path d="m878.42 1717.55h76.19v258.2h-76.19z"/><path d="m1715.11 1717.55h-76.19v258.21h153.79l-9.87-57.85h-67.73z"/><path d="m1892.89 1717.55h-76.19v258.21h165.08l8.47-57.85h-97.36z"/><path d="m2172.26 1771.17 7.05-53.62h-169.31v258.21h167.9v-53.62h-91.71v-52.21h76.19v-50.79h-76.19v-47.97z"/><path d="m2417.76 1799.39c0-56.44-36.68-81.84-111.46-81.84h-94.53v258.21h76.23v-206h16.93c22.57 0 35.27 9.87 35.27 29.63 0 22.57-15.52 32.45-45.15 45.15l72 155.2 69.14-29.63-60.68-103c29.55-16.93 42.25-36.68 42.25-67.72z"/><path d="m1119.7 1695-132.63 282.17 69.13 29.63 15.52-39.51h96l15.52 39.51 69.13-29.63zm-25.4 214.46 25.4-63.49 25.39 63.49z"/><path d="m1486.54 1695-132.63 282.19 69.14 29.63 15.52-39.51h95.94l15.49 39.49 69.14-29.63zm-25.4 214.46 25.4-63.49 25.4 63.49z"/><path d="m261.84 1717.55 8.47 57.85h32.45v179.19c0 53.62-39.51 74.78-40.92 76.19l35.28 66.32c36.68-19.76 80.42-69.14 80.42-141.1v-238.45z"/></svg>