<svg id="Artwork" xmlns="http://www.w3.org/2000/svg" viewBox="0 0 161.25 34.25"><defs><style>.cls-1{fill:none;}.cls-2{fill:#ff5f00;}.cls-3{fill:#eb001b;}.cls-4{fill:#f79e1b;}.cls-5{fill:#211e1f;}</style></defs><title>mastercard-branding_decision</title><rect class="cls-1" x="-167.9" y="-539.15" width="250" height="555.9"/><rect class="cls-1" x="82.1" y="-539.15" width="250" height="555.9"/><g id="_Group_" data-name=" Group "><rect class="cls-2" x="21.2" y="6.65" width="11.6" height="20.9"/><path id="_Path_" data-name=" Path " class="cls-3" d="M22,17.15a13.52,13.52,0,0,1,5.1-10.5A13.43,13.43,0,0,0,8.4,8.85a13.43,13.43,0,0,0,2.2,18.7,13.22,13.22,0,0,0,16.4,0A13.08,13.08,0,0,1,22,17.15Z"/><path class="cls-4" d="M48.5,17.15A13.33,13.33,0,0,1,27,27.65a13.13,13.13,0,0,0,2.2-18.6A15.25,15.25,0,0,0,27,6.85a13.3,13.3,0,0,1,18.6,2.2A12.37,12.37,0,0,1,48.5,17.15Zm-1.2,8.2V25h.2v-.1h-.4V25h.2v.4Zm.8,0v-.5H48l-.1.4-.2-.4h-.2v.5h.1V25l.1.3h.1l.1-.3v.4Z"/></g><path id="_Compound_Path_" data-name=" Compound Path " class="cls-5" d="M71.4,21.55v-5.5a3.26,3.26,0,0,0-3-3.5H68a3.37,3.37,0,0,0-3.1,1.6,3.36,3.36,0,0,0-2.9-1.6,3.32,3.32,0,0,0-2.6,1.3v-1.1H57.5v8.8h1.9v-4.9a2,2,0,0,1,1.7-2.3h.5c1.3,0,1.9.8,1.9,2.3v4.9h1.9v-4.9a2.11,2.11,0,0,1,1.8-2.3h.3c1.3,0,1.9.8,1.9,2.3v4.9Zm28.7-8.8H97v-2.7H95.1v2.7H93.3v1.8h1.8v4c0,2,.8,3.3,3.1,3.3a4.2,4.2,0,0,0,2.4-.7l-.5-1.6a3.37,3.37,0,0,1-1.7.5c-1,0-1.3-.6-1.3-1.5v-4h3.1Zm16.4-.2a2.65,2.65,0,0,0-2.3,1.3v-1.1h-1.9v8.8h1.9v-4.9c0-1.5.6-2.3,1.9-2.3a5,5,0,0,1,1.2.2l.6-1.8a7.84,7.84,0,0,0-1.4-.2Zm-24.8.9a6.44,6.44,0,0,0-3.6-.9c-2.2,0-3.7,1.1-3.7,2.8,0,1.4,1.1,2.3,3,2.6l.9.1c1,.1,1.6.4,1.6.9,0,.7-.7,1.1-2,1.1a4.76,4.76,0,0,1-2.9-.9l-.9,1.5a5.84,5.84,0,0,0,3.8,1.1c2.6,0,4-1.2,4-2.9s-1.2-2.4-3.1-2.6l-.9-.1c-.8-.1-1.5-.3-1.5-.9s.6-1,1.7-1a5.66,5.66,0,0,1,2.8.8Zm51.5-.9a2.53,2.53,0,0,0-2.3,1.3v-1.1H139v8.8h1.9v-4.9c0-1.5.6-2.3,1.9-2.3a5,5,0,0,1,1.2.2l.6-1.8a7.84,7.84,0,0,0-1.4-.2Zm-24.8,4.6a4.4,4.4,0,0,0,4.3,4.6h.4a4.55,4.55,0,0,0,3.2-1l-.9-1.5a4,4,0,0,1-2.3.8,2.85,2.85,0,0,1,0-5.7,4,4,0,0,1,2.3.8l.9-1.5a5.17,5.17,0,0,0-3.2-1.1,4.41,4.41,0,0,0-4.7,4.2v.4Zm18,0v-4.4h-1.9v1.1a3.41,3.41,0,0,0-2.8-1.3,4.61,4.61,0,0,0,0,9.2,3.41,3.41,0,0,0,2.8-1.3v1.1h1.9Zm-7.1,0a2,2,0,1,1-.1.2C129.3,17.35,129.3,17.25,129.3,17.15Zm-23.2-4.6a4.65,4.65,0,0,0,.1,9.3h0a5.78,5.78,0,0,0,3.6-1.2l-.9-1.4a3.92,3.92,0,0,1-2.6.9,2.37,2.37,0,0,1-2.6-2.2h6.6v-.7c-.1-2.8-1.8-4.7-4.2-4.7Zm0,1.7a2.14,2.14,0,0,1,2.2,2.1h-4.6A2.32,2.32,0,0,1,106.1,14.25Zm48.2,2.9v-8h-1.9v4.6a3.41,3.41,0,0,0-2.8-1.3,4.61,4.61,0,0,0,0,9.2,3.41,3.41,0,0,0,2.8-1.3v1.1h1.9Zm2.2,3.6h.2c.1,0,.1.1.2.1s.1.1.1.2v.4c0,.1-.1.1-.1.2s-.1.1-.2.1h-.4l-.3-.3v-.4l.3-.3c.1.1.1,0,.2,0Zm0,1h.2a.1.1,0,0,0,.1-.1l.1-.1v-.4c0-.1,0-.1-.1-.1l-.1-.1h-.3a.1.1,0,0,0-.1.1l-.1.1v.4c0,.1,0,.1.1.1l.1.1Zm0-.7h.2v.2l-.1.1.2.2h-.1l-.2-.2h0v.2h-.1v-.5Zm-.1.1v.2h.2v-.1h-.1Zm-9.3-4a2,2,0,1,1-.1.2C147.1,17.35,147.1,17.25,147.1,17.15Zm-64.9,0v-4.4H80.3v1.1a3.41,3.41,0,0,0-2.8-1.3,4.61,4.61,0,0,0,0,9.2,3.41,3.41,0,0,0,2.8-1.3v1.1h1.9Zm-7.1,0A2.65,2.65,0,1,1,77.7,20a2.61,2.61,0,0,1-2.7-2.6.31.31,0,0,1,.1-.2Z"/></svg>