<?xml version="1.0" encoding="UTF-8"?>
<svg width="343px" height="226px" viewBox="0 0 343 226" version="1.1" xmlns="http://www.w3.org/2000/svg" xmlns:xlink="http://www.w3.org/1999/xlink">
    <!-- Generator: Sketch 58 (84663) - https://sketch.com -->
    <title>Shape</title>
    <desc>Created with Sketch.</desc>
    <g id="Julia-Allert-Site" stroke="none" stroke-width="1" fill="none" fill-rule="evenodd">
        <g id="cart-logged-user-Shipping" transform="translate(-955.000000, -1051.000000)" fill="#C49D69" fill-rule="nonzero">
            <g id="cc-mastercard-brands" transform="translate(955.000000, 1051.000000)">
                <path d="M287.560243,190.334375 C287.560243,193.764732 284.821007,196.236607 280.890799,196.236607 C276.841493,196.236607 274.221354,193.613393 274.221354,190.334375 C274.221354,187.055357 276.841493,184.432143 280.890799,184.432143 C284.821007,184.432143 287.560243,187.055357 287.560243,190.334375 Z M102.48316,184.432143 C98.2552083,184.432143 95.8137153,187.055357 95.8137153,190.334375 C95.8137153,193.613393 98.2552083,196.236607 102.48316,196.236607 C106.353819,196.236607 108.973958,193.764732 108.973958,190.334375 C108.91441,187.055357 106.353819,184.432143 102.48316,184.432143 Z M172.452778,184.280804 C169.237153,184.280804 167.272049,186.046429 166.79566,188.669643 L178.169444,188.669643 C177.633507,185.794196 175.549306,184.280804 172.452778,184.280804 Z M236.646181,184.432143 C232.596875,184.432143 230.155382,187.055357 230.155382,190.334375 C230.155382,193.613393 232.596875,196.236607 236.646181,196.236607 C240.695486,196.236607 243.315625,193.764732 243.315625,190.334375 C243.315625,187.055357 240.695486,184.432143 236.646181,184.432143 Z M299.70816,197.598661 C299.70816,197.75 299.886806,197.850893 299.886806,198.153571 C299.886806,198.304911 299.70816,198.405804 299.70816,198.708482 C299.529514,198.859821 299.529514,198.960714 299.410417,199.112054 C299.231771,199.263393 299.112674,199.364286 298.755382,199.364286 C298.576736,199.515625 298.457639,199.515625 298.100347,199.515625 C297.921701,199.515625 297.802604,199.515625 297.445312,199.364286 C297.266667,199.364286 297.147569,199.212946 296.968924,199.112054 C296.790278,198.960714 296.671181,198.859821 296.671181,198.708482 C296.492535,198.45625 296.492535,198.304911 296.492535,198.153571 C296.492535,197.901339 296.492535,197.75 296.671181,197.598661 C296.671181,197.346429 296.849826,197.195089 296.968924,197.04375 C297.147569,196.892411 297.266667,196.892411 297.445312,196.791518 C297.743056,196.640179 297.921701,196.640179 298.100347,196.640179 C298.39809,196.640179 298.576736,196.640179 298.755382,196.791518 C299.053125,196.942857 299.231771,196.942857 299.410417,197.04375 C299.589062,197.144643 299.529514,197.346429 299.70816,197.598661 Z M298.39809,198.304911 C298.695833,198.304911 298.695833,198.153571 298.874479,198.153571 C299.053125,198.002232 299.053125,197.901339 299.053125,197.75 C299.053125,197.598661 299.053125,197.497768 298.874479,197.346429 C298.695833,197.346429 298.576736,197.195089 298.219444,197.195089 L297.266667,197.195089 L297.266667,198.960714 L297.743056,198.960714 L297.743056,198.254464 L297.921701,198.254464 L298.576736,198.960714 L299.053125,198.960714 L298.39809,198.304911 L298.39809,198.304911 Z M343,24.2142857 L343,201.785714 C343,215.154018 330.197049,226 314.416667,226 L28.5833333,226 C12.8029514,226 0,215.154018 0,201.785714 L0,24.2142857 C0,10.8459821 12.8029514,0 28.5833333,0 L314.416667,0 C330.197049,0 343,10.8459821 343,24.2142857 Z M38.1111111,94.6375 C38.1111111,133.229018 75.0907986,164.505804 120.585938,164.505804 C136.78316,164.505804 152.682639,160.369196 166.140625,152.852679 C122.729688,122.937946 123.027431,66.4883929 166.140625,36.5736607 C152.682639,29.0066964 136.78316,24.9204749 120.585938,24.9204749 C75.0907986,24.8700893 38.1111111,56.1973214 38.1111111,94.6375 Z M171.5,149.523214 C213.481771,121.777679 213.303125,67.6991071 171.5,39.8022321 C129.696875,67.6991071 129.518229,121.828125 171.5,149.523214 Z M86.7623264,188.013839 C86.7623264,183.625 83.3680556,180.749554 78.0086806,180.598214 C75.2694444,180.598214 72.3515625,181.304464 70.3864583,183.877232 C68.9572917,181.808929 66.5157986,180.598214 63.1215278,180.598214 C60.8586806,180.598214 58.5958333,181.304464 56.809375,183.322321 L56.809375,181.102679 L51.9263889,181.102679 L51.9263889,199.616518 L56.809375,199.616518 C56.809375,190.082143 55.3206597,184.381696 62.16875,184.381696 C68.2427083,184.381696 67.0517361,189.527232 67.0517361,199.616518 L71.7560764,199.616518 C71.7560764,190.384821 70.2673611,184.381696 77.1154514,184.381696 C83.1894097,184.381696 81.9984375,189.426339 81.9984375,199.616518 L86.8814236,199.616518 L86.8814236,188.013839 L86.7623264,188.013839 Z M113.499653,181.102679 L108.795312,181.102679 L108.795312,183.322321 C107.1875,181.657589 104.924653,180.598214 101.828125,180.598214 C95.6946181,180.598214 90.9902778,184.734821 90.9902778,190.334375 C90.9902778,195.984375 95.6946181,200.070536 101.828125,200.070536 C104.924653,200.070536 107.1875,199.112054 108.795312,197.346429 L108.795312,199.666964 L113.499653,199.666964 L113.499653,181.102679 Z M137.61684,194.016964 C137.61684,186.45 123.980208,189.880357 123.980208,186.349107 C123.980208,183.473661 131.066493,183.927679 134.996701,185.794196 L136.961806,182.515179 C131.364236,179.437946 118.978125,179.488393 118.978125,186.651786 C118.978125,193.865625 132.614757,190.838839 132.614757,194.21875 C132.614757,197.396875 124.575694,197.144643 120.288194,194.622321 L118.203993,197.800446 C124.873437,201.634375 137.61684,200.827232 137.61684,194.016964 L137.61684,194.016964 Z M158.697049,198.708482 L157.386979,195.278125 C155.124132,196.3375 150.122049,197.497768 150.122049,193.209821 L150.122049,184.835714 L157.922917,184.835714 L157.922917,181.102679 L150.122049,181.102679 L150.122049,175.452679 L145.239062,175.452679 L145.239062,181.102679 L140.713368,181.102679 L140.713368,184.785268 L145.239062,184.785268 L145.239062,193.209821 C145.239062,202.088393 155.540972,200.474107 158.697049,198.708482 L158.697049,198.708482 Z M166.617014,191.948661 L182.992882,191.948661 C182.992882,183.776339 178.586285,180.547768 172.631424,180.547768 C166.319271,180.547768 161.793576,184.533036 161.793576,190.283929 C161.793576,200.625446 175.251562,202.340625 181.921007,197.447321 L179.65816,194.420536 C175.013368,197.649107 167.986632,197.346429 166.617014,191.948661 L166.617014,191.948661 Z M201.810243,181.102679 C199.071007,180.09375 194.902604,180.194643 192.758854,183.322321 L192.758854,181.102679 L187.875868,181.102679 L187.875868,199.616518 L192.758854,199.616518 L192.758854,189.174107 C192.758854,183.322321 198.415972,184.079018 200.381076,184.936607 L201.810243,181.102679 L201.810243,181.102679 Z M208.122396,190.334375 C208.122396,184.583482 215.030035,182.716964 220.448958,186.096875 L222.711806,182.817857 C215.804167,178.227232 203.23941,180.749554 203.23941,190.384821 C203.23941,200.373214 216.578299,202.391071 222.711806,197.951786 L220.448958,194.672768 C214.970486,197.951786 208.122396,195.984375 208.122396,190.334375 Z M247.841319,181.102679 L242.958333,181.102679 L242.958333,183.322321 C238.015799,177.773214 225.153299,180.900893 225.153299,190.334375 C225.153299,200.020089 238.492187,202.794643 242.958333,197.346429 L242.958333,199.666964 L247.841319,199.666964 L247.841319,181.102679 L247.841319,181.102679 Z M267.909201,181.102679 C266.480035,180.497321 261.358854,179.639732 258.857812,183.322321 L258.857812,181.102679 L254.153472,181.102679 L254.153472,199.616518 L258.857812,199.616518 L258.857812,189.174107 C258.857812,183.625 264.217187,183.978125 266.480035,184.936607 L267.909201,181.102679 L267.909201,181.102679 Z M291.907292,173.586161 L287.202951,173.586161 L287.202951,183.322321 C282.319965,177.823661 269.397917,180.749554 269.397917,190.334375 C269.397917,200.120982 282.796354,202.744196 287.202951,197.346429 L287.202951,199.666964 L291.907292,199.666964 L291.907292,173.586161 Z M296.432986,135.700893 L296.432986,138.021429 L296.909375,138.021429 L296.909375,135.700893 L298.040799,135.700893 L298.040799,135.297321 L295.301563,135.297321 L295.301563,135.700893 L296.432986,135.700893 L296.432986,135.700893 Z M300.363194,198.153571 C300.363194,197.901339 300.363194,197.598661 300.184549,197.346429 C300.005903,197.195089 299.886806,196.942857 299.70816,196.791518 C299.529514,196.640179 299.231771,196.539286 299.053125,196.387946 C298.755382,196.387946 298.39809,196.236607 298.100347,196.236607 C297.921701,196.236607 297.623958,196.387946 297.266667,196.387946 C296.968924,196.539286 296.790278,196.640179 296.611632,196.791518 C296.313889,196.942857 296.135243,197.195089 296.135243,197.346429 C295.956597,197.598661 295.956597,197.901339 295.956597,198.153571 C295.956597,198.304911 295.956597,198.557143 296.135243,198.859821 C296.135243,199.011161 296.313889,199.263393 296.611632,199.414732 C296.790278,199.566071 296.909375,199.666964 297.266667,199.818304 C297.56441,199.969643 297.921701,199.969643 298.100347,199.969643 C298.39809,199.969643 298.755382,199.969643 299.053125,199.818304 C299.231771,199.666964 299.529514,199.566071 299.70816,199.414732 C299.886806,199.263393 300.005903,199.011161 300.184549,198.859821 C300.363194,198.557143 300.363194,198.304911 300.363194,198.153571 Z M302.26875,135.246875 L301.435069,135.246875 L300.482292,137.0125 L299.529514,135.246875 L298.695833,135.246875 L298.695833,137.970982 L299.172222,137.970982 L299.172222,135.902679 L300.125,137.668304 L300.780035,137.668304 L301.613715,135.902679 L301.613715,137.970982 L302.26875,137.970982 L302.26875,135.246875 L302.26875,135.246875 Z M304.888889,94.6375 C304.888889,56.1973214 267.909201,24.8700893 222.414063,24.8700893 C206.21684,24.8700893 190.317361,29.0066964 176.859375,36.5232143 C219.793924,66.4379464 220.448958,123.038839 176.859375,152.802232 C190.317361,160.369196 206.335938,164.455418 222.414063,164.455418 C267.909201,164.505804 304.888889,133.229018 304.888889,94.6375 Z" id="Shape"></path>
            </g>
        </g>
    </g>
</svg>