<svg height="19" viewBox="0 0 28 19" width="28" xmlns="http://www.w3.org/2000/svg"><path d="m27.9999389 8.99935207c-.0081407-.30703597-.1040611-.49212751-.226851-.62497144l-6.7407407-7.99963945c-.3183692-.43285522-1.0399368-.50135209-1.4909943-.14986315-.4511094.35148893-.4750648 1.0086939-.1131403 1.39980603l5.3634053 6.37471371h-23.75458486c-.57275335 0-1.03703304.44767954-1.03703304.9999543 0 .55227477.46427969.99995431 1.03703304.99995431h23.75458486l-5.3634053 6.37470872c-.4105614.3950319-.2938951 1.0879003.139481 1.4595833.3335616.2861369 1.2226101.1949411 1.4646536-.2096404l6.7407407-7.99963449c.1755438-.20719053.2289873-.36123349.226851-.62497144z" transform="matrix(-1 0 0 1 28 .676209)"/></svg>