<svg height="38" viewBox="0 0 24 38" width="24" xmlns="http://www.w3.org/2000/svg"><path d="m11.0227114.15462584c-1.49588997 0-2.84985854.92391236-4.16176711 1.78087641-1.14792.7498382-2.26760143 1.4439146-3.28420715 1.60684494v-2.10225393c.0096-.24776854-.23440714-.47299326-.47867143-.44186742-.20900142.02647191-.38048571.22987865-.3723.44186742.08550429 11.03776184 0 27.71781914.01328572 33.12748204-1.54211572.1029843-2.73905572.7768651-2.73905572 1.5800741 0 .8736585 1.41611572 1.5800315 3.15124286 1.5800315s3.16454143-.706373 3.16454143-1.5800315c0-.803209-1.21023857-1.4770898-2.75235429-1.5800741.01332858-5.4096629.01332858-10.9657326.01332858-16.4431978 1.30988571-.1562269 2.51908285-.9941269 3.6831-1.7675337 1.28974285-.8570067 2.52734142-1.6336157 3.62991431-1.6336157 1.58145 0 3.9009643.6247371 6.2493 1.0578517 2.6060914.5221798 4.8519.5869078 6.8609271-.3749618 0-5.45022474 0-10.4578562 0-15.25149216-1.9410343 1.58891236-4.7099743 1.52845394-6.6481843 1.17834158-2.2581771-.42145843-4.5358457-1.17834158-6.3290828-1.17834158zm-1.4891914 1.2185191v2.53075731c-.85577571.31458876-1.71462.82003146-2.55291 1.32564494v-2.37008989c.83696571-.51889213 1.73180571-1.12719101 2.55291-1.48631236zm4.25484.05358427c.80535.17979551 1.6712314.38811236 2.55291.57576405v2.45035955c-.8348829-.20840225-1.6732029-.4319618-2.55291-.60253483zm9.36066.28115731v2.82536404c-.9196971.28324944-1.7586129.42901573-2.55291.4686382v-2.58434157c.8996657-.07377977 1.7646771-.285 2.55291-.70966067zm-10.2116486 2.86554157v2.55748539c-.9229885-.12625393-1.6858071-.1646382-2.5528843-.04013483v-2.54416404c.82728-.19371461 1.7807872-.08799776 2.5528843.02647191zm4.2548657.96408989c.8098415.17368989 1.6540029.29392359 2.5529058.32133483v2.58434157c-.8867529-.03074157-1.7232858-.17629438-2.5529058-.36155505zm-11.06259424 1.20511236v2.41022472c-.96368572.56837752-1.87627286 1.05678424-2.55290572 1.21856184v-2.54420679c.82085143-.12113033 1.67553857-.56171685 2.55290572-1.08457977zm7.65871714 1.4059573c.8507657.17509888 1.6917171.4053618 2.55291.61598427v2.54412139c-.8348829-.208445-1.6732029-.4320045-2.55291-.6025349zm-4.25484.12053258v2.49057978c-.85577571.3145888-1.71462.8200315-2.55291 1.3256449v-2.43703816c.83736857-.48417977 1.74183-1.03308764 2.55291-1.37918652zm13.6155.58917079v2.53075729c-.9196971.2832495-1.7586129.4290157-2.55291.4686382v-2.57089212c.8013429-.0367191 1.6448229-.16993258 2.55291-.42850337zm-10.2116486 2.57093479v2.6378832c-.9024771-.1344517-1.7265171-.2424742-2.5529057-.160582v-2.5039866c.8242114-.1923483 1.7776157-.0885955 2.5529057.026472zm4.2548657.9640899c.8098415.1736899 1.6540029.2939236 2.5529058.3213776v2.5441213c-.9130758-.0724562-1.78179-.1997775-2.5529058-.3479348v-2.5173506zm-11.06259424 1.2051124v2.463809c-.89554286.5737573-1.75230857 1.0603708-2.55290572 1.1917056v-2.5709348c.82085143-.1211304 1.67553857-.5616742 2.55290572-1.0845798z"/></svg>