<svg height="20" viewBox="0 0 20 20" width="20" xmlns="http://www.w3.org/2000/svg"><path d="m15.7503681.24709566c-.2316231-.23554321-.60222-.23554321-.8338431 0l-2.4552044 2.49675807-7.36561329 7.49027417-4.91040886 4.9935162c-.09264923.0942173-.18529845.2826518-.18529845.4239778 0 .1413259.04632461.2826518.18529845.4239778l2.96477516 3.0149531c.09264923.0942173.27794767.1884346.41692151.1884346s.27794767-.0471087.41692151-.1884346l14.73122657-14.98054842c.2316231-.23554322.2316231-.61241236 0-.84795558zm-12.18337298 17.57152374-2.13093215-2.1669975 1.62136142-1.6488025 1.06546607 1.0834988c.09264923.0942172.27794767.1884345.41692151.1884345s.27794767-.0471086.41692151-.1884345c.23162306-.2355433.23162306-.6124124 0-.8479556l-1.06546608-1.0834988 1.62136142-1.6488025 1.06546608 1.0834988c.09264922.0942173.27794767.1884346.4169215.1884346.13897384 0 .27794768-.0471087.41692151-.1884346.23162306-.2355432.23162306-.6124124 0-.8479556l-1.06546607-1.0834988 1.62136141-1.64880247 1.06546608 1.08349877c.09264922.0942173.27794767.1884346.41692151.1884346.13897383 0 .27794767-.0471087.4169215-.1884346.23162306-.2355432.23162306-.61241234 0-.84795556l-1.06546607-1.08349878 1.62136143-1.6488025 1.0654661 1.08349879c.0926492.09421728.2779476.18843457.4169215.18843457.1389738 0 .2779476-.04710865.4169215-.18843457.231623-.23554322.231623-.61241236 0-.84795558l-1.0654661-1.08349878 1.6213614-1.6488025 1.0654661 1.08349879c.0926492.09421728.2779477.18843457.4169215.18843457s.2779477-.04710865.4169215-.18843457c.2316231-.23554322.2316231-.61241236 0-.84795558l-1.0654661-1.08349878 1.6213615-1.6488025 2.1309321 2.16699757z" transform="translate(.874545 .272356)"/></svg>