<?xml version="1.0" encoding="utf-8"?>
<!-- Generator: Adobe Illustrator 20.1.0, SVG Export Plug-In . SVG Version: 6.00 Build 0)  -->
<svg version="1.1" xmlns="http://www.w3.org/2000/svg" xmlns:xlink="http://www.w3.org/1999/xlink" x="0px" y="0px"
	 viewBox="0 0 426.9 70" style="enable-background:new 0 0 426.9 70;" xml:space="preserve">
<style type="text/css">
	.st0{fill:#122D98;}
	.st1{fill:url(#SVGID_1_);}
</style>
<g id="tagline">
	<path class="st0" d="M236.2,41.6l3.3,9c0.4,1,0.8,2.2,1,3.1h0.1c0.3-0.9,0.6-2.1,1-3.2l3-8.9h2.9l-4.1,10.8c-2,5.2-3.3,7.9-5.2,9.5
		c-1.4,1.2-2.7,1.6-3.4,1.8l-0.7-2.3c0.7-0.2,1.6-0.7,2.4-1.4c0.8-0.6,1.7-1.7,2.3-3.1c0.1-0.3,0.2-0.5,0.2-0.7s-0.1-0.4-0.2-0.7
		l-5.6-14h3V41.6z"/>
	<path class="st0" d="M255.4,57.1c-4.1,0-7.3-3-7.3-7.8c0-5.1,3.4-8.1,7.5-8.1c4.4,0,7.3,3.2,7.3,7.8C263,54.7,259,57.1,255.4,57.1
		L255.4,57.1z M255.5,55.1c2.6,0,4.6-2.5,4.6-5.9c0-2.6-1.3-5.8-4.6-5.8c-3.2,0-4.6,3-4.6,5.9C250.9,52.6,252.8,55.1,255.5,55.1
		L255.5,55.1z"/>
	<path class="st0" d="M278.5,52.6c0,1.6,0,3,0.1,4.2h-2.4l-0.2-2.5l0,0c-0.7,1.2-2.3,2.8-5,2.8c-2.4,0-5.2-1.4-5.2-6.7v-8.9h2.8V50
		c0,2.9,0.9,4.9,3.4,4.9c1.9,0,3.1-1.3,3.6-2.5c0.2-0.4,0.3-0.9,0.3-1.4v-9.3h2.8v10.9H278.5z"/>
	<path class="st0" d="M291.8,41.6l2,7.7c0.4,1.7,0.8,3.3,1.1,4.9h0.1c0.3-1.5,0.8-3.2,1.4-4.8l2.5-7.7h2.3l2.4,7.6
		c0.6,1.8,1,3.4,1.4,5h0.1c0.3-1.5,0.7-3.1,1.2-4.9l2.2-7.6h2.7L306.3,57h-2.5l-2.3-7.3c-0.5-1.7-1-3.2-1.4-5H300
		c-0.4,1.8-0.8,3.4-1.4,5.1l-2.4,7.2h-2.5L289,41.6H291.8z"/>
	<path class="st0" d="M323.7,53.2c0,1.3,0.1,2.6,0.2,3.6h-2.5l-0.3-1.9H321c-0.8,1.2-2.5,2.3-4.6,2.3c-3.1,0-4.6-2.2-4.6-4.4
		c0-3.7,3.3-5.7,9.1-5.7v-0.3c0-1.3-0.3-3.5-3.5-3.5c-1.4,0-2.9,0.4-4,1.1l-0.6-1.9c1.3-0.8,3.1-1.3,5-1.3c4.7,0,5.8,3.2,5.8,6.2
		v5.8H323.7z M321,49c-3-0.1-6.4,0.5-6.4,3.4c0,1.8,1.2,2.6,2.6,2.6c2,0,3.3-1.3,3.7-2.5c0.1-0.3,0.1-0.6,0.1-0.9L321,49L321,49z"/>
	<path class="st0" d="M327.2,45.7c0-1.6,0-2.9-0.1-4.1h2.4l0.2,2.5h0.1c0.8-1.4,2.5-2.8,5-2.8c2.1,0,5.4,1.3,5.4,6.5v9.1h-2.8V48
		c0-2.4-0.9-4.5-3.5-4.5c-1.8,0-3.2,1.3-3.7,2.8c-0.1,0.3-0.2,0.8-0.2,1.3v9.2h-2.8V45.7z"/>
	<path class="st0" d="M348,38v3.6h4v2.1h-4v8.2c0,1.9,0.5,3,2.1,3c0.8,0,1.2-0.1,1.6-0.2l0.1,2.1c-0.5,0.2-1.4,0.4-2.4,0.4
		c-1.3,0-2.3-0.4-3-1.2c-0.8-0.8-1.1-2.2-1.1-4v-8.3h-2.4v-2.1h2.4v-2.8L348,38z"/>
	<path class="st0" d="M366,38v3.6h4v2.1h-4v8.2c0,1.9,0.5,3,2.1,3c0.8,0,1.2-0.1,1.6-0.2l0.1,2.1c-0.5,0.2-1.4,0.4-2.4,0.4
		c-1.3,0-2.3-0.4-3-1.2c-0.8-0.8-1.1-2.2-1.1-4v-8.3h-2.4v-2.1h2.4v-2.8L366,38z"/>
	<path class="st0" d="M378.9,57.1c-4.1,0-7.3-3-7.3-7.8c0-5.1,3.4-8.1,7.5-8.1c4.4,0,7.3,3.2,7.3,7.8
		C386.5,54.7,382.6,57.1,378.9,57.1L378.9,57.1z M379,55.1c2.6,0,4.6-2.5,4.6-5.9c0-2.6-1.3-5.8-4.6-5.8c-3.2,0-4.6,3-4.6,5.9
		C374.5,52.6,376.3,55.1,379,55.1L379,55.1z"/>
	<path class="st0" d="M397.1,34.5h2.8V44h0.1c1-1.7,2.7-2.8,5.2-2.8c3.8,0,6.4,3.1,6.4,7.7c0,5.5-3.5,8.2-6.8,8.2
		c-2.2,0-3.9-0.8-5.1-2.9h-0.1l-0.2,2.5H397c0.1-1,0.1-2.6,0.1-3.9V34.5z M399.9,50.7c0,0.3,0,0.7,0.1,1c0.5,1.9,2.2,3.2,4.1,3.2
		c2.9,0,4.6-2.4,4.6-5.8c0-3.1-1.6-5.7-4.5-5.7c-1.9,0-3.6,1.3-4.2,3.4c-0.1,0.3-0.2,0.7-0.2,1.2v2.7H399.9z"/>
	<path class="st0" d="M416.2,49.7c0.1,3.7,2.4,5.2,5.2,5.2c2,0,3.2-0.3,4.2-0.8l0.5,2c-1,0.4-2.7,1-5.1,1c-4.6,0-7.5-3.1-7.5-7.7
		s2.7-8.2,7.2-8.2c5,0,6.2,4.4,6.2,7.2c0,0.6,0,1-0.1,1.3H416.2z M424.3,47.7c0-1.8-0.7-4.5-3.8-4.5c-2.8,0-4,2.6-4.2,4.5H424.3z"/>
	<path class="st0" d="M231.7,21c0.1,3.7,2.4,5.2,5.2,5.2c2,0,3.2-0.3,4.2-0.8l0.5,2c-1,0.4-2.7,1-5.1,1c-4.6,0-7.5-3.1-7.5-7.7
		s2.7-8.2,7.2-8.2c5,0,6.2,4.4,6.2,7.2c0,0.6,0,1-0.1,1.3H231.7z M239.8,19c0-1.8-0.7-4.5-3.8-4.5c-2.8,0-4,2.6-4.2,4.5H239.8z"/>
	<path class="st0" d="M246.4,12.9l3,8.5c0.5,1.4,0.9,2.7,1.2,3.9h0.1c0.3-1.3,0.8-2.5,1.3-3.9l3-8.5h2.9l-6,15.2h-2.6l-5.8-15.2
		C243.5,12.9,246.4,12.9,246.4,12.9z"/>
	<path class="st0" d="M261.1,21c0.1,3.7,2.4,5.2,5.2,5.2c2,0,3.2-0.3,4.2-0.8l0.5,2c-1,0.4-2.7,1-5.1,1c-4.6,0-7.5-3.1-7.5-7.7
		s2.7-8.2,7.2-8.2c5,0,6.2,4.4,6.2,7.2c0,0.6,0,1-0.1,1.3H261.1z M269.2,19c0-1.8-0.7-4.5-3.8-4.5c-2.8,0-4,2.6-4.2,4.5H269.2z"/>
	<path class="st0" d="M274.9,17.6c0-1.8,0-3.3-0.1-4.7h2.4l0.1,3h0.1c0.7-2,2.4-3.3,4.2-3.3c0.3,0,0.5,0,0.8,0.1v2.6
		c-0.3,0-0.6-0.1-0.9-0.1c-1.9,0-3.3,1.5-3.7,3.5c-0.1,0.4-0.1,0.8-0.1,1.3v8.1h-2.8V17.6z"/>
	<path class="st0" d="M287.2,12.9l3.3,9c0.4,1,0.8,2.2,1,3.1h0.1c0.3-0.9,0.6-2.1,1-3.2l3-8.9h2.9l-4.1,10.8c-2,5.2-3.3,7.9-5.2,9.5
		c-1.4,1.2-2.7,1.6-3.4,1.8l-0.7-2.3c0.7-0.2,1.6-0.7,2.4-1.4c0.8-0.6,1.7-1.7,2.3-3.1c0.1-0.3,0.2-0.5,0.2-0.7s-0.1-0.4-0.2-0.7
		l-5.6-14h3V12.9z"/>
	<path class="st0" d="M302.5,12.9l2,7.7c0.4,1.7,0.8,3.3,1.1,4.9h0.1c0.3-1.5,0.8-3.2,1.4-4.8l2.5-7.7h2.3l2.4,7.6
		c0.6,1.8,1,3.4,1.4,5h0.1c0.3-1.5,0.7-3.1,1.2-4.9l2.2-7.6h2.7L317,28.3h-2.5l-2.3-7.3c-0.5-1.7-1-3.2-1.4-5h-0.1
		c-0.4,1.8-0.8,3.4-1.4,5.1l-2.4,7.2h-2.5l-4.6-15.2h2.7V12.9z"/>
	<path class="st0" d="M324.2,5.8h2.8v9.5h0.1c0.4-0.8,1.1-1.5,2-1.9c0.8-0.5,1.8-0.8,2.8-0.8c2,0,5.3,1.3,5.3,6.5v9h-2.8v-8.8
		c0-2.4-0.9-4.5-3.5-4.5c-1.8,0-3.2,1.3-3.7,2.8c-0.2,0.4-0.2,0.8-0.2,1.3v9.2h-2.8L324.2,5.8L324.2,5.8z"/>
	<path class="st0" d="M342.7,21c0.1,3.7,2.4,5.2,5.2,5.2c2,0,3.2-0.3,4.2-0.8l0.5,2c-1,0.4-2.7,1-5.1,1c-4.6,0-7.5-3.1-7.5-7.7
		s2.7-8.2,7.2-8.2c5,0,6.2,4.4,6.2,7.2c0,0.6,0,1-0.1,1.3H342.7z M350.8,19c0-1.8-0.7-4.5-3.8-4.5c-2.8,0-4,2.6-4.2,4.5H350.8z"/>
	<path class="st0" d="M357.2,17.6c0-1.8,0-3.3-0.1-4.7h2.4l0.1,3h0.1c0.7-2,2.4-3.3,4.2-3.3c0.3,0,0.5,0,0.8,0.1v2.6
		c-0.3,0-0.6-0.1-0.9-0.1c-1.9,0-3.3,1.5-3.7,3.5c-0.1,0.4-0.1,0.8-0.1,1.3v8.1h-2.8V17.6z"/>
	<path class="st0" d="M368.9,21c0.1,3.7,2.4,5.2,5.2,5.2c2,0,3.2-0.3,4.2-0.8l0.5,2c-1,0.4-2.7,1-5.1,1c-4.6,0-7.5-3.1-7.5-7.7
		s2.7-8.2,7.2-8.2c5,0,6.2,4.4,6.2,7.2c0,0.6,0,1-0.1,1.3H368.9z M377,19c0-1.8-0.7-4.5-3.8-4.5c-2.8,0-4,2.6-4.2,4.5H377z"/>
</g>
<g id="Visa-f">
	
		<linearGradient id="SVGID_1_" gradientUnits="userSpaceOnUse" x1="19.557" y1="4.4048" x2="201.5877" y2="71.4425" gradientTransform="matrix(1 0 0 -1 0 72)">
		<stop  offset="0" style="stop-color:#1A1E5A"/>
		<stop  offset="1" style="stop-color:#122D98"/>
	</linearGradient>
	<path class="st1" d="M82,1.2L53.7,68.7H35.3L21.4,14.9c-0.8-3.3-1.6-4.5-4.1-5.9C13,6.7,6.1,4.5,0,3.2l0.4-2h29.7
		c3.8,0,7.2,2.5,8.1,6.9l7.3,39L63.7,1.2H82z M154.3,46.7c0.1-17.8-24.6-18.8-24.5-26.7c0.1-2.4,2.4-5,7.4-5.6
		c2.5-0.3,9.4-0.6,17.2,3L157.5,3c-4.2-1.5-9.6-3-16.3-3c-17.2,0-29.4,9.2-29.5,22.3c-0.1,9.7,8.7,15.1,15.3,18.4
		c6.8,3.3,9.1,5.4,9.1,8.4c-0.1,4.5-5.4,6.5-10.4,6.6c-8.8,0.1-13.9-2.4-17.9-4.3l-3.2,14.8c4.1,1.9,11.6,3.5,19.4,3.6
		C142.2,69.8,154.2,60.7,154.3,46.7 M199.8,68.7H216L201.9,1.2H187c-3.3,0-6.2,2-7.4,4.9l-26.2,62.5h18.3l3.6-10.1h22.4L199.8,68.7z
		 M180.4,44.8l9.2-25.3l5.3,25.3H180.4z M106.9,1.2L92.5,68.7H75.1L89.5,1.2H106.9z"/>
</g>
</svg>
