<svg height="16" viewBox="0 0 18 16" width="18" xmlns="http://www.w3.org/2000/svg"><path d="m22.5374915 34.4875349c-.9444587-.9595194-2.2000002-1.4875349-3.5357231-1.4875349-1.3359129 0-2.5915969.5280155-3.5363881 1.4875349l-.465413.4729074-.4654129-.4729074c-.9445062-.9595194-2.2004752-1.4875349-3.5361031-1.4875349-1.33558041 0-2.59164443.5280155-3.53605562 1.4875349-1.94986091 1.9810475-1.94986091 5.2042972 0 7.1845726l6.98689472 7.0980016c.1142395.1164896.2564569.1878118.4050394.2152694.0498284.0099889.0999418.0146215.1501501.0146215.1976509 0 .3956343-.076582.5461644-.2298909l6.9868947-7.0980016c1.9499559-1.9802754 1.9499559-5.2035251-.0000475-7.1845726zm-1.0923287 6.0749293-6.445148 6.5476918-6.4452904-6.5476918c-1.34750309-1.368729-1.34750309-3.5957366 0-4.9651894.65270869-.6629872 1.5208336-1.0276567 2.4437269-1.0276567.9229883 0 1.7908757.3646695 2.4433468 1.0276567l1.0120049 1.0284287c.2900875.2942642.8026212.2942642 1.0926612 0l1.0116248-1.0284287c.6525187-.6629872 1.5204536-1.0276567 2.4437269-1.0276567.9229883 0 1.7908282.3646695 2.4433469 1.0276567 1.3476456 1.3694528 1.3476456 3.5964121 0 4.9651894z" transform="matrix(-1 0 0 1 24 -33)"/></svg>