<svg height="20" viewBox="0 0 22 20" width="22" xmlns="http://www.w3.org/2000/svg"><path d="m20.2124896 1.85941862c-1.1543384-1.19939924-2.6888891-1.85941862-4.3214393-1.85941862-1.6327825 0-3.1675073.66001938-4.3222521 1.85941862l-.5688382.59113425-.5688379-.59113425c-1.15439651-1.19939924-2.68946974-1.85941862-4.32190384-1.85941862-1.63237606 0-3.16756541.66001938-4.32184576 1.85941862-2.38316333 2.47630938-2.38316333 6.5053715 0 8.98071578l8.539538 8.872502c.1396261.145612.3134473.2347647.4950482.2690867.0609013.0124861.122151.0182769.1835167.0182769.2415734 0 .4835531-.0957275.6675343-.2873636l8.539538-8.872502c2.3832794-2.47534428 2.3832794-6.5044064-.0000581-8.98071578z" transform="matrix(-1 0 0 1 22 0)"/></svg>