<svg height="25" viewBox="0 0 20 25" width="20" xmlns="http://www.w3.org/2000/svg"><g transform="translate(.333333 .75)"><path d="m15.5382549 16.0466667c-.1746274 0-.2990196.0495416-.3755686.1546666-.075353.0990834-.1124314.26825-.1124314.503875v.5679167h.9676275v-.5679167c0-.235625-.0394706-.4047916-.1160197-.503875-.0741568-.105125-.1973529-.1546666-.3636078-.1546666z"/><path d="m11.7658235 16.026125c-.0789411 0-.1554902.0169167-.2320392.054375-.0753529.03625-.1507059.09425-.2260588.1715833v3.5029584c.0885098.0894166.1758235.1595.259549.1981666.0837255.039875.1710392.0604167.2643333.0604167.1339608 0 .2320393-.0386667.2942353-.119625.0621961-.0785417.0956863-.2054167.0956863-.3866667v-2.9024166c0-.1897084-.0394706-.3347084-.1160196-.431375-.0777451-.0990834-.1925686-.1474167-.3396863-.1474167z"/><path d="m17.8454902 11.668875c-.899451-.90625-8.47062745-.9183333-8.47062745-.9183333 0-.0012084-7.57117648.010875-8.47182353.917125-.90064706.9086666-.90303922 5.3915833-.90303922 5.4169583 0 .0338333.00239216 4.5095.90303922 5.4181667.90064705.90625 8.47182353.9255833 8.47182353.9255833s7.57237255-.0193333 8.47062745-.9255833c.9042353-.9110834.9126078-5.4181667.9126078-5.4181667 0-.0241667-.0107647-4.5070833-.9126078-5.41575zm-12.07082353 2.642625h-1.27501961v6.5129167h-1.23315686v-6.5129167h-1.27621569v-1.1068333h3.78319608v1.1068333zm3.60378431 6.5117083h-1.09201961v-.6174583c-.20333333.228375-.41264706.402375-.63272549.5207917-.21888235.1208333-.43058823.1788333-.63511764.1788333-.25356863 0-.44135295-.0821667-.57172549-.2513333-.12558824-.1679584-.19137255-.416875-.19137255-.7527917v-4.7004167h1.09321568v4.3113334c0 .134125.02272549.2295833.06698039.29.04784314.0604166.12319608.0894166.22486275.0894166.08013725 0 .183-.0386666.30619608-.119625.12319608-.0785416.23562745-.1788333.33968627-.300875v-4.27025h1.09201961zm3.96978432-1.1612083c0 .3975417-.0861177.7020417-.2571569.9147083-.1698431.2126667-.4198235.3177917-.7439608.3177917-.2152941 0-.4054705-.0386667-.5717254-.1220417-.167451-.0821666-.3253334-.206625-.4676667-.380625v.431375h-1.1051765v-7.61975h1.1051765v2.454125c.1483137-.1715833.3038039-.3032916.4688627-.3902916.167451-.0894167.334902-.134125.5047451-.134125.3468628 0 .6111961.119625.793.3576666.1841961.2404584.273902.590875.273902 1.05125zm3.7939608-1.5128333h-2.0919412v1.0572916c0 .2960417.0358824.5014584.106451.61625.0741568.1147917.1961568.170375.3707843.170375.1806078 0 .3073922-.0483333.3803529-.145.0717647-.0966666.1100393-.3093333.1100393-.641625v-.2561666h1.1255098v.2887916c0 .576375-.136353 1.0101667-.411451 1.3037917-.2727059.2912083-.6829608.435-1.2271765.435-.4891961 0-.8767255-.1534583-1.1578039-.4627917-.2810784-.308125-.4234118-.73225-.4234118-1.2747916v-2.5242084c0-.48575.1566863-.8857083.4652745-1.1914166.3085883-.3069167.7068824-.460375 1.1972745-.460375.5011569 0 .8862942.1425833 1.1554118.4265416.2691177.2839584.4018824.692375.4018824 1.22525v1.4330834z"/><path d="m15.5334706 8.39308333h-1.2319608v-.68391666c-.2248627.25133333-.4616863.44466666-.7080784.57516666-.2451961.13170834-.4832157.19816667-.7140589.19816667-.2870588 0-.4999607-.09304167-.6434901-.27670833-.1435295-.184875-.2164902-.460375-.2164902-.830125v-5.17529167h1.2295686v4.74754167c0 .14620833.0287059.25254166.0801372.31779166.0502353.06645834.1351569.09908334.2499804.09908334.0897059 0 .2045294-.0435.3432745-.1305.1375491-.087.2655295-.19816667.3791569-.3335v-4.70041667h1.2319608z"/><path d="m10.5326667 2.494c-.3265294-.29966667-.7451569-.45070833-1.25468631-.45070833-.55856863 0-1.00590196.14258333-1.33601961.42654166-.3325098.28395834-.4987647.66579167-.49756862 1.14670834v3.20933333c0 .52683333.16266666.94491667.48441176 1.25666667.32413726.31054166.75592157.46641666 1.29415686.46641666.56096079 0 .99872552-.15104166 1.32047062-.45191666.3181568-.30208334.4772353-.71654167.4772353-1.24579167v-3.19966667c-.0011961-.47125-.1638628-.85791666-.488-1.15758333zm-.76788239 4.45029167c0 .16433333-.04903921.29483333-.14711764.3915-.09927451.09425-.23084314.141375-.39709804.141375-.16386275 0-.28945098-.04591667-.37556863-.13895834-.08731373-.09425-.13276471-.22475-.13276471-.39391666v-3.37366667c0-.13533333.04784314-.24529167.14113726-.32866667.0944902-.083375.2164902-.12445833.36719608-.12445833.16147059 0 .29303921.04108333.3935098.12445833s.15070588.19333334.15070588.32866667z"/><path d="m4.08939216 0h-1.39701961l1.65058823 5.06775v3.32533333h1.38745098v-3.48241666l1.61350981-4.91066667h-1.41017647l-.85639216 3.35433333h-.08731372z"/></g></svg>